<?xml version="1.0" encoding="UTF-8" standalone="no"?><svg xmlns="http://www.w3.org/2000/svg" xmlns:xlink="http://www.w3.org/1999/xlink" clip-rule="evenodd" stroke-miterlimit="10" viewBox="0 0 1920 1080"><desc>SVG generated by Keynote</desc><defs><pattern id="1426B05B-75C1-4B30-8BF7-5A2EE50D7C69" patternUnits="userSpaceOnUse" width="635" height="635" viewBox="0 0 635 635"><image xlink:href="../../ED028254-E7C0-4437-B76C-37E8E3F1B2BA/assets/49267FAB7D96704EDECB14F0305AF583.png" width="635.00" height="635.00"></image></pattern><pattern id="F91DCA7C-428B-43C3-8D41-3C4BF39BBE40" patternUnits="userSpaceOnUse" width="635" height="635" viewBox="0 0 635 635"><image xlink:href="../../ED028254-E7C0-4437-B76C-37E8E3F1B2BA/assets/49267FAB7D96704EDECB14F0305AF583.png" width="635.00" height="635.00"></image></pattern><pattern id="87AB8B28-4809-4362-BA32-8603264FC2C4" patternUnits="userSpaceOnUse" width="635" height="635" viewBox="0 0 635 635"><image xlink:href="../../ED028254-E7C0-4437-B76C-37E8E3F1B2BA/assets/49267FAB7D96704EDECB14F0305AF583.png" width="635.00" height="635.00"></image></pattern><pattern id="42437C8A-F933-48CA-99FA-8FB0E1954ACD" patternUnits="userSpaceOnUse" width="635" height="635" viewBox="0 0 635 635"><image xlink:href="../../ED028254-E7C0-4437-B76C-37E8E3F1B2BA/assets/49267FAB7D96704EDECB14F0305AF583.png" width="635.00" height="635.00"></image></pattern><pattern id="68E090B9-631F-4148-8AB5-4843245553F5" patternUnits="userSpaceOnUse" width="635" height="635" viewBox="0 0 635 635"><image xlink:href="../../ED028254-E7C0-4437-B76C-37E8E3F1B2BA/assets/49267FAB7D96704EDECB14F0305AF583.png" width="635.00" height="635.00"></image></pattern><pattern id="9168AF8B-F140-424E-884B-075A023ADE5F" patternUnits="userSpaceOnUse" width="635" height="635" viewBox="0 0 635 635"><image xlink:href="../../ED028254-E7C0-4437-B76C-37E8E3F1B2BA/assets/49267FAB7D96704EDECB14F0305AF583.png" width="635.00" height="635.00"></image></pattern><pattern id="50891253-7101-4C97-9EF1-5638E6CB7705" patternUnits="userSpaceOnUse" width="635" height="635" viewBox="0 0 635 635"><image xlink:href="../../ED028254-E7C0-4437-B76C-37E8E3F1B2BA/assets/49267FAB7D96704EDECB14F0305AF583.png" width="635.00" height="635.00"></image></pattern><pattern id="8DADCA1B-5327-4FE5-9716-326813714ECD" patternUnits="userSpaceOnUse" width="635" height="635" viewBox="0 0 635 635"><image xlink:href="../../ED028254-E7C0-4437-B76C-37E8E3F1B2BA/assets/49267FAB7D96704EDECB14F0305AF583.png" width="635.00" height="635.00"></image></pattern><pattern id="38B129A2-2E94-462F-B945-3858B3BBF394" patternUnits="userSpaceOnUse" width="635" height="635" viewBox="0 0 635 635"><image xlink:href="../../ED028254-E7C0-4437-B76C-37E8E3F1B2BA/assets/49267FAB7D96704EDECB14F0305AF583.png" width="635.00" height="635.00"></image></pattern></defs><g transform="matrix(1.00, 0.00, -0.00, -1.00, 0.0, 1080.0)"><g><clipPath id="clip0x7fd02791f780"><path d="M 0.0 1080.0 L 1920.0 1080.0 L 1920.0 0.0 L 0.0 0.0 Z M 0.0 1080.0 "></path></clipPath><g clip-path="url(#clip0x7fd02791f780)"><image xlink:href="../../2E921865-8DBC-4D3A-991F-A6C70785B1CF/assets/7D0D479F0D8AC86C9E875656D9072873.jpeg" width="2048.00" height="1536.00" transform="matrix(0.94, 0.00, -0.00, -0.70, 0.0, 1080.0)"></image></g></g><g><clipPath id="clip0x7fd02551fa70"><path d="M 358.2 915.5 L 1610.5 915.5 L 1610.5 962.4 L 358.2 962.4 Z M 358.2 915.5 "></path></clipPath><g clip-path="url(#clip0x7fd02551fa70)"><text xml:space="preserve" font-family="HelveticaNeue-Light,Helvetica Neue" font-size="38.0" fill="#FEFFFE" transform="matrix(1.00, 0.00, -0.00, -1.00, 837.3, 924.6)">C</text><text xml:space="preserve" font-family="HelveticaNeue-Light,Helvetica Neue" font-size="38.0" fill="#FEFFFE" transform="matrix(1.00, 0.00, -0.00, -1.00, 864.0, 924.6)">G</text><text xml:space="preserve" font-family="HelveticaNeue-Light,Helvetica Neue" font-size="38.0" fill="#FEFFFE" transform="matrix(1.00, 0.00, -0.00, -1.00, 892.2, 924.6)">P</text><text xml:space="preserve" font-family="HelveticaNeue-Light,Helvetica Neue" font-size="38.0" fill="#FEFFFE" transform="matrix(1.00, 0.00, -0.00, -1.00, 913.3, 924.6)">A</text><text xml:space="preserve" font-family="HelveticaNeue-Light,Helvetica Neue" font-size="38.0" fill="#FEFFFE" transform="matrix(1.00, 0.00, -0.00, -1.00, 937.3, 924.6)"> </text><text xml:space="preserve" font-family="HelveticaNeue-Light,Helvetica Neue" font-size="38.0" fill="#FEFFFE" transform="matrix(1.00, 0.00, -0.00, -1.00, 947.8, 924.6)">D</text><text xml:space="preserve" font-family="HelveticaNeue-Light,Helvetica Neue" font-size="38.0" fill="#FEFFFE" transform="matrix(1.00, 0.00, -0.00, -1.00, 973.9, 924.6)">i</text><text xml:space="preserve" font-family="HelveticaNeue-Light,Helvetica Neue" font-size="38.0" fill="#FEFFFE" transform="matrix(1.00, 0.00, -0.00, -1.00, 980.9, 924.6)">s</text><text xml:space="preserve" font-family="HelveticaNeue-Light,Helvetica Neue" font-size="38.0" fill="#FEFFFE" transform="matrix(1.00, 0.00, -0.00, -1.00, 999.2, 924.6)">t</text><text xml:space="preserve" font-family="HelveticaNeue-Light,Helvetica Neue" font-size="38.0" fill="#FEFFFE" transform="matrix(1.00, 0.00, -0.00, -1.00, 1010.4, 924.6)">r</text><text xml:space="preserve" font-family="HelveticaNeue-Light,Helvetica Neue" font-size="38.0" fill="#FEFFFE" transform="matrix(1.00, 0.00, -0.00, -1.00, 1022.4, 924.6)">i</text><text xml:space="preserve" font-family="HelveticaNeue-Light,Helvetica Neue" font-size="38.0" fill="#FEFFFE" transform="matrix(1.00, 0.00, -0.00, -1.00, 1029.4, 924.6)">b</text><text xml:space="preserve" font-family="HelveticaNeue-Light,Helvetica Neue" font-size="38.0" fill="#FEFFFE" transform="matrix(1.00, 0.00, -0.00, -1.00, 1051.2, 924.6)">u</text><text xml:space="preserve" font-family="HelveticaNeue-Light,Helvetica Neue" font-size="38.0" fill="#FEFFFE" transform="matrix(1.00, 0.00, -0.00, -1.00, 1071.6, 924.6)">t</text><text xml:space="preserve" font-family="HelveticaNeue-Light,Helvetica Neue" font-size="38.0" fill="#FEFFFE" transform="matrix(1.00, 0.00, -0.00, -1.00, 1082.9, 924.6)">i</text><text xml:space="preserve" font-family="HelveticaNeue-Light,Helvetica Neue" font-size="38.0" fill="#FEFFFE" transform="matrix(1.00, 0.00, -0.00, -1.00, 1089.9, 924.6)">o</text><text xml:space="preserve" font-family="HelveticaNeue-Light,Helvetica Neue" font-size="38.0" fill="#FEFFFE" transform="matrix(1.00, 0.00, -0.00, -1.00, 1111.0, 924.6)">n</text></g></g><path d="M 378.2 80.4 L 378.2 762.4 " fill="none" stroke="#FEFFFE" stroke-width="1.00" transform="matrix(1.00, 0.00, 0.00, -1.00, 293.3, 961.4)"></path><path d="M 691.2 80.4 L 691.2 762.4 " fill="none" stroke="#FEFFFE" stroke-width="1.00" transform="matrix(1.00, 0.00, 0.00, -1.00, 293.3, 961.4)"></path><path d="M 1003.2 80.4 L 1003.2 762.4 " fill="none" stroke="#FEFFFE" stroke-width="1.00" transform="matrix(1.00, 0.00, 0.00, -1.00, 293.3, 961.4)"></path><path d="M 1316.2 80.4 L 1316.2 762.4 " fill="none" stroke="#FEFFFE" stroke-width="1.00" transform="matrix(1.00, 0.00, 0.00, -1.00, 293.3, 961.4)"></path><path d="M 66.2 762.9 L 66.2 79.9 " fill="none" stroke="#FEFFFE" stroke-width="1.00" stroke-linecap="square" transform="matrix(1.00, 0.00, 0.00, -1.00, 293.3, 961.4)"></path><g><clipPath id="clip0x7fd0243628e0"><path d="M 292.3 841.5 L 337.0 841.5 L 337.0 878.6 L 292.3 878.6 Z M 292.3 841.5 "></path></clipPath><g clip-path="url(#clip0x7fd0243628e0)"><text xml:space="preserve" font-family="HelveticaNeue-Light,Helvetica Neue" font-size="30.0" fill="#FEFFFE" transform="matrix(1.00, 0.00, -0.00, -1.00, 293.8, 848.9)">2</text><text xml:space="preserve" font-family="HelveticaNeue-Light,Helvetica Neue" font-size="30.0" fill="#FEFFFE" transform="matrix(1.00, 0.00, -0.00, -1.00, 310.5, 848.9)">.</text><text xml:space="preserve" font-family="HelveticaNeue-Light,Helvetica Neue" font-size="30.0" fill="#FEFFFE" transform="matrix(1.00, 0.00, -0.00, -1.00, 318.8, 848.9)">4</text></g></g><g><clipPath id="clip0x7fd024865130"><path d="M 292.3 798.8 L 337.0 798.8 L 337.0 835.9 L 292.3 835.9 Z M 292.3 798.8 "></path></clipPath><g clip-path="url(#clip0x7fd024865130)"><text xml:space="preserve" font-family="HelveticaNeue-Light,Helvetica Neue" font-size="30.0" fill="#FEFFFE" transform="matrix(1.00, 0.00, -0.00, -1.00, 293.8, 806.2)">2</text><text xml:space="preserve" font-family="HelveticaNeue-Light,Helvetica Neue" font-size="30.0" fill="#FEFFFE" transform="matrix(1.00, 0.00, -0.00, -1.00, 310.5, 806.2)">.</text><text xml:space="preserve" font-family="HelveticaNeue-Light,Helvetica Neue" font-size="30.0" fill="#FEFFFE" transform="matrix(1.00, 0.00, -0.00, -1.00, 318.8, 806.2)">5</text></g></g><g><clipPath id="clip0x7fd0248bd370"><path d="M 292.3 756.1 L 337.0 756.1 L 337.0 793.3 L 292.3 793.3 Z M 292.3 756.1 "></path></clipPath><g clip-path="url(#clip0x7fd0248bd370)"><text xml:space="preserve" font-family="HelveticaNeue-Light,Helvetica Neue" font-size="30.0" fill="#FEFFFE" transform="matrix(1.00, 0.00, -0.00, -1.00, 293.8, 763.5)">2</text><text xml:space="preserve" font-family="HelveticaNeue-Light,Helvetica Neue" font-size="30.0" fill="#FEFFFE" transform="matrix(1.00, 0.00, -0.00, -1.00, 310.5, 763.5)">.</text><text xml:space="preserve" font-family="HelveticaNeue-Light,Helvetica Neue" font-size="30.0" fill="#FEFFFE" transform="matrix(1.00, 0.00, -0.00, -1.00, 318.8, 763.5)">6</text></g></g><g><clipPath id="clip0x7fd023014bc0"><path d="M 292.3 713.5 L 337.0 713.5 L 337.0 750.6 L 292.3 750.6 Z M 292.3 713.5 "></path></clipPath><g clip-path="url(#clip0x7fd023014bc0)"><text xml:space="preserve" font-family="HelveticaNeue-Light,Helvetica Neue" font-size="30.0" fill="#FEFFFE" transform="matrix(1.00, 0.00, -0.00, -1.00, 293.8, 720.8)">2</text><text xml:space="preserve" font-family="HelveticaNeue-Light,Helvetica Neue" font-size="30.0" fill="#FEFFFE" transform="matrix(1.00, 0.00, -0.00, -1.00, 310.5, 720.8)">.</text><text xml:space="preserve" font-family="HelveticaNeue-Light,Helvetica Neue" font-size="30.0" fill="#FEFFFE" transform="matrix(1.00, 0.00, -0.00, -1.00, 318.8, 720.8)">7</text></g></g><g><clipPath id="clip0x7fd02463f830"><path d="M 292.3 670.8 L 337.0 670.8 L 337.0 707.9 L 292.3 707.9 Z M 292.3 670.8 "></path></clipPath><g clip-path="url(#clip0x7fd02463f830)"><text xml:space="preserve" font-family="HelveticaNeue-Light,Helvetica Neue" font-size="30.0" fill="#FEFFFE" transform="matrix(1.00, 0.00, -0.00, -1.00, 293.8, 678.2)">2</text><text xml:space="preserve" font-family="HelveticaNeue-Light,Helvetica Neue" font-size="30.0" fill="#FEFFFE" transform="matrix(1.00, 0.00, -0.00, -1.00, 310.5, 678.2)">.</text><text xml:space="preserve" font-family="HelveticaNeue-Light,Helvetica Neue" font-size="30.0" fill="#FEFFFE" transform="matrix(1.00, 0.00, -0.00, -1.00, 318.8, 678.2)">8</text></g></g><g><clipPath id="clip0x7fd024377ce0"><path d="M 292.3 628.1 L 337.0 628.1 L 337.0 665.2 L 292.3 665.2 Z M 292.3 628.1 "></path></clipPath><g clip-path="url(#clip0x7fd024377ce0)"><text xml:space="preserve" font-family="HelveticaNeue-Light,Helvetica Neue" font-size="30.0" fill="#FEFFFE" transform="matrix(1.00, 0.00, -0.00, -1.00, 293.8, 635.5)">2</text><text xml:space="preserve" font-family="HelveticaNeue-Light,Helvetica Neue" font-size="30.0" fill="#FEFFFE" transform="matrix(1.00, 0.00, -0.00, -1.00, 310.5, 635.5)">.</text><text xml:space="preserve" font-family="HelveticaNeue-Light,Helvetica Neue" font-size="30.0" fill="#FEFFFE" transform="matrix(1.00, 0.00, -0.00, -1.00, 318.8, 635.5)">9</text></g></g><g><clipPath id="clip0x7fd0271754c0"><path d="M 317.3 585.4 L 337.0 585.4 L 337.0 622.6 L 317.3 622.6 Z M 317.3 585.4 "></path></clipPath><g clip-path="url(#clip0x7fd0271754c0)"><text xml:space="preserve" font-family="HelveticaNeue-Light,Helvetica Neue" font-size="30.0" fill="#FEFFFE" transform="matrix(1.00, 0.00, -0.00, -1.00, 318.8, 592.8)">3</text></g></g><g><clipPath id="clip0x7fd024627900"><path d="M 292.3 542.8 L 337.0 542.8 L 337.0 579.9 L 292.3 579.9 Z M 292.3 542.8 "></path></clipPath><g clip-path="url(#clip0x7fd024627900)"><text xml:space="preserve" font-family="HelveticaNeue-Light,Helvetica Neue" font-size="30.0" fill="#FEFFFE" transform="matrix(1.00, 0.00, -0.00, -1.00, 293.8, 550.2)">3</text><text xml:space="preserve" font-family="HelveticaNeue-Light,Helvetica Neue" font-size="30.0" fill="#FEFFFE" transform="matrix(1.00, 0.00, -0.00, -1.00, 310.5, 550.2)">.</text><text xml:space="preserve" font-family="HelveticaNeue-Light,Helvetica Neue" font-size="30.0" fill="#FEFFFE" transform="matrix(1.00, 0.00, -0.00, -1.00, 318.8, 550.2)">1</text></g></g><g><clipPath id="clip0x7fd02715f4b0"><path d="M 292.3 500.1 L 337.0 500.1 L 337.0 537.2 L 292.3 537.2 Z M 292.3 500.1 "></path></clipPath><g clip-path="url(#clip0x7fd02715f4b0)"><text xml:space="preserve" font-family="HelveticaNeue-Light,Helvetica Neue" font-size="30.0" fill="#FEFFFE" transform="matrix(1.00, 0.00, -0.00, -1.00, 293.8, 507.5)">3</text><text xml:space="preserve" font-family="HelveticaNeue-Light,Helvetica Neue" font-size="30.0" fill="#FEFFFE" transform="matrix(1.00, 0.00, -0.00, -1.00, 310.5, 507.5)">.</text><text xml:space="preserve" font-family="HelveticaNeue-Light,Helvetica Neue" font-size="30.0" fill="#FEFFFE" transform="matrix(1.00, 0.00, -0.00, -1.00, 318.8, 507.5)">2</text></g></g><g><clipPath id="clip0x7fd0246ba860"><path d="M 292.3 457.4 L 337.0 457.4 L 337.0 494.6 L 292.3 494.6 Z M 292.3 457.4 "></path></clipPath><g clip-path="url(#clip0x7fd0246ba860)"><text xml:space="preserve" font-family="HelveticaNeue-Light,Helvetica Neue" font-size="30.0" fill="#FEFFFE" transform="matrix(1.00, 0.00, -0.00, -1.00, 293.8, 464.8)">3</text><text xml:space="preserve" font-family="HelveticaNeue-Light,Helvetica Neue" font-size="30.0" fill="#FEFFFE" transform="matrix(1.00, 0.00, -0.00, -1.00, 310.5, 464.8)">.</text><text xml:space="preserve" font-family="HelveticaNeue-Light,Helvetica Neue" font-size="30.0" fill="#FEFFFE" transform="matrix(1.00, 0.00, -0.00, -1.00, 318.8, 464.8)">3</text></g></g><g><clipPath id="clip0x7fd02434f480"><path d="M 292.3 414.8 L 337.0 414.8 L 337.0 451.9 L 292.3 451.9 Z M 292.3 414.8 "></path></clipPath><g clip-path="url(#clip0x7fd02434f480)"><text xml:space="preserve" font-family="HelveticaNeue-Light,Helvetica Neue" font-size="30.0" fill="#FEFFFE" transform="matrix(1.00, 0.00, -0.00, -1.00, 293.8, 422.1)">3</text><text xml:space="preserve" font-family="HelveticaNeue-Light,Helvetica Neue" font-size="30.0" fill="#FEFFFE" transform="matrix(1.00, 0.00, -0.00, -1.00, 310.5, 422.1)">.</text><text xml:space="preserve" font-family="HelveticaNeue-Light,Helvetica Neue" font-size="30.0" fill="#FEFFFE" transform="matrix(1.00, 0.00, -0.00, -1.00, 318.8, 422.1)">4</text></g></g><g><clipPath id="clip0x7fd024374090"><path d="M 292.3 372.1 L 337.0 372.1 L 337.0 409.2 L 292.3 409.2 Z M 292.3 372.1 "></path></clipPath><g clip-path="url(#clip0x7fd024374090)"><text xml:space="preserve" font-family="HelveticaNeue-Light,Helvetica Neue" font-size="30.0" fill="#FEFFFE" transform="matrix(1.00, 0.00, -0.00, -1.00, 293.8, 379.5)">3</text><text xml:space="preserve" font-family="HelveticaNeue-Light,Helvetica Neue" font-size="30.0" fill="#FEFFFE" transform="matrix(1.00, 0.00, -0.00, -1.00, 310.5, 379.5)">.</text><text xml:space="preserve" font-family="HelveticaNeue-Light,Helvetica Neue" font-size="30.0" fill="#FEFFFE" transform="matrix(1.00, 0.00, -0.00, -1.00, 318.8, 379.5)">5</text></g></g><g><clipPath id="clip0x7fd024393710"><path d="M 292.3 329.4 L 337.0 329.4 L 337.0 366.5 L 292.3 366.5 Z M 292.3 329.4 "></path></clipPath><g clip-path="url(#clip0x7fd024393710)"><text xml:space="preserve" font-family="HelveticaNeue-Light,Helvetica Neue" font-size="30.0" fill="#FEFFFE" transform="matrix(1.00, 0.00, -0.00, -1.00, 293.8, 336.8)">3</text><text xml:space="preserve" font-family="HelveticaNeue-Light,Helvetica Neue" font-size="30.0" fill="#FEFFFE" transform="matrix(1.00, 0.00, -0.00, -1.00, 310.5, 336.8)">.</text><text xml:space="preserve" font-family="HelveticaNeue-Light,Helvetica Neue" font-size="30.0" fill="#FEFFFE" transform="matrix(1.00, 0.00, -0.00, -1.00, 318.8, 336.8)">6</text></g></g><g><clipPath id="clip0x7fd0251c1900"><path d="M 292.3 286.7 L 337.0 286.7 L 337.0 323.9 L 292.3 323.9 Z M 292.3 286.7 "></path></clipPath><g clip-path="url(#clip0x7fd0251c1900)"><text xml:space="preserve" font-family="HelveticaNeue-Light,Helvetica Neue" font-size="30.0" fill="#FEFFFE" transform="matrix(1.00, 0.00, -0.00, -1.00, 293.8, 294.1)">3</text><text xml:space="preserve" font-family="HelveticaNeue-Light,Helvetica Neue" font-size="30.0" fill="#FEFFFE" transform="matrix(1.00, 0.00, -0.00, -1.00, 310.5, 294.1)">.</text><text xml:space="preserve" font-family="HelveticaNeue-Light,Helvetica Neue" font-size="30.0" fill="#FEFFFE" transform="matrix(1.00, 0.00, -0.00, -1.00, 318.8, 294.1)">7</text></g></g><g><clipPath id="clip0x7fd0230bfc80"><path d="M 292.3 244.1 L 337.0 244.1 L 337.0 281.2 L 292.3 281.2 Z M 292.3 244.1 "></path></clipPath><g clip-path="url(#clip0x7fd0230bfc80)"><text xml:space="preserve" font-family="HelveticaNeue-Light,Helvetica Neue" font-size="30.0" fill="#FEFFFE" transform="matrix(1.00, 0.00, -0.00, -1.00, 293.8, 251.5)">3</text><text xml:space="preserve" font-family="HelveticaNeue-Light,Helvetica Neue" font-size="30.0" fill="#FEFFFE" transform="matrix(1.00, 0.00, -0.00, -1.00, 310.5, 251.5)">.</text><text xml:space="preserve" font-family="HelveticaNeue-Light,Helvetica Neue" font-size="30.0" fill="#FEFFFE" transform="matrix(1.00, 0.00, -0.00, -1.00, 318.8, 251.5)">8</text></g></g><g><clipPath id="clip0x7fd024a017b0"><path d="M 292.3 201.4 L 337.0 201.4 L 337.0 238.5 L 292.3 238.5 Z M 292.3 201.4 "></path></clipPath><g clip-path="url(#clip0x7fd024a017b0)"><text xml:space="preserve" font-family="HelveticaNeue-Light,Helvetica Neue" font-size="30.0" fill="#FEFFFE" transform="matrix(1.00, 0.00, -0.00, -1.00, 293.8, 208.8)">3</text><text xml:space="preserve" font-family="HelveticaNeue-Light,Helvetica Neue" font-size="30.0" fill="#FEFFFE" transform="matrix(1.00, 0.00, -0.00, -1.00, 310.5, 208.8)">.</text><text xml:space="preserve" font-family="HelveticaNeue-Light,Helvetica Neue" font-size="30.0" fill="#FEFFFE" transform="matrix(1.00, 0.00, -0.00, -1.00, 318.8, 208.8)">9</text></g></g><g><clipPath id="clip0x7fd0279f5480"><path d="M 349.4 146.8 L 369.0 146.8 L 369.0 183.9 L 349.4 183.9 Z M 349.4 146.8 "></path></clipPath><g clip-path="url(#clip0x7fd0279f5480)"><text xml:space="preserve" font-family="HelveticaNeue-Light,Helvetica Neue" font-size="30.0" fill="#FEFFFE" transform="matrix(1.00, 0.00, -0.00, -1.00, 350.9, 154.2)">0</text></g></g><g><clipPath id="clip0x7fd0271e1540"><path d="M 649.4 146.8 L 694.1 146.8 L 694.1 183.9 L 649.4 183.9 Z M 649.4 146.8 "></path></clipPath><g clip-path="url(#clip0x7fd0271e1540)"><text xml:space="preserve" font-family="HelveticaNeue-Light,Helvetica Neue" font-size="30.0" fill="#FEFFFE" transform="matrix(1.00, 0.00, -0.00, -1.00, 650.9, 154.2)">4</text><text xml:space="preserve" font-family="HelveticaNeue-Light,Helvetica Neue" font-size="30.0" fill="#FEFFFE" transform="matrix(1.00, 0.00, -0.00, -1.00, 667.6, 154.2)">.</text><text xml:space="preserve" font-family="HelveticaNeue-Light,Helvetica Neue" font-size="30.0" fill="#FEFFFE" transform="matrix(1.00, 0.00, -0.00, -1.00, 675.9, 154.2)">5</text></g></g><g><clipPath id="clip0x7fd025309580"><path d="M 974.5 146.8 L 994.2 146.8 L 994.2 183.9 L 974.5 183.9 Z M 974.5 146.8 "></path></clipPath><g clip-path="url(#clip0x7fd025309580)"><text xml:space="preserve" font-family="HelveticaNeue-Light,Helvetica Neue" font-size="30.0" fill="#FEFFFE" transform="matrix(1.00, 0.00, -0.00, -1.00, 976.0, 154.2)">9</text></g></g><g><clipPath id="clip0x7fd024a36140"><path d="M 1266.3 146.8 L 1327.6 146.8 L 1327.6 183.9 L 1266.3 183.9 Z M 1266.3 146.8 "></path></clipPath><g clip-path="url(#clip0x7fd024a36140)"><text xml:space="preserve" font-family="HelveticaNeue-Light,Helvetica Neue" font-size="30.0" fill="#FEFFFE" transform="matrix(1.00, 0.00, -0.00, -1.00, 1267.8, 154.2)">1</text><text xml:space="preserve" font-family="HelveticaNeue-Light,Helvetica Neue" font-size="30.0" fill="#FEFFFE" transform="matrix(1.00, 0.00, -0.00, -1.00, 1284.4, 154.2)">3</text><text xml:space="preserve" font-family="HelveticaNeue-Light,Helvetica Neue" font-size="30.0" fill="#FEFFFE" transform="matrix(1.00, 0.00, -0.00, -1.00, 1301.1, 154.2)">.</text><text xml:space="preserve" font-family="HelveticaNeue-Light,Helvetica Neue" font-size="30.0" fill="#FEFFFE" transform="matrix(1.00, 0.00, -0.00, -1.00, 1309.5, 154.2)">5</text></g></g><g><clipPath id="clip0x7fd027c6c690"><path d="M 1591.3 146.8 L 1627.7 146.8 L 1627.7 183.9 L 1591.3 183.9 Z M 1591.3 146.8 "></path></clipPath><g clip-path="url(#clip0x7fd027c6c690)"><text xml:space="preserve" font-family="HelveticaNeue-Light,Helvetica Neue" font-size="30.0" fill="#FEFFFE" transform="matrix(1.00, 0.00, -0.00, -1.00, 1592.8, 154.2)">1</text><text xml:space="preserve" font-family="HelveticaNeue-Light,Helvetica Neue" font-size="30.0" fill="#FEFFFE" transform="matrix(1.00, 0.00, -0.00, -1.00, 1609.5, 154.2)">8</text></g></g><g><clipPath id="clip0x7fd0268e26f0"><path d="M 360.0 874.0 L 429.0 874.0 L 429.0 844.0 L 360.0 844.0 Z M 360.0 874.0 "></path></clipPath><g clip-path="url(#clip0x7fd0268e26f0)"><g><clipPath id="clip0x7fd02555e020"><path d="M 359.2 198.6 L 1609.5 198.6 L 1609.5 881.4 L 359.2 881.4 Z M 359.2 198.6 "></path></clipPath><g clip-path="url(#clip0x7fd02555e020)"><image xlink:href="../../ED028254-E7C0-4437-B76C-37E8E3F1B2BA/assets/49267FAB7D96704EDECB14F0305AF583.png" width="635.00" height="635.00" transform="matrix(0.50, 0.00, -0.00, -0.50, 360.0, 874.0)"></image></g></g></g></g><g><clipPath id="clip0x7fd024fb6c90"><path d="M 360.0 832.0 L 568.0 832.0 L 568.0 801.0 L 360.0 801.0 Z M 360.0 832.0 "></path></clipPath><g clip-path="url(#clip0x7fd024fb6c90)"><g><clipPath id="clip0x7fd0266db710"><path d="M 359.2 198.6 L 1609.5 198.6 L 1609.5 881.4 L 359.2 881.4 Z M 359.2 198.6 "></path></clipPath><g clip-path="url(#clip0x7fd0266db710)"><image xlink:href="../../ED028254-E7C0-4437-B76C-37E8E3F1B2BA/assets/49267FAB7D96704EDECB14F0305AF583.png" width="635.00" height="635.00" transform="matrix(0.50, 0.00, -0.00, -0.50, 360.0, 832.0)"></image></g></g></g></g><g><clipPath id="clip0x7fd028422840"><path d="M 360.0 789.0 L 637.0 789.0 L 637.0 759.0 L 360.0 759.0 Z M 360.0 789.0 "></path></clipPath><g clip-path="url(#clip0x7fd028422840)"><g><clipPath id="clip0x7fd027288b40"><path d="M 359.2 198.6 L 1609.5 198.6 L 1609.5 881.4 L 359.2 881.4 Z M 359.2 198.6 "></path></clipPath><g clip-path="url(#clip0x7fd027288b40)"><image xlink:href="../../ED028254-E7C0-4437-B76C-37E8E3F1B2BA/assets/49267FAB7D96704EDECB14F0305AF583.png" width="635.00" height="635.00" transform="matrix(0.50, 0.00, -0.00, -0.50, 360.0, 789.0)"></image></g></g></g></g><g><clipPath id="clip0x7fd0233135a0"><path d="M 360.0 747.0 L 637.0 747.0 L 637.0 716.0 L 360.0 716.0 Z M 360.0 747.0 "></path></clipPath><g clip-path="url(#clip0x7fd0233135a0)"><g><clipPath id="clip0x7fd024b22210"><path d="M 359.2 198.6 L 1609.5 198.6 L 1609.5 881.4 L 359.2 881.4 Z M 359.2 198.6 "></path></clipPath><g clip-path="url(#clip0x7fd024b22210)"><image xlink:href="../../ED028254-E7C0-4437-B76C-37E8E3F1B2BA/assets/49267FAB7D96704EDECB14F0305AF583.png" width="635.00" height="635.00" transform="matrix(0.50, 0.00, -0.00, -0.50, 360.0, 747.0)"></image></g></g></g></g><g><clipPath id="clip0x7fd027297600"><path d="M 360.0 704.0 L 984.0 704.0 L 984.0 674.0 L 360.0 674.0 Z M 360.0 704.0 "></path></clipPath><g clip-path="url(#clip0x7fd027297600)"><g><clipPath id="clip0x7fd0254c6ab0"><path d="M 359.2 198.6 L 1609.5 198.6 L 1609.5 881.4 L 359.2 881.4 Z M 359.2 198.6 "></path></clipPath><g clip-path="url(#clip0x7fd0254c6ab0)"><path d="M 360.0 674.0 L 984.0 674.0 L 984.0 704.0 L 360.0 704.0 Z M 360.0 674.0 " fill="url(#1426B05B-75C1-4B30-8BF7-5A2EE50D7C69)"></path></g></g></g></g><g><clipPath id="clip0x7fd023134870"><path d="M 360.0 662.0 L 1054.0 662.0 L 1054.0 631.0 L 360.0 631.0 Z M 360.0 662.0 "></path></clipPath><g clip-path="url(#clip0x7fd023134870)"><g><clipPath id="clip0x7fd024b1f160"><path d="M 359.2 198.6 L 1609.5 198.6 L 1609.5 881.4 L 359.2 881.4 Z M 359.2 198.6 "></path></clipPath><g clip-path="url(#clip0x7fd024b1f160)"><path d="M 360.0 631.0 L 1054.0 631.0 L 1054.0 662.0 L 360.0 662.0 Z M 360.0 631.0 " fill="url(#F91DCA7C-428B-43C3-8D41-3C4BF39BBE40)"></path></g></g></g></g><g><clipPath id="clip0x7fd02818aeb0"><path d="M 360.0 619.0 L 1193.0 619.0 L 1193.0 589.0 L 360.0 589.0 Z M 360.0 619.0 "></path></clipPath><g clip-path="url(#clip0x7fd02818aeb0)"><g><clipPath id="clip0x7fd0266ee660"><path d="M 359.2 198.6 L 1609.5 198.6 L 1609.5 881.4 L 359.2 881.4 Z M 359.2 198.6 "></path></clipPath><g clip-path="url(#clip0x7fd0266ee660)"><path d="M 360.0 589.0 L 1193.0 589.0 L 1193.0 619.0 L 360.0 619.0 Z M 360.0 589.0 " fill="url(#87AB8B28-4809-4362-BA32-8603264FC2C4)"></path></g></g></g></g><g><clipPath id="clip0x7fd02756bca0"><path d="M 360.0 576.0 L 1540.0 576.0 L 1540.0 546.0 L 360.0 546.0 Z M 360.0 576.0 "></path></clipPath><g clip-path="url(#clip0x7fd02756bca0)"><g><clipPath id="clip0x7fd0266ec780"><path d="M 359.2 198.6 L 1609.5 198.6 L 1609.5 881.4 L 359.2 881.4 Z M 359.2 198.6 "></path></clipPath><g clip-path="url(#clip0x7fd0266ec780)"><path d="M 360.0 546.0 L 1540.0 546.0 L 1540.0 576.0 L 360.0 576.0 Z M 360.0 546.0 " fill="url(#42437C8A-F933-48CA-99FA-8FB0E1954ACD)"></path></g></g></g></g><g><clipPath id="clip0x7fd024ac85d0"><path d="M 360.0 534.0 L 1540.0 534.0 L 1540.0 504.0 L 360.0 504.0 Z M 360.0 534.0 "></path></clipPath><g clip-path="url(#clip0x7fd024ac85d0)"><g><clipPath id="clip0x7fd024c29710"><path d="M 359.2 198.6 L 1609.5 198.6 L 1609.5 881.4 L 359.2 881.4 Z M 359.2 198.6 "></path></clipPath><g clip-path="url(#clip0x7fd024c29710)"><path d="M 360.0 504.0 L 1540.0 504.0 L 1540.0 534.0 L 360.0 534.0 Z M 360.0 504.0 " fill="url(#68E090B9-631F-4148-8AB5-4843245553F5)"></path></g></g></g></g><g><clipPath id="clip0x7fd027526910"><path d="M 360.0 491.0 L 1332.0 491.0 L 1332.0 461.0 L 360.0 461.0 Z M 360.0 491.0 "></path></clipPath><g clip-path="url(#clip0x7fd027526910)"><g><clipPath id="clip0x7fd0266c4f60"><path d="M 359.2 198.6 L 1609.5 198.6 L 1609.5 881.4 L 359.2 881.4 Z M 359.2 198.6 "></path></clipPath><g clip-path="url(#clip0x7fd0266c4f60)"><path d="M 360.0 461.0 L 1332.0 461.0 L 1332.0 491.0 L 360.0 491.0 Z M 360.0 461.0 " fill="url(#9168AF8B-F140-424E-884B-075A023ADE5F)"></path></g></g></g></g><g><clipPath id="clip0x7fd0266d88e0"><path d="M 360.0 449.0 L 1054.0 449.0 L 1054.0 418.0 L 360.0 418.0 Z M 360.0 449.0 "></path></clipPath><g clip-path="url(#clip0x7fd0266d88e0)"><g><clipPath id="clip0x7fd0266afa60"><path d="M 359.2 198.6 L 1609.5 198.6 L 1609.5 881.4 L 359.2 881.4 Z M 359.2 198.6 "></path></clipPath><g clip-path="url(#clip0x7fd0266afa60)"><path d="M 360.0 418.0 L 1054.0 418.0 L 1054.0 449.0 L 360.0 449.0 Z M 360.0 418.0 " fill="url(#50891253-7101-4C97-9EF1-5638E6CB7705)"></path></g></g></g></g><g><clipPath id="clip0x7fd022df3840"><path d="M 360.0 406.0 L 1332.0 406.0 L 1332.0 376.0 L 360.0 376.0 Z M 360.0 406.0 "></path></clipPath><g clip-path="url(#clip0x7fd022df3840)"><g><clipPath id="clip0x7fd0278db230"><path d="M 359.2 198.6 L 1609.5 198.6 L 1609.5 881.4 L 359.2 881.4 Z M 359.2 198.6 "></path></clipPath><g clip-path="url(#clip0x7fd0278db230)"><path d="M 360.0 376.0 L 1332.0 376.0 L 1332.0 406.0 L 360.0 406.0 Z M 360.0 376.0 " fill="url(#8DADCA1B-5327-4FE5-9716-326813714ECD)"></path></g></g></g></g><g><clipPath id="clip0x7fd0231f95a0"><path d="M 360.0 364.0 L 1193.0 364.0 L 1193.0 333.0 L 360.0 333.0 Z M 360.0 364.0 "></path></clipPath><g clip-path="url(#clip0x7fd0231f95a0)"><g><clipPath id="clip0x7fd027ae6140"><path d="M 359.2 198.6 L 1609.5 198.6 L 1609.5 881.4 L 359.2 881.4 Z M 359.2 198.6 "></path></clipPath><g clip-path="url(#clip0x7fd027ae6140)"><path d="M 360.0 333.0 L 1193.0 333.0 L 1193.0 364.0 L 360.0 364.0 Z M 360.0 333.0 " fill="url(#38B129A2-2E94-462F-B945-3858B3BBF394)"></path></g></g></g></g><g><clipPath id="clip0x7fd0254a7680"><path d="M 360.0 321.0 L 568.0 321.0 L 568.0 291.0 L 360.0 291.0 Z M 360.0 321.0 "></path></clipPath><g clip-path="url(#clip0x7fd0254a7680)"><g><clipPath id="clip0x7fd0252f0a60"><path d="M 359.2 198.6 L 1609.5 198.6 L 1609.5 881.4 L 359.2 881.4 Z M 359.2 198.6 "></path></clipPath><g clip-path="url(#clip0x7fd0252f0a60)"><image xlink:href="../../ED028254-E7C0-4437-B76C-37E8E3F1B2BA/assets/49267FAB7D96704EDECB14F0305AF583.png" width="635.00" height="635.00" transform="matrix(0.50, 0.00, -0.00, -0.50, 360.0, 321.0)"></image></g></g></g></g><g><clipPath id="clip0x7fd0266a0470"><path d="M 360.0 279.0 L 568.0 279.0 L 568.0 248.0 L 360.0 248.0 Z M 360.0 279.0 "></path></clipPath><g clip-path="url(#clip0x7fd0266a0470)"><g><clipPath id="clip0x7fd027720cd0"><path d="M 359.2 198.6 L 1609.5 198.6 L 1609.5 881.4 L 359.2 881.4 Z M 359.2 198.6 "></path></clipPath><g clip-path="url(#clip0x7fd027720cd0)"><image xlink:href="../../ED028254-E7C0-4437-B76C-37E8E3F1B2BA/assets/49267FAB7D96704EDECB14F0305AF583.png" width="635.00" height="635.00" transform="matrix(0.50, 0.00, -0.00, -0.50, 360.0, 279.0)"></image></g></g></g></g><g><clipPath id="clip0x7fd024aef960"><path d="M 360.0 236.0 L 637.0 236.0 L 637.0 206.0 L 360.0 206.0 Z M 360.0 236.0 "></path></clipPath><g clip-path="url(#clip0x7fd024aef960)"><g><clipPath id="clip0x7fd024f9c4b0"><path d="M 359.2 198.6 L 1609.5 198.6 L 1609.5 881.4 L 359.2 881.4 Z M 359.2 198.6 "></path></clipPath><g clip-path="url(#clip0x7fd024f9c4b0)"><image xlink:href="../../ED028254-E7C0-4437-B76C-37E8E3F1B2BA/assets/49267FAB7D96704EDECB14F0305AF583.png" width="635.00" height="635.00" transform="matrix(0.50, 0.00, -0.00, -0.50, 360.0, 236.0)"></image></g></g></g></g><g><g><clipPath id="clip0x7fd0234671c0"><path d="M 0.0 0.0 L 1920.0 0.0 L 1920.0 1080.0 L 0.0 1080.0 Z M 0.0 0.0 "></path></clipPath><g clip-path="url(#clip0x7fd0234671c0)"><text xml:space="preserve" font-family="HelveticaNeue-Light,Helvetica Neue" font-size="30.0" fill="#FEFFFE" transform="matrix(1.00, 0.00, -0.00, -1.00, 639.5, 209.7)">4</text><text xml:space="preserve" font-family="HelveticaNeue-Light,Helvetica Neue" font-size="30.0" fill="#FEFFFE" transform="matrix(1.00, 0.00, -0.00, -1.00, 570.1, 252.3)">3</text><text xml:space="preserve" font-family="HelveticaNeue-Light,Helvetica Neue" font-size="30.0" fill="#FEFFFE" transform="matrix(1.00, 0.00, -0.00, -1.00, 570.1, 294.8)">3</text><text xml:space="preserve" font-family="HelveticaNeue-Light,Helvetica Neue" font-size="30.0" fill="#FEFFFE" transform="matrix(1.00, 0.00, -0.00, -1.00, 1195.2, 337.4)">1</text><text xml:space="preserve" font-family="HelveticaNeue-Light,Helvetica Neue" font-size="30.0" fill="#FEFFFE" transform="matrix(1.00, 0.00, -0.00, -1.00, 1211.9, 337.4)">2</text><text xml:space="preserve" font-family="HelveticaNeue-Light,Helvetica Neue" font-size="30.0" fill="#FEFFFE" transform="matrix(1.00, 0.00, -0.00, -1.00, 1334.2, 379.9)">1</text><text xml:space="preserve" font-family="HelveticaNeue-Light,Helvetica Neue" font-size="30.0" fill="#FEFFFE" transform="matrix(1.00, 0.00, -0.00, -1.00, 1350.9, 379.9)">4</text><text xml:space="preserve" font-family="HelveticaNeue-Light,Helvetica Neue" font-size="30.0" fill="#FEFFFE" transform="matrix(1.00, 0.00, -0.00, -1.00, 1056.3, 422.5)">1</text><text xml:space="preserve" font-family="HelveticaNeue-Light,Helvetica Neue" font-size="30.0" fill="#FEFFFE" transform="matrix(1.00, 0.00, -0.00, -1.00, 1073.0, 422.5)">0</text><text xml:space="preserve" font-family="HelveticaNeue-Light,Helvetica Neue" font-size="30.0" fill="#FEFFFE" transform="matrix(1.00, 0.00, -0.00, -1.00, 1334.2, 465.0)">1</text><text xml:space="preserve" font-family="HelveticaNeue-Light,Helvetica Neue" font-size="30.0" fill="#FEFFFE" transform="matrix(1.00, 0.00, -0.00, -1.00, 1350.9, 465.0)">4</text><text xml:space="preserve" font-family="HelveticaNeue-Light,Helvetica Neue" font-size="30.0" fill="#FEFFFE" transform="matrix(1.00, 0.00, -0.00, -1.00, 1542.6, 507.6)">1</text><text xml:space="preserve" font-family="HelveticaNeue-Light,Helvetica Neue" font-size="30.0" fill="#FEFFFE" transform="matrix(1.00, 0.00, -0.00, -1.00, 1559.2, 507.6)">7</text><text xml:space="preserve" font-family="HelveticaNeue-Light,Helvetica Neue" font-size="30.0" fill="#FEFFFE" transform="matrix(1.00, 0.00, -0.00, -1.00, 1542.6, 550.1)">1</text><text xml:space="preserve" font-family="HelveticaNeue-Light,Helvetica Neue" font-size="30.0" fill="#FEFFFE" transform="matrix(1.00, 0.00, -0.00, -1.00, 1559.2, 550.1)">7</text><text xml:space="preserve" font-family="HelveticaNeue-Light,Helvetica Neue" font-size="30.0" fill="#FEFFFE" transform="matrix(1.00, 0.00, -0.00, -1.00, 1195.2, 592.6)">1</text><text xml:space="preserve" font-family="HelveticaNeue-Light,Helvetica Neue" font-size="30.0" fill="#FEFFFE" transform="matrix(1.00, 0.00, -0.00, -1.00, 1211.9, 592.6)">2</text><text xml:space="preserve" font-family="HelveticaNeue-Light,Helvetica Neue" font-size="30.0" fill="#FEFFFE" transform="matrix(1.00, 0.00, -0.00, -1.00, 1056.3, 635.2)">1</text><text xml:space="preserve" font-family="HelveticaNeue-Light,Helvetica Neue" font-size="30.0" fill="#FEFFFE" transform="matrix(1.00, 0.00, -0.00, -1.00, 1073.0, 635.2)">0</text><text xml:space="preserve" font-family="HelveticaNeue-Light,Helvetica Neue" font-size="30.0" fill="#FEFFFE" transform="matrix(1.00, 0.00, -0.00, -1.00, 986.9, 677.7)">9</text><text xml:space="preserve" font-family="HelveticaNeue-Light,Helvetica Neue" font-size="30.0" fill="#FEFFFE" transform="matrix(1.00, 0.00, -0.00, -1.00, 639.5, 720.3)">4</text><text xml:space="preserve" font-family="HelveticaNeue-Light,Helvetica Neue" font-size="30.0" fill="#FEFFFE" transform="matrix(1.00, 0.00, -0.00, -1.00, 639.5, 762.8)">4</text><text xml:space="preserve" font-family="HelveticaNeue-Light,Helvetica Neue" font-size="30.0" fill="#FEFFFE" transform="matrix(1.00, 0.00, -0.00, -1.00, 570.1, 805.4)">3</text><text xml:space="preserve" font-family="HelveticaNeue-Light,Helvetica Neue" font-size="30.0" fill="#FEFFFE" transform="matrix(1.00, 0.00, -0.00, -1.00, 431.2, 847.9)">1</text></g></g></g></g></svg>