<?xml version="1.0" encoding="UTF-8" standalone="no"?><svg xmlns="http://www.w3.org/2000/svg" xmlns:xlink="http://www.w3.org/1999/xlink" clip-rule="evenodd" stroke-miterlimit="10" viewBox="0 0 1920 1080"><desc>SVG generated by Keynote</desc><defs></defs><g transform="matrix(1.00, 0.00, -0.00, -1.00, 0.0, 1080.0)"><g><clipPath id="clip0x7fd02523f900"><path d="M 0.0 1080.0 L 1920.0 1080.0 L 1920.0 0.0 L 0.0 0.0 Z M 0.0 1080.0 "></path></clipPath><g clip-path="url(#clip0x7fd02523f900)"><image xlink:href="../../2E921865-8DBC-4D3A-991F-A6C70785B1CF/assets/7D0D479F0D8AC86C9E875656D9072873.jpeg" width="2048.00" height="1536.00" transform="matrix(0.94, 0.00, -0.00, -0.70, 0.0, 1080.0)"></image></g></g><g><clipPath id="clip0x7fd024025cf0"><path d="M 384.4 831.4 L 1535.6 831.4 L 1535.6 879.4 L 384.4 879.4 Z M 384.4 831.4 "></path></clipPath><g clip-path="url(#clip0x7fd024025cf0)"><text xml:space="preserve" font-family="Helvetica-Light,Helvetica" font-size="38.0" fill="#FEFFFE" transform="matrix(1.00, 0.00, -0.00, -1.00, 756.6, 841.2)">C</text><text xml:space="preserve" font-family="Helvetica-Light,Helvetica" font-size="38.0" fill="#FEFFFE" transform="matrix(1.00, 0.00, -0.00, -1.00, 784.0, 841.2)">G</text><text xml:space="preserve" font-family="Helvetica-Light,Helvetica" font-size="38.0" fill="#FEFFFE" transform="matrix(1.00, 0.00, -0.00, -1.00, 813.6, 841.2)">P</text><text xml:space="preserve" font-family="Helvetica-Light,Helvetica" font-size="38.0" fill="#FEFFFE" transform="matrix(1.00, 0.00, -0.00, -1.00, 834.0, 841.2)">A</text><text xml:space="preserve" font-family="Helvetica-Light,Helvetica" font-size="38.0" fill="#FEFFFE" transform="matrix(1.00, 0.00, -0.00, -1.00, 859.4, 841.2)"> </text><text xml:space="preserve" font-family="Helvetica-Light,Helvetica" font-size="38.0" fill="#FEFFFE" transform="matrix(1.00, 0.00, -0.00, -1.00, 869.9, 841.2)">-</text><text xml:space="preserve" font-family="Helvetica-Light,Helvetica" font-size="38.0" fill="#FEFFFE" transform="matrix(1.00, 0.00, -0.00, -1.00, 882.6, 841.2)"> </text><text xml:space="preserve" font-family="Helvetica-Light,Helvetica" font-size="38.0" fill="#FEFFFE" transform="matrix(1.00, 0.00, -0.00, -1.00, 893.1, 841.2)">G</text><text xml:space="preserve" font-family="Helvetica-Light,Helvetica" font-size="38.0" fill="#FEFFFE" transform="matrix(1.00, 0.00, -0.00, -1.00, 922.7, 841.2)">r</text><text xml:space="preserve" font-family="Helvetica-Light,Helvetica" font-size="38.0" fill="#FEFFFE" transform="matrix(1.00, 0.00, -0.00, -1.00, 935.4, 841.2)">a</text><text xml:space="preserve" font-family="Helvetica-Light,Helvetica" font-size="38.0" fill="#FEFFFE" transform="matrix(1.00, 0.00, -0.00, -1.00, 956.5, 841.2)">d</text><text xml:space="preserve" font-family="Helvetica-Light,Helvetica" font-size="38.0" fill="#FEFFFE" transform="matrix(1.00, 0.00, -0.00, -1.00, 979.7, 841.2)">e</text><text xml:space="preserve" font-family="Helvetica-Light,Helvetica" font-size="38.0" fill="#FEFFFE" transform="matrix(1.00, 0.00, -0.00, -1.00, 1000.8, 841.2)"> </text><text xml:space="preserve" font-family="Helvetica-Light,Helvetica" font-size="38.0" fill="#FEFFFE" transform="matrix(1.00, 0.00, -0.00, -1.00, 1011.4, 841.2)">M</text><text xml:space="preserve" font-family="Helvetica-Light,Helvetica" font-size="38.0" fill="#FEFFFE" transform="matrix(1.00, 0.00, -0.00, -1.00, 1043.0, 841.2)">a</text><text xml:space="preserve" font-family="Helvetica-Light,Helvetica" font-size="38.0" fill="#FEFFFE" transform="matrix(1.00, 0.00, -0.00, -1.00, 1064.2, 841.2)">p</text><text xml:space="preserve" font-family="Helvetica-Light,Helvetica" font-size="38.0" fill="#FEFFFE" transform="matrix(1.00, 0.00, -0.00, -1.00, 1087.4, 841.2)">p</text><text xml:space="preserve" font-family="Helvetica-Light,Helvetica" font-size="38.0" fill="#FEFFFE" transform="matrix(1.00, 0.00, -0.00, -1.00, 1110.6, 841.2)">i</text><text xml:space="preserve" font-family="Helvetica-Light,Helvetica" font-size="38.0" fill="#FEFFFE" transform="matrix(1.00, 0.00, -0.00, -1.00, 1119.0, 841.2)">n</text><text xml:space="preserve" font-family="Helvetica-Light,Helvetica" font-size="38.0" fill="#FEFFFE" transform="matrix(1.00, 0.00, -0.00, -1.00, 1140.2, 841.2)">g</text></g></g><path d="M 20.1 82.4 L 20.1 594.4 " fill="none" stroke="#DEDCD4" stroke-width="1.00" stroke-dasharray="1.0, 2.0" transform="matrix(1.00, 0.00, 0.00, -1.00, 365.4, 878.4)"></path><path d="M 250.1 82.4 L 250.1 594.4 " fill="none" stroke="#DEDCD4" stroke-width="1.00" stroke-dasharray="1.0, 2.0" transform="matrix(1.00, 0.00, 0.00, -1.00, 365.4, 878.4)"></path><path d="M 480.1 82.4 L 480.1 594.4 " fill="none" stroke="#DEDCD4" stroke-width="1.00" stroke-dasharray="1.0, 2.0" transform="matrix(1.00, 0.00, 0.00, -1.00, 365.4, 878.4)"></path><path d="M 709.1 82.4 L 709.1 594.4 " fill="none" stroke="#DEDCD4" stroke-width="1.00" stroke-dasharray="1.0, 2.0" transform="matrix(1.00, 0.00, 0.00, -1.00, 365.4, 878.4)"></path><path d="M 939.1 82.4 L 939.1 594.4 " fill="none" stroke="#DEDCD4" stroke-width="1.00" stroke-dasharray="1.0, 2.0" transform="matrix(1.00, 0.00, 0.00, -1.00, 365.4, 878.4)"></path><path d="M 1169.1 82.4 L 1169.1 594.4 " fill="none" stroke="#DEDCD4" stroke-width="1.00" stroke-dasharray="1.0, 2.0" transform="matrix(1.00, 0.00, 0.00, -1.00, 365.4, 878.4)"></path><g><clipPath id="clip0x7fd0240b4670"><path d="M 385.4 216.6 L 1534.6 216.6 L 1534.6 270.6 L 385.4 270.6 Z M 385.4 216.6 "></path></clipPath><g clip-path="url(#clip0x7fd0240b4670)"><text xml:space="preserve" font-family="Helvetica-Light,Helvetica" font-size="30.0" fill="#FEFFFE" transform="matrix(1.00, 0.00, -0.00, -1.00, 919.4, 223.5)">C</text><text xml:space="preserve" font-family="Helvetica-Light,Helvetica" font-size="30.0" fill="#FEFFFE" transform="matrix(1.00, 0.00, -0.00, -1.00, 941.1, 223.5)">G</text><text xml:space="preserve" font-family="Helvetica-Light,Helvetica" font-size="30.0" fill="#FEFFFE" transform="matrix(1.00, 0.00, -0.00, -1.00, 964.4, 223.5)">P</text><text xml:space="preserve" font-family="Helvetica-Light,Helvetica" font-size="30.0" fill="#FEFFFE" transform="matrix(1.00, 0.00, -0.00, -1.00, 980.6, 223.5)">A</text></g></g><image xlink:href="4C7639B5668BDB0B795BDA03E716AA7B.png" width="982.00" height="372.00" transform="matrix(1.00, 0.00, -0.00, -1.00, 382.0, 724.0)"></image><g><g><clipPath id="clip0x7fd027f2eed0"><path d="M 385.4 283.6 L 1534.6 283.6 L 1534.6 796.4 L 385.4 796.4 Z M 385.4 283.6 "></path></clipPath><g clip-path="url(#clip0x7fd027f2eed0)"><path d="M 1268.0 722.0 L 1360.0 722.0 L 1360.0 358.0 L 1268.0 358.0 Z M 1268.0 722.0 " fill="#CB5150" fill-opacity="0.85"></path><path d="M 1158.0 722.0 L 1268.0 722.0 L 1268.0 358.0 L 1158.0 358.0 Z M 1158.0 722.0 " fill="#A9A7A2" fill-opacity="0.85"></path><path d="M 1034.0 722.0 L 1158.0 722.0 L 1158.0 358.0 L 1034.0 358.0 Z M 1034.0 722.0 " fill="#707070" fill-opacity="0.85"></path><path d="M 896.0 722.0 L 1034.0 722.0 L 1034.0 358.0 L 896.0 358.0 Z M 896.0 722.0 " fill="#EBC72D" fill-opacity="0.85"></path><path d="M 739.0 722.0 L 896.0 722.0 L 896.0 358.0 L 739.0 358.0 Z M 739.0 722.0 " fill="#E3A132" fill-opacity="0.85"></path><path d="M 569.0 722.0 L 739.0 722.0 L 739.0 358.0 L 569.0 358.0 Z M 569.0 722.0 " fill="#ED3A2E" fill-opacity="0.85"></path><path d="M 386.0 722.0 L 569.0 722.0 L 569.0 358.0 L 386.0 358.0 Z M 386.0 722.0 " fill="#C43C3A" fill-opacity="0.85"></path></g></g></g><g><g><clipPath id="clip0x7fd0246db500"><path d="M 0.0 0.0 L 1920.0 0.0 L 1920.0 1080.0 L 0.0 1080.0 Z M 0.0 0.0 "></path></clipPath><g clip-path="url(#clip0x7fd0246db500)"><text xml:space="preserve" font-family="Helvetica-Light,Helvetica" font-size="38.0" fill="#FEFFFE" transform="matrix(1.00, 0.00, -0.00, -1.00, 1336.3, 525.7)">2</text><text xml:space="preserve" font-family="Helvetica-Light,Helvetica" font-size="38.0" fill="#FEFFFE" transform="matrix(1.00, 0.00, -0.00, -1.00, 1160.1, 525.7)">2</text><text xml:space="preserve" font-family="Helvetica-Light,Helvetica" font-size="38.0" fill="#FEFFFE" transform="matrix(1.00, 0.00, -0.00, -1.00, 1181.3, 525.7)">.</text><text xml:space="preserve" font-family="Helvetica-Light,Helvetica" font-size="38.0" fill="#FEFFFE" transform="matrix(1.00, 0.00, -0.00, -1.00, 1191.8, 525.7)">4</text><text xml:space="preserve" font-family="Helvetica-Light,Helvetica" font-size="38.0" fill="#FEFFFE" transform="matrix(1.00, 0.00, -0.00, -1.00, 1036.0, 525.7)">2</text><text xml:space="preserve" font-family="Helvetica-Light,Helvetica" font-size="38.0" fill="#FEFFFE" transform="matrix(1.00, 0.00, -0.00, -1.00, 1057.2, 525.7)">.</text><text xml:space="preserve" font-family="Helvetica-Light,Helvetica" font-size="38.0" fill="#FEFFFE" transform="matrix(1.00, 0.00, -0.00, -1.00, 1067.7, 525.7)">7</text><text xml:space="preserve" font-family="Helvetica-Light,Helvetica" font-size="38.0" fill="#FEFFFE" transform="matrix(1.00, 0.00, -0.00, -1.00, 898.2, 525.7)">3</text><text xml:space="preserve" font-family="Helvetica-Light,Helvetica" font-size="38.0" fill="#FEFFFE" transform="matrix(1.00, 0.00, -0.00, -1.00, 741.9, 525.7)">3</text><text xml:space="preserve" font-family="Helvetica-Light,Helvetica" font-size="38.0" fill="#FEFFFE" transform="matrix(1.00, 0.00, -0.00, -1.00, 763.0, 525.7)">.</text><text xml:space="preserve" font-family="Helvetica-Light,Helvetica" font-size="38.0" fill="#FEFFFE" transform="matrix(1.00, 0.00, -0.00, -1.00, 773.6, 525.7)">4</text><text xml:space="preserve" font-family="Helvetica-Light,Helvetica" font-size="38.0" fill="#FEFFFE" transform="matrix(1.00, 0.00, -0.00, -1.00, 571.8, 525.7)">3</text><text xml:space="preserve" font-family="Helvetica-Light,Helvetica" font-size="38.0" fill="#FEFFFE" transform="matrix(1.00, 0.00, -0.00, -1.00, 592.9, 525.7)">.</text><text xml:space="preserve" font-family="Helvetica-Light,Helvetica" font-size="38.0" fill="#FEFFFE" transform="matrix(1.00, 0.00, -0.00, -1.00, 603.5, 525.7)">7</text><text xml:space="preserve" font-family="Helvetica-Light,Helvetica" font-size="38.0" fill="#FEFFFE" transform="matrix(1.00, 0.00, -0.00, -1.00, 388.4, 525.7)">4</text></g></g></g><path d="M 542.0 211.0 L 567.0 211.0 L 567.0 186.0 L 542.0 186.0 Z M 542.0 211.0 " fill="#C43C3A" fill-opacity="0.85"></path><text xml:space="preserve" font-family="Helvetica-Light,Helvetica" font-size="32.0" fill="#FEFFFE" transform="matrix(1.00, 0.00, -0.00, -1.00, 585.3, 186.6)">A</text><path d="M 660.0 211.0 L 685.0 211.0 L 685.0 186.0 L 660.0 186.0 Z M 660.0 211.0 " fill="#ED3A2E" fill-opacity="0.85"></path><text xml:space="preserve" font-family="Helvetica-Light,Helvetica" font-size="32.0" fill="#FEFFFE" transform="matrix(1.00, 0.00, -0.00, -1.00, 703.5, 186.6)">A</text><text xml:space="preserve" font-family="Helvetica-Light,Helvetica" font-size="32.0" fill="#FEFFFE" transform="matrix(1.00, 0.00, -0.00, -1.00, 724.8, 186.6)">-</text><path d="M 789.0 211.0 L 814.0 211.0 L 814.0 186.0 L 789.0 186.0 Z M 789.0 211.0 " fill="#E3A132" fill-opacity="0.85"></path><text xml:space="preserve" font-family="Helvetica-Light,Helvetica" font-size="32.0" fill="#FEFFFE" transform="matrix(1.00, 0.00, -0.00, -1.00, 832.3, 186.6)">B</text><text xml:space="preserve" font-family="Helvetica-Light,Helvetica" font-size="32.0" fill="#FEFFFE" transform="matrix(1.00, 0.00, -0.00, -1.00, 853.6, 186.6)">+</text><path d="M 928.0 211.0 L 953.0 211.0 L 953.0 186.0 L 928.0 186.0 Z M 928.0 211.0 " fill="#EBC72D" fill-opacity="0.85"></path><text xml:space="preserve" font-family="Helvetica-Light,Helvetica" font-size="32.0" fill="#FEFFFE" transform="matrix(1.00, 0.00, -0.00, -1.00, 971.6, 186.6)">B</text><path d="M 1047.0 211.0 L 1071.0 211.0 L 1071.0 186.0 L 1047.0 186.0 Z M 1047.0 211.0 " fill="#707070" fill-opacity="0.85"></path><text xml:space="preserve" font-family="Helvetica-Light,Helvetica" font-size="32.0" fill="#FEFFFE" transform="matrix(1.00, 0.00, -0.00, -1.00, 1089.7, 186.6)">B</text><text xml:space="preserve" font-family="Helvetica-Light,Helvetica" font-size="32.0" fill="#FEFFFE" transform="matrix(1.00, 0.00, -0.00, -1.00, 1111.1, 186.6)">-</text><path d="M 1175.0 211.0 L 1200.0 211.0 L 1200.0 186.0 L 1175.0 186.0 Z M 1175.0 211.0 " fill="#A9A7A2" fill-opacity="0.85"></path><text xml:space="preserve" font-family="Helvetica-Light,Helvetica" font-size="32.0" fill="#FEFFFE" transform="matrix(1.00, 0.00, -0.00, -1.00, 1218.5, 186.6)">C</text><text xml:space="preserve" font-family="Helvetica-Light,Helvetica" font-size="32.0" fill="#FEFFFE" transform="matrix(1.00, 0.00, -0.00, -1.00, 1241.6, 186.6)">+</text><path d="M 1316.0 211.0 L 1341.0 211.0 L 1341.0 186.0 L 1316.0 186.0 Z M 1316.0 211.0 " fill="#CB5150" fill-opacity="0.85"></path><text xml:space="preserve" font-family="Helvetica-Light,Helvetica" font-size="32.0" fill="#FEFFFE" transform="matrix(1.00, 0.00, -0.00, -1.00, 1359.6, 186.6)">C</text></g></svg>