<?xml version="1.0" encoding="UTF-8" standalone="no"?><svg xmlns="http://www.w3.org/2000/svg" xmlns:xlink="http://www.w3.org/1999/xlink" clip-rule="evenodd" stroke-miterlimit="10" viewBox="0 0 1920 1080"><desc>SVG generated by Keynote</desc><defs></defs><g transform="matrix(1.00, 0.00, -0.00, -1.00, 0.0, 1080.0)"><g><clipPath id="clip0x7fd02868f970"><path d="M 0.0 1080.0 L 1920.0 1080.0 L 1920.0 0.0 L 0.0 0.0 Z M 0.0 1080.0 "></path></clipPath><g clip-path="url(#clip0x7fd02868f970)"><image xlink:href="7D0D479F0D8AC86C9E875656D9072873.jpeg" width="2048.00" height="1536.00" transform="matrix(0.94, 0.00, -0.00, -0.70, 0.0, 1080.0)"></image></g></g><image xlink:href="32054818801E6C1BADEDDE6AC97705DF.png" width="899.00" height="82.00" transform="matrix(1.00, 0.00, -0.00, -1.00, 343.0, 651.0)"></image><g><clipPath id="clip0x7fd023034200"><path d="M 306.3 557.0 L 1613.7 557.0 L 1613.7 933.8 L 306.3 933.8 Z M 306.3 557.0 "></path></clipPath><g clip-path="url(#clip0x7fd023034200)"><text xml:space="preserve" font-family="HelveticaNeue-Light,Helvetica Neue" font-size="100.0" fill="#FEFFFE" transform="matrix(1.00, 0.00, -0.00, -1.00, 339.8, 578.0)">P</text><text xml:space="preserve" font-family="HelveticaNeue-Light,Helvetica Neue" font-size="100.0" fill="#FEFFFE" transform="matrix(1.00, 0.00, -0.00, -1.00, 402.8, 578.0)">l</text><text xml:space="preserve" font-family="HelveticaNeue-Light,Helvetica Neue" font-size="100.0" fill="#FEFFFE" transform="matrix(1.00, 0.00, -0.00, -1.00, 421.3, 578.0)">a</text><text xml:space="preserve" font-family="HelveticaNeue-Light,Helvetica Neue" font-size="100.0" fill="#FEFFFE" transform="matrix(1.00, 0.00, -0.00, -1.00, 473.2, 578.0)">c</text><text xml:space="preserve" font-family="HelveticaNeue-Light,Helvetica Neue" font-size="100.0" fill="#FEFFFE" transform="matrix(1.00, 0.00, -0.00, -1.00, 525.1, 578.0)">e</text><text xml:space="preserve" font-family="HelveticaNeue-Light,Helvetica Neue" font-size="100.0" fill="#FEFFFE" transform="matrix(1.00, 0.00, -0.00, -1.00, 577.0, 578.0)">m</text><text xml:space="preserve" font-family="HelveticaNeue-Light,Helvetica Neue" font-size="100.0" fill="#FEFFFE" transform="matrix(1.00, 0.00, -0.00, -1.00, 660.3, 578.0)">e</text><text xml:space="preserve" font-family="HelveticaNeue-Light,Helvetica Neue" font-size="100.0" fill="#FEFFFE" transform="matrix(1.00, 0.00, -0.00, -1.00, 712.2, 578.0)">n</text><text xml:space="preserve" font-family="HelveticaNeue-Light,Helvetica Neue" font-size="100.0" fill="#FEFFFE" transform="matrix(1.00, 0.00, -0.00, -1.00, 765.9, 578.0)">t</text><text xml:space="preserve" font-family="HelveticaNeue-Light,Helvetica Neue" font-size="100.0" fill="#FEFFFE" transform="matrix(1.00, 0.00, -0.00, -1.00, 795.5, 578.0)">s</text><text xml:space="preserve" font-family="HelveticaNeue-Light,Helvetica Neue" font-size="100.0" fill="#FEFFFE" transform="matrix(1.00, 0.00, -0.00, -1.00, 843.6, 578.0)"> </text><text xml:space="preserve" font-family="HelveticaNeue-Light,Helvetica Neue" font-size="100.0" fill="#FEFFFE" transform="matrix(1.00, 0.00, -0.00, -1.00, 871.4, 578.0)">2</text><text xml:space="preserve" font-family="HelveticaNeue-Light,Helvetica Neue" font-size="100.0" fill="#FEFFFE" transform="matrix(1.00, 0.00, -0.00, -1.00, 927.0, 578.0)">0</text><text xml:space="preserve" font-family="HelveticaNeue-Light,Helvetica Neue" font-size="100.0" fill="#FEFFFE" transform="matrix(1.00, 0.00, -0.00, -1.00, 982.6, 578.0)">1</text><text xml:space="preserve" font-family="HelveticaNeue-Light,Helvetica Neue" font-size="100.0" fill="#FEFFFE" transform="matrix(1.00, 0.00, -0.00, -1.00, 1038.2, 578.0)">4</text><text xml:space="preserve" font-family="HelveticaNeue-Light,Helvetica Neue" font-size="100.0" fill="#FEFFFE" transform="matrix(1.00, 0.00, -0.00, -1.00, 1093.8, 578.0)">-</text><text xml:space="preserve" font-family="HelveticaNeue-Light,Helvetica Neue" font-size="100.0" fill="#FEFFFE" transform="matrix(1.00, 0.00, -0.00, -1.00, 1130.8, 578.0)">1</text><text xml:space="preserve" font-family="HelveticaNeue-Light,Helvetica Neue" font-size="100.0" fill="#FEFFFE" transform="matrix(1.00, 0.00, -0.00, -1.00, 1186.4, 578.0)">5</text></g></g><image xlink:href="94FB623B4FFDAA1B3E7796B58EE76957.png" width="707.00" height="37.00" transform="matrix(1.00, 0.00, -0.00, -1.00, 357.0, 553.0)"></image><text xml:space="preserve" font-family="HelveticaNeue-Italic,Helvetica Neue" font-style="italic" font-size="32.0" fill="#73BFFF" transform="matrix(1.00, 0.00, -0.00, -1.00, 357.4, 527.8)">C</text><text xml:space="preserve" font-family="HelveticaNeue-Italic,Helvetica Neue" font-style="italic" font-size="32.0" fill="#73BFFF" transform="matrix(1.00, 0.00, -0.00, -1.00, 380.5, 527.8)">l</text><text xml:space="preserve" font-family="HelveticaNeue-Italic,Helvetica Neue" font-style="italic" font-size="32.0" fill="#73BFFF" transform="matrix(1.00, 0.00, -0.00, -1.00, 387.6, 527.8)">i</text><text xml:space="preserve" font-family="HelveticaNeue-Italic,Helvetica Neue" font-style="italic" font-size="32.0" fill="#73BFFF" transform="matrix(1.00, 0.00, -0.00, -1.00, 394.8, 527.8)">c</text><text xml:space="preserve" font-family="HelveticaNeue-Italic,Helvetica Neue" font-style="italic" font-size="32.0" fill="#73BFFF" transform="matrix(1.00, 0.00, -0.00, -1.00, 411.9, 527.8)">k</text><text xml:space="preserve" font-family="HelveticaNeue-Italic,Helvetica Neue" font-style="italic" font-size="32.0" fill="#73BFFF" transform="matrix(1.00, 0.00, -0.00, -1.00, 427.3, 527.8)"> </text><text xml:space="preserve" font-family="HelveticaNeue-Italic,Helvetica Neue" font-style="italic" font-size="32.0" fill="#73BFFF" transform="matrix(1.00, 0.00, -0.00, -1.00, 436.2, 527.8)">o</text><text xml:space="preserve" font-family="HelveticaNeue-Italic,Helvetica Neue" font-style="italic" font-size="32.0" fill="#73BFFF" transform="matrix(1.00, 0.00, -0.00, -1.00, 454.6, 527.8)">r</text><text xml:space="preserve" font-family="HelveticaNeue-Italic,Helvetica Neue" font-style="italic" font-size="32.0" fill="#73BFFF" transform="matrix(1.00, 0.00, -0.00, -1.00, 465.2, 527.8)"> </text><text xml:space="preserve" font-family="HelveticaNeue-Italic,Helvetica Neue" font-style="italic" font-size="32.0" fill="#73BFFF" transform="matrix(1.00, 0.00, -0.00, -1.00, 474.1, 527.8)">u</text><text xml:space="preserve" font-family="HelveticaNeue-Italic,Helvetica Neue" font-style="italic" font-size="32.0" fill="#73BFFF" transform="matrix(1.00, 0.00, -0.00, -1.00, 491.9, 527.8)">s</text><text xml:space="preserve" font-family="HelveticaNeue-Italic,Helvetica Neue" font-style="italic" font-size="32.0" fill="#73BFFF" transform="matrix(1.00, 0.00, -0.00, -1.00, 507.3, 527.8)">e</text><text xml:space="preserve" font-family="HelveticaNeue-Italic,Helvetica Neue" font-style="italic" font-size="32.0" fill="#73BFFF" transform="matrix(1.00, 0.00, -0.00, -1.00, 524.5, 527.8)"> </text><text xml:space="preserve" font-family="HelveticaNeue-Italic,Helvetica Neue" font-style="italic" font-size="32.0" fill="#73BFFF" transform="matrix(1.00, 0.00, -0.00, -1.00, 533.4, 527.8)">a</text><text xml:space="preserve" font-family="HelveticaNeue-Italic,Helvetica Neue" font-style="italic" font-size="32.0" fill="#73BFFF" transform="matrix(1.00, 0.00, -0.00, -1.00, 550.0, 527.8)">r</text><text xml:space="preserve" font-family="HelveticaNeue-Italic,Helvetica Neue" font-style="italic" font-size="32.0" fill="#73BFFF" transform="matrix(1.00, 0.00, -0.00, -1.00, 560.7, 527.8)">r</text><text xml:space="preserve" font-family="HelveticaNeue-Italic,Helvetica Neue" font-style="italic" font-size="32.0" fill="#73BFFF" transform="matrix(1.00, 0.00, -0.00, -1.00, 570.8, 527.8)">o</text><text xml:space="preserve" font-family="HelveticaNeue-Italic,Helvetica Neue" font-style="italic" font-size="32.0" fill="#73BFFF" transform="matrix(1.00, 0.00, -0.00, -1.00, 589.1, 527.8)">w</text><text xml:space="preserve" font-family="HelveticaNeue-Italic,Helvetica Neue" font-style="italic" font-size="32.0" fill="#73BFFF" transform="matrix(1.00, 0.00, -0.00, -1.00, 613.4, 527.8)"> </text><text xml:space="preserve" font-family="HelveticaNeue-Italic,Helvetica Neue" font-style="italic" font-size="32.0" fill="#73BFFF" transform="matrix(1.00, 0.00, -0.00, -1.00, 622.3, 527.8)">k</text><text xml:space="preserve" font-family="HelveticaNeue-Italic,Helvetica Neue" font-style="italic" font-size="32.0" fill="#73BFFF" transform="matrix(1.00, 0.00, -0.00, -1.00, 637.7, 527.8)">e</text><text xml:space="preserve" font-family="HelveticaNeue-Italic,Helvetica Neue" font-style="italic" font-size="32.0" fill="#73BFFF" transform="matrix(1.00, 0.00, -0.00, -1.00, 654.9, 527.8)">y</text><text xml:space="preserve" font-family="HelveticaNeue-Italic,Helvetica Neue" font-style="italic" font-size="32.0" fill="#73BFFF" transform="matrix(1.00, 0.00, -0.00, -1.00, 670.3, 527.8)">s</text><text xml:space="preserve" font-family="HelveticaNeue-Italic,Helvetica Neue" font-style="italic" font-size="32.0" fill="#73BFFF" transform="matrix(1.00, 0.00, -0.00, -1.00, 685.7, 527.8)"> </text><text xml:space="preserve" font-family="HelveticaNeue-Italic,Helvetica Neue" font-style="italic" font-size="32.0" fill="#73BFFF" transform="matrix(1.00, 0.00, -0.00, -1.00, 694.6, 527.8)">t</text><text xml:space="preserve" font-family="HelveticaNeue-Italic,Helvetica Neue" font-style="italic" font-size="32.0" fill="#73BFFF" transform="matrix(1.00, 0.00, -0.00, -1.00, 704.6, 527.8)">o</text><text xml:space="preserve" font-family="HelveticaNeue-Italic,Helvetica Neue" font-style="italic" font-size="32.0" fill="#73BFFF" transform="matrix(1.00, 0.00, -0.00, -1.00, 723.0, 527.8)"> </text><text xml:space="preserve" font-family="HelveticaNeue-Italic,Helvetica Neue" font-style="italic" font-size="32.0" fill="#73BFFF" transform="matrix(1.00, 0.00, -0.00, -1.00, 731.9, 527.8)">n</text><text xml:space="preserve" font-family="HelveticaNeue-Italic,Helvetica Neue" font-style="italic" font-size="32.0" fill="#73BFFF" transform="matrix(1.00, 0.00, -0.00, -1.00, 749.7, 527.8)">a</text><text xml:space="preserve" font-family="HelveticaNeue-Italic,Helvetica Neue" font-style="italic" font-size="32.0" fill="#73BFFF" transform="matrix(1.00, 0.00, -0.00, -1.00, 766.3, 527.8)">v</text><text xml:space="preserve" font-family="HelveticaNeue-Italic,Helvetica Neue" font-style="italic" font-size="32.0" fill="#73BFFF" transform="matrix(1.00, 0.00, -0.00, -1.00, 781.7, 527.8)">i</text><text xml:space="preserve" font-family="HelveticaNeue-Italic,Helvetica Neue" font-style="italic" font-size="32.0" fill="#73BFFF" transform="matrix(1.00, 0.00, -0.00, -1.00, 788.8, 527.8)">g</text><text xml:space="preserve" font-family="HelveticaNeue-Italic,Helvetica Neue" font-style="italic" font-size="32.0" fill="#73BFFF" transform="matrix(1.00, 0.00, -0.00, -1.00, 807.2, 527.8)">a</text><text xml:space="preserve" font-family="HelveticaNeue-Italic,Helvetica Neue" font-style="italic" font-size="32.0" fill="#73BFFF" transform="matrix(1.00, 0.00, -0.00, -1.00, 823.8, 527.8)">t</text><text xml:space="preserve" font-family="HelveticaNeue-Italic,Helvetica Neue" font-style="italic" font-size="32.0" fill="#73BFFF" transform="matrix(1.00, 0.00, -0.00, -1.00, 833.9, 527.8)">e</text><text xml:space="preserve" font-family="HelveticaNeue-Italic,Helvetica Neue" font-style="italic" font-size="32.0" fill="#73BFFF" transform="matrix(1.00, 0.00, -0.00, -1.00, 851.0, 527.8)"> </text><text xml:space="preserve" font-family="HelveticaNeue-Italic,Helvetica Neue" font-style="italic" font-size="32.0" fill="#73BFFF" transform="matrix(1.00, 0.00, -0.00, -1.00, 859.9, 527.8)">t</text><text xml:space="preserve" font-family="HelveticaNeue-Italic,Helvetica Neue" font-style="italic" font-size="32.0" fill="#73BFFF" transform="matrix(1.00, 0.00, -0.00, -1.00, 870.0, 527.8)">h</text><text xml:space="preserve" font-family="HelveticaNeue-Italic,Helvetica Neue" font-style="italic" font-size="32.0" fill="#73BFFF" transform="matrix(1.00, 0.00, -0.00, -1.00, 887.8, 527.8)">r</text><text xml:space="preserve" font-family="HelveticaNeue-Italic,Helvetica Neue" font-style="italic" font-size="32.0" fill="#73BFFF" transform="matrix(1.00, 0.00, -0.00, -1.00, 897.9, 527.8)">o</text><text xml:space="preserve" font-family="HelveticaNeue-Italic,Helvetica Neue" font-style="italic" font-size="32.0" fill="#73BFFF" transform="matrix(1.00, 0.00, -0.00, -1.00, 916.3, 527.8)">u</text><text xml:space="preserve" font-family="HelveticaNeue-Italic,Helvetica Neue" font-style="italic" font-size="32.0" fill="#73BFFF" transform="matrix(1.00, 0.00, -0.00, -1.00, 934.0, 527.8)">g</text><text xml:space="preserve" font-family="HelveticaNeue-Italic,Helvetica Neue" font-style="italic" font-size="32.0" fill="#73BFFF" transform="matrix(1.00, 0.00, -0.00, -1.00, 952.4, 527.8)">h</text><text xml:space="preserve" font-family="HelveticaNeue-Italic,Helvetica Neue" font-style="italic" font-size="32.0" fill="#73BFFF" transform="matrix(1.00, 0.00, -0.00, -1.00, 970.2, 527.8)"> </text><text xml:space="preserve" font-family="HelveticaNeue-Italic,Helvetica Neue" font-style="italic" font-size="32.0" fill="#73BFFF" transform="matrix(1.00, 0.00, -0.00, -1.00, 979.1, 527.8)">s</text><text xml:space="preserve" font-family="HelveticaNeue-Italic,Helvetica Neue" font-style="italic" font-size="32.0" fill="#73BFFF" transform="matrix(1.00, 0.00, -0.00, -1.00, 994.5, 527.8)">l</text><text xml:space="preserve" font-family="HelveticaNeue-Italic,Helvetica Neue" font-style="italic" font-size="32.0" fill="#73BFFF" transform="matrix(1.00, 0.00, -0.00, -1.00, 1001.6, 527.8)">i</text><text xml:space="preserve" font-family="HelveticaNeue-Italic,Helvetica Neue" font-style="italic" font-size="32.0" fill="#73BFFF" transform="matrix(1.00, 0.00, -0.00, -1.00, 1008.7, 527.8)">d</text><text xml:space="preserve" font-family="HelveticaNeue-Italic,Helvetica Neue" font-style="italic" font-size="32.0" fill="#73BFFF" transform="matrix(1.00, 0.00, -0.00, -1.00, 1027.7, 527.8)">e</text><text xml:space="preserve" font-family="HelveticaNeue-Italic,Helvetica Neue" font-style="italic" font-size="32.0" fill="#73BFFF" transform="matrix(1.00, 0.00, -0.00, -1.00, 1044.9, 527.8)">s</text></g></svg>