<?xml version="1.0" encoding="UTF-8" standalone="no"?><svg xmlns="http://www.w3.org/2000/svg" xmlns:xlink="http://www.w3.org/1999/xlink" clip-rule="evenodd" stroke-miterlimit="10" viewBox="0 0 1920 1080"><desc>SVG generated by Keynote</desc><defs><pattern id="FAC0EA6B-E079-4F18-A82B-D6D9CD401253" patternUnits="userSpaceOnUse" width="635" height="635" viewBox="0 0 635 635"><image xlink:href="../../F3B6EEB4-A392-4AB9-91B3-B1E607A96DA7/assets/1A1A9BCF3C3F09515F4D0C3834D85EBD.png" width="635.00" height="635.00"></image></pattern><pattern id="44DC5F91-436D-4868-BFC4-2EF385DE5009" patternUnits="userSpaceOnUse" width="635" height="635" viewBox="0 0 635 635"><image xlink:href="../../F3B6EEB4-A392-4AB9-91B3-B1E607A96DA7/assets/1A1A9BCF3C3F09515F4D0C3834D85EBD.png" width="635.00" height="635.00"></image></pattern><pattern id="5ED138EF-F1DA-41BE-884C-BAA6BD0B196A" patternUnits="userSpaceOnUse" width="635" height="635" viewBox="0 0 635 635"><image xlink:href="../../F3B6EEB4-A392-4AB9-91B3-B1E607A96DA7/assets/1A1A9BCF3C3F09515F4D0C3834D85EBD.png" width="635.00" height="635.00"></image></pattern><pattern id="B653ADDD-0E6E-4F63-94A9-F2826AC95658" patternUnits="userSpaceOnUse" width="635" height="635" viewBox="0 0 635 635"><image xlink:href="../../F3B6EEB4-A392-4AB9-91B3-B1E607A96DA7/assets/1A1A9BCF3C3F09515F4D0C3834D85EBD.png" width="635.00" height="635.00"></image></pattern><pattern id="104C7EB6-35D7-46E1-994D-49FC436E931E" patternUnits="userSpaceOnUse" width="635" height="635" viewBox="0 0 635 635"><image xlink:href="../../F3B6EEB4-A392-4AB9-91B3-B1E607A96DA7/assets/7DFBEECFE0B3F3B365045FF3E0B4765F.png" width="635.00" height="635.00"></image></pattern></defs><g transform="matrix(1.00, 0.00, -0.00, -1.00, 0.0, 1080.0)"><g><clipPath id="clip0x7fd0239d8090"><path d="M 0.0 1080.0 L 1920.0 1080.0 L 1920.0 0.0 L 0.0 0.0 Z M 0.0 1080.0 "></path></clipPath><g clip-path="url(#clip0x7fd0239d8090)"><image xlink:href="../../2E921865-8DBC-4D3A-991F-A6C70785B1CF/assets/7D0D479F0D8AC86C9E875656D9072873.jpeg" width="2048.00" height="1536.00" transform="matrix(0.94, 0.00, -0.00, -0.70, 0.0, 1080.0)"></image></g></g><g><clipPath id="clip0x7fd0255b0330"><path d="M 362.0 907.3 L 1650.5 907.3 L 1650.5 954.2 L 362.0 954.2 Z M 362.0 907.3 "></path></clipPath><g clip-path="url(#clip0x7fd0255b0330)"><text xml:space="preserve" font-family="HelveticaNeue-Light,Helvetica Neue" font-size="38.0" fill="#FEFFFE" transform="matrix(1.00, 0.00, -0.00, -1.00, 846.2, 916.4)">S</text><text xml:space="preserve" font-family="HelveticaNeue-Light,Helvetica Neue" font-size="38.0" fill="#FEFFFE" transform="matrix(1.00, 0.00, -0.00, -1.00, 870.1, 916.4)">t</text><text xml:space="preserve" font-family="HelveticaNeue-Light,Helvetica Neue" font-size="38.0" fill="#FEFFFE" transform="matrix(1.00, 0.00, -0.00, -1.00, 881.4, 916.4)">i</text><text xml:space="preserve" font-family="HelveticaNeue-Light,Helvetica Neue" font-size="38.0" fill="#FEFFFE" transform="matrix(1.00, 0.00, -0.00, -1.00, 888.4, 916.4)">p</text><text xml:space="preserve" font-family="HelveticaNeue-Light,Helvetica Neue" font-size="38.0" fill="#FEFFFE" transform="matrix(1.00, 0.00, -0.00, -1.00, 910.2, 916.4)">e</text><text xml:space="preserve" font-family="HelveticaNeue-Light,Helvetica Neue" font-size="38.0" fill="#FEFFFE" transform="matrix(1.00, 0.00, -0.00, -1.00, 929.9, 916.4)">n</text><text xml:space="preserve" font-family="HelveticaNeue-Light,Helvetica Neue" font-size="38.0" fill="#FEFFFE" transform="matrix(1.00, 0.00, -0.00, -1.00, 950.3, 916.4)">d</text><text xml:space="preserve" font-family="HelveticaNeue-Light,Helvetica Neue" font-size="38.0" fill="#FEFFFE" transform="matrix(1.00, 0.00, -0.00, -1.00, 972.1, 916.4)"> </text><text xml:space="preserve" font-family="HelveticaNeue-Light,Helvetica Neue" font-size="38.0" fill="#FEFFFE" transform="matrix(1.00, 0.00, -0.00, -1.00, 982.7, 916.4)">D</text><text xml:space="preserve" font-family="HelveticaNeue-Light,Helvetica Neue" font-size="38.0" fill="#FEFFFE" transform="matrix(1.00, 0.00, -0.00, -1.00, 1008.7, 916.4)">i</text><text xml:space="preserve" font-family="HelveticaNeue-Light,Helvetica Neue" font-size="38.0" fill="#FEFFFE" transform="matrix(1.00, 0.00, -0.00, -1.00, 1015.8, 916.4)">s</text><text xml:space="preserve" font-family="HelveticaNeue-Light,Helvetica Neue" font-size="38.0" fill="#FEFFFE" transform="matrix(1.00, 0.00, -0.00, -1.00, 1034.0, 916.4)">t</text><text xml:space="preserve" font-family="HelveticaNeue-Light,Helvetica Neue" font-size="38.0" fill="#FEFFFE" transform="matrix(1.00, 0.00, -0.00, -1.00, 1045.3, 916.4)">r</text><text xml:space="preserve" font-family="HelveticaNeue-Light,Helvetica Neue" font-size="38.0" fill="#FEFFFE" transform="matrix(1.00, 0.00, -0.00, -1.00, 1057.3, 916.4)">i</text><text xml:space="preserve" font-family="HelveticaNeue-Light,Helvetica Neue" font-size="38.0" fill="#FEFFFE" transform="matrix(1.00, 0.00, -0.00, -1.00, 1064.3, 916.4)">b</text><text xml:space="preserve" font-family="HelveticaNeue-Light,Helvetica Neue" font-size="38.0" fill="#FEFFFE" transform="matrix(1.00, 0.00, -0.00, -1.00, 1086.1, 916.4)">u</text><text xml:space="preserve" font-family="HelveticaNeue-Light,Helvetica Neue" font-size="38.0" fill="#FEFFFE" transform="matrix(1.00, 0.00, -0.00, -1.00, 1106.5, 916.4)">t</text><text xml:space="preserve" font-family="HelveticaNeue-Light,Helvetica Neue" font-size="38.0" fill="#FEFFFE" transform="matrix(1.00, 0.00, -0.00, -1.00, 1117.8, 916.4)">i</text><text xml:space="preserve" font-family="HelveticaNeue-Light,Helvetica Neue" font-size="38.0" fill="#FEFFFE" transform="matrix(1.00, 0.00, -0.00, -1.00, 1124.8, 916.4)">o</text><text xml:space="preserve" font-family="HelveticaNeue-Light,Helvetica Neue" font-size="38.0" fill="#FEFFFE" transform="matrix(1.00, 0.00, -0.00, -1.00, 1145.9, 916.4)">n</text></g></g><path d="M 431.2 80.2 L 431.2 723.2 " fill="none" stroke="#B8B8B8" stroke-width="1.00" transform="matrix(1.00, 0.00, 0.00, -1.00, 253.3, 953.2)"></path><path d="M 753.2 80.2 L 753.2 723.2 " fill="none" stroke="#B8B8B8" stroke-width="1.00" transform="matrix(1.00, 0.00, 0.00, -1.00, 253.3, 953.2)"></path><path d="M 1074.2 80.2 L 1074.2 723.2 " fill="none" stroke="#B8B8B8" stroke-width="1.00" transform="matrix(1.00, 0.00, 0.00, -1.00, 253.3, 953.2)"></path><path d="M 1396.2 80.2 L 1396.2 723.2 " fill="none" stroke="#B8B8B8" stroke-width="1.00" transform="matrix(1.00, 0.00, 0.00, -1.00, 253.3, 953.2)"></path><path d="M 110.2 722.7 L 110.2 79.7 " fill="none" stroke="#B8B8B8" stroke-width="1.00" stroke-linecap="square" transform="matrix(1.00, 0.00, 0.00, -1.00, 253.3, 953.2)"></path><g><clipPath id="clip0x7fd0251a5910"><path d="M 253.3 230.3 L 253.3 873.2 L 306.0 873.2 L 306.0 230.3 Z M 253.3 230.3 "></path></clipPath><g clip-path="url(#clip0x7fd0251a5910)"><text xml:space="preserve" font-family="HelveticaNeue-Light,Helvetica Neue" font-size="30.0" fill="#FEFFFE" transform="matrix(0.00, 1.00, 1.00, -0.00, 282.1, 457.3)">S</text><text xml:space="preserve" font-family="HelveticaNeue-Light,Helvetica Neue" font-size="30.0" fill="#FEFFFE" transform="matrix(0.00, 1.00, 1.00, -0.00, 282.1, 476.2)">t</text><text xml:space="preserve" font-family="HelveticaNeue-Light,Helvetica Neue" font-size="30.0" fill="#FEFFFE" transform="matrix(0.00, 1.00, 1.00, -0.00, 282.1, 485.1)">i</text><text xml:space="preserve" font-family="HelveticaNeue-Light,Helvetica Neue" font-size="30.0" fill="#FEFFFE" transform="matrix(0.00, 1.00, 1.00, -0.00, 282.1, 490.6)">p</text><text xml:space="preserve" font-family="HelveticaNeue-Light,Helvetica Neue" font-size="30.0" fill="#FEFFFE" transform="matrix(0.00, 1.00, 1.00, -0.00, 282.1, 507.8)">e</text><text xml:space="preserve" font-family="HelveticaNeue-Light,Helvetica Neue" font-size="30.0" fill="#FEFFFE" transform="matrix(0.00, 1.00, 1.00, -0.00, 282.1, 523.4)">n</text><text xml:space="preserve" font-family="HelveticaNeue-Light,Helvetica Neue" font-size="30.0" fill="#FEFFFE" transform="matrix(0.00, 1.00, 1.00, -0.00, 282.1, 539.5)">d</text><text xml:space="preserve" font-family="HelveticaNeue-Light,Helvetica Neue" font-size="30.0" fill="#FEFFFE" transform="matrix(0.00, 1.00, 1.00, -0.00, 282.1, 556.7)"> </text><text xml:space="preserve" font-family="HelveticaNeue-Light,Helvetica Neue" font-size="30.0" fill="#FEFFFE" transform="matrix(0.00, 1.00, 1.00, -0.00, 282.1, 565.1)">L</text><text xml:space="preserve" font-family="HelveticaNeue-Light,Helvetica Neue" font-size="30.0" fill="#FEFFFE" transform="matrix(0.00, 1.00, 1.00, -0.00, 282.1, 581.2)">e</text><text xml:space="preserve" font-family="HelveticaNeue-Light,Helvetica Neue" font-size="30.0" fill="#FEFFFE" transform="matrix(0.00, 1.00, 1.00, -0.00, 282.1, 596.8)">v</text><text xml:space="preserve" font-family="HelveticaNeue-Light,Helvetica Neue" font-size="30.0" fill="#FEFFFE" transform="matrix(0.00, 1.00, 1.00, -0.00, 282.1, 610.7)">e</text><text xml:space="preserve" font-family="HelveticaNeue-Light,Helvetica Neue" font-size="30.0" fill="#FEFFFE" transform="matrix(0.00, 1.00, 1.00, -0.00, 282.1, 626.2)">l</text><text xml:space="preserve" font-family="HelveticaNeue-Light,Helvetica Neue" font-size="30.0" fill="#FEFFFE" transform="matrix(0.00, 1.00, 1.00, -0.00, 282.1, 631.8)">s</text></g></g><g><clipPath id="clip0x7fd025c5ec30"><path d="M 305.0 808.7 L 340.8 808.7 L 340.8 845.8 L 305.0 845.8 Z M 305.0 808.7 "></path></clipPath><g clip-path="url(#clip0x7fd025c5ec30)"><text xml:space="preserve" font-family="HelveticaNeue-Light,Helvetica Neue" font-size="30.0" fill="#FEFFFE" transform="matrix(1.00, 0.00, -0.00, -1.00, 306.5, 816.1)">L</text><text xml:space="preserve" font-family="HelveticaNeue-Light,Helvetica Neue" font-size="30.0" fill="#FEFFFE" transform="matrix(1.00, 0.00, -0.00, -1.00, 322.6, 816.1)">1</text></g></g><g><clipPath id="clip0x7fd025733900"><path d="M 305.0 716.9 L 340.8 716.9 L 340.8 754.0 L 305.0 754.0 Z M 305.0 716.9 "></path></clipPath><g clip-path="url(#clip0x7fd025733900)"><text xml:space="preserve" font-family="HelveticaNeue-Light,Helvetica Neue" font-size="30.0" fill="#FEFFFE" transform="matrix(1.00, 0.00, -0.00, -1.00, 306.5, 724.2)">L</text><text xml:space="preserve" font-family="HelveticaNeue-Light,Helvetica Neue" font-size="30.0" fill="#FEFFFE" transform="matrix(1.00, 0.00, -0.00, -1.00, 322.6, 724.2)">2</text></g></g><g><clipPath id="clip0x7fd0243cc570"><path d="M 305.0 625.0 L 340.8 625.0 L 340.8 662.1 L 305.0 662.1 Z M 305.0 625.0 "></path></clipPath><g clip-path="url(#clip0x7fd0243cc570)"><text xml:space="preserve" font-family="HelveticaNeue-Light,Helvetica Neue" font-size="30.0" fill="#FEFFFE" transform="matrix(1.00, 0.00, -0.00, -1.00, 306.5, 632.4)">L</text><text xml:space="preserve" font-family="HelveticaNeue-Light,Helvetica Neue" font-size="30.0" fill="#FEFFFE" transform="matrix(1.00, 0.00, -0.00, -1.00, 322.6, 632.4)">3</text></g></g><g><clipPath id="clip0x7fd027749a90"><path d="M 305.0 533.2 L 340.8 533.2 L 340.8 570.3 L 305.0 570.3 Z M 305.0 533.2 "></path></clipPath><g clip-path="url(#clip0x7fd027749a90)"><text xml:space="preserve" font-family="HelveticaNeue-Light,Helvetica Neue" font-size="30.0" fill="#FEFFFE" transform="matrix(1.00, 0.00, -0.00, -1.00, 306.5, 540.6)">L</text><text xml:space="preserve" font-family="HelveticaNeue-Light,Helvetica Neue" font-size="30.0" fill="#FEFFFE" transform="matrix(1.00, 0.00, -0.00, -1.00, 322.6, 540.6)">4</text></g></g><g><clipPath id="clip0x7fd0273426c0"><path d="M 305.0 441.3 L 340.8 441.3 L 340.8 478.5 L 305.0 478.5 Z M 305.0 441.3 "></path></clipPath><g clip-path="url(#clip0x7fd0273426c0)"><text xml:space="preserve" font-family="HelveticaNeue-Light,Helvetica Neue" font-size="30.0" fill="#FEFFFE" transform="matrix(1.00, 0.00, -0.00, -1.00, 306.5, 448.7)">L</text><text xml:space="preserve" font-family="HelveticaNeue-Light,Helvetica Neue" font-size="30.0" fill="#FEFFFE" transform="matrix(1.00, 0.00, -0.00, -1.00, 322.6, 448.7)">5</text></g></g><g><clipPath id="clip0x7fd0277dfb10"><path d="M 305.0 349.5 L 340.8 349.5 L 340.8 386.6 L 305.0 386.6 Z M 305.0 349.5 "></path></clipPath><g clip-path="url(#clip0x7fd0277dfb10)"><text xml:space="preserve" font-family="HelveticaNeue-Light,Helvetica Neue" font-size="30.0" fill="#FEFFFE" transform="matrix(1.00, 0.00, -0.00, -1.00, 306.5, 356.9)">L</text><text xml:space="preserve" font-family="HelveticaNeue-Light,Helvetica Neue" font-size="30.0" fill="#FEFFFE" transform="matrix(1.00, 0.00, -0.00, -1.00, 322.6, 356.9)">6</text></g></g><g><clipPath id="clip0x7fd0255a2060"><path d="M 305.0 257.7 L 340.8 257.7 L 340.8 294.8 L 305.0 294.8 Z M 305.0 257.7 "></path></clipPath><g clip-path="url(#clip0x7fd0255a2060)"><text xml:space="preserve" font-family="HelveticaNeue-Light,Helvetica Neue" font-size="30.0" fill="#FEFFFE" transform="matrix(1.00, 0.00, -0.00, -1.00, 306.5, 265.1)">L</text><text xml:space="preserve" font-family="HelveticaNeue-Light,Helvetica Neue" font-size="30.0" fill="#FEFFFE" transform="matrix(1.00, 0.00, -0.00, -1.00, 322.6, 265.1)">7</text></g></g><g><clipPath id="clip0x7fd023bb4000"><path d="M 363.0 126.8 L 1649.5 126.8 L 1649.5 179.5 L 363.0 179.5 Z M 363.0 126.8 "></path></clipPath><g clip-path="url(#clip0x7fd023bb4000)"><text xml:space="preserve" font-family="HelveticaNeue-Light,Helvetica Neue" font-size="30.0" fill="#FEFFFE" transform="matrix(1.00, 0.00, -0.00, -1.00, 932.6, 133.2)">C</text><text xml:space="preserve" font-family="HelveticaNeue-Light,Helvetica Neue" font-size="30.0" fill="#FEFFFE" transform="matrix(1.00, 0.00, -0.00, -1.00, 953.8, 133.2)">a</text><text xml:space="preserve" font-family="HelveticaNeue-Light,Helvetica Neue" font-size="30.0" fill="#FEFFFE" transform="matrix(1.00, 0.00, -0.00, -1.00, 969.3, 133.2)">n</text><text xml:space="preserve" font-family="HelveticaNeue-Light,Helvetica Neue" font-size="30.0" fill="#FEFFFE" transform="matrix(1.00, 0.00, -0.00, -1.00, 985.4, 133.2)">d</text><text xml:space="preserve" font-family="HelveticaNeue-Light,Helvetica Neue" font-size="30.0" fill="#FEFFFE" transform="matrix(1.00, 0.00, -0.00, -1.00, 1002.7, 133.2)">i</text><text xml:space="preserve" font-family="HelveticaNeue-Light,Helvetica Neue" font-size="30.0" fill="#FEFFFE" transform="matrix(1.00, 0.00, -0.00, -1.00, 1008.2, 133.2)">d</text><text xml:space="preserve" font-family="HelveticaNeue-Light,Helvetica Neue" font-size="30.0" fill="#FEFFFE" transform="matrix(1.00, 0.00, -0.00, -1.00, 1025.4, 133.2)">a</text><text xml:space="preserve" font-family="HelveticaNeue-Light,Helvetica Neue" font-size="30.0" fill="#FEFFFE" transform="matrix(1.00, 0.00, -0.00, -1.00, 1041.0, 133.2)">t</text><text xml:space="preserve" font-family="HelveticaNeue-Light,Helvetica Neue" font-size="30.0" fill="#FEFFFE" transform="matrix(1.00, 0.00, -0.00, -1.00, 1049.9, 133.2)">e</text><text xml:space="preserve" font-family="HelveticaNeue-Light,Helvetica Neue" font-size="30.0" fill="#FEFFFE" transform="matrix(1.00, 0.00, -0.00, -1.00, 1065.4, 133.2)">s</text></g></g><g><clipPath id="clip0x7fd027731f30"><path d="M 353.2 178.5 L 372.9 178.5 L 372.9 215.6 L 353.2 215.6 Z M 353.2 178.5 "></path></clipPath><g clip-path="url(#clip0x7fd027731f30)"><text xml:space="preserve" font-family="HelveticaNeue-Light,Helvetica Neue" font-size="30.0" fill="#FEFFFE" transform="matrix(1.00, 0.00, -0.00, -1.00, 354.7, 185.9)">0</text></g></g><g><clipPath id="clip0x7fd026fee480"><path d="M 653.9 178.5 L 715.3 178.5 L 715.3 215.6 L 653.9 215.6 Z M 653.9 178.5 "></path></clipPath><g clip-path="url(#clip0x7fd026fee480)"><text xml:space="preserve" font-family="HelveticaNeue-Light,Helvetica Neue" font-size="30.0" fill="#FEFFFE" transform="matrix(1.00, 0.00, -0.00, -1.00, 655.4, 185.9)">1</text><text xml:space="preserve" font-family="HelveticaNeue-Light,Helvetica Neue" font-size="30.0" fill="#FEFFFE" transform="matrix(1.00, 0.00, -0.00, -1.00, 672.1, 185.9)">2</text><text xml:space="preserve" font-family="HelveticaNeue-Light,Helvetica Neue" font-size="30.0" fill="#FEFFFE" transform="matrix(1.00, 0.00, -0.00, -1.00, 688.8, 185.9)">.</text><text xml:space="preserve" font-family="HelveticaNeue-Light,Helvetica Neue" font-size="30.0" fill="#FEFFFE" transform="matrix(1.00, 0.00, -0.00, -1.00, 697.1, 185.9)">5</text></g></g><g><clipPath id="clip0x7fd02534a2f0"><path d="M 988.1 178.5 L 1024.4 178.5 L 1024.4 215.6 L 988.1 215.6 Z M 988.1 178.5 "></path></clipPath><g clip-path="url(#clip0x7fd02534a2f0)"><text xml:space="preserve" font-family="HelveticaNeue-Light,Helvetica Neue" font-size="30.0" fill="#FEFFFE" transform="matrix(1.00, 0.00, -0.00, -1.00, 989.6, 185.9)">2</text><text xml:space="preserve" font-family="HelveticaNeue-Light,Helvetica Neue" font-size="30.0" fill="#FEFFFE" transform="matrix(1.00, 0.00, -0.00, -1.00, 1006.3, 185.9)">5</text></g></g><g><clipPath id="clip0x7fd027394e30"><path d="M 1297.2 178.5 L 1358.6 178.5 L 1358.6 215.6 L 1297.2 215.6 Z M 1297.2 178.5 "></path></clipPath><g clip-path="url(#clip0x7fd027394e30)"><text xml:space="preserve" font-family="HelveticaNeue-Light,Helvetica Neue" font-size="30.0" fill="#FEFFFE" transform="matrix(1.00, 0.00, -0.00, -1.00, 1298.7, 185.9)">3</text><text xml:space="preserve" font-family="HelveticaNeue-Light,Helvetica Neue" font-size="30.0" fill="#FEFFFE" transform="matrix(1.00, 0.00, -0.00, -1.00, 1315.4, 185.9)">7</text><text xml:space="preserve" font-family="HelveticaNeue-Light,Helvetica Neue" font-size="30.0" fill="#FEFFFE" transform="matrix(1.00, 0.00, -0.00, -1.00, 1332.0, 185.9)">.</text><text xml:space="preserve" font-family="HelveticaNeue-Light,Helvetica Neue" font-size="30.0" fill="#FEFFFE" transform="matrix(1.00, 0.00, -0.00, -1.00, 1340.4, 185.9)">5</text></g></g><g><clipPath id="clip0x7fd025b35d60"><path d="M 1631.3 178.5 L 1667.7 178.5 L 1667.7 215.6 L 1631.3 215.6 Z M 1631.3 178.5 "></path></clipPath><g clip-path="url(#clip0x7fd025b35d60)"><text xml:space="preserve" font-family="HelveticaNeue-Light,Helvetica Neue" font-size="30.0" fill="#FEFFFE" transform="matrix(1.00, 0.00, -0.00, -1.00, 1632.8, 185.9)">5</text><text xml:space="preserve" font-family="HelveticaNeue-Light,Helvetica Neue" font-size="30.0" fill="#FEFFFE" transform="matrix(1.00, 0.00, -0.00, -1.00, 1649.5, 185.9)">0</text></g></g><image xlink:href="../../F3B6EEB4-A392-4AB9-91B3-B1E607A96DA7/assets/575025FBB3D24A905D03B50844B0E60E.png" width="1062.00" height="623.00" transform="matrix(1.00, 0.00, -0.00, -1.00, 360.0, 861.0)"></image><g><g><clipPath id="clip0x7fd0233a6de0"><path d="M 543.0 859.0 L 1083.0 859.0 L 1083.0 794.0 L 543.0 794.0 Z M 543.0 859.0 "></path></clipPath><g clip-path="url(#clip0x7fd0233a6de0)"><g><clipPath id="clip0x7fd027de81b0"><path d="M 363.0 230.3 L 1649.5 230.3 L 1649.5 873.2 L 363.0 873.2 Z M 363.0 230.3 "></path></clipPath><g clip-path="url(#clip0x7fd027de81b0)"><path d="M 543.0 794.0 L 1083.0 794.0 L 1083.0 859.0 L 543.0 859.0 Z M 543.0 794.0 " fill="url(#FAC0EA6B-E079-4F18-A82B-D6D9CD401253)"></path></g></g></g></g><g><clipPath id="clip0x7fd02304d390"><path d="M 775.0 768.0 L 1418.0 768.0 L 1418.0 702.0 L 775.0 702.0 Z M 775.0 768.0 "></path></clipPath><g clip-path="url(#clip0x7fd02304d390)"><g><clipPath id="clip0x7fd027199090"><path d="M 363.0 230.3 L 1649.5 230.3 L 1649.5 873.2 L 363.0 873.2 Z M 363.0 230.3 "></path></clipPath><g clip-path="url(#clip0x7fd027199090)"><path d="M 775.0 702.0 L 1418.0 702.0 L 1418.0 768.0 L 775.0 768.0 Z M 775.0 702.0 " fill="url(#44DC5F91-436D-4868-BFC4-2EF385DE5009)"></path></g></g></g></g><g><clipPath id="clip0x7fd0236f5af0"><path d="M 389.0 676.0 L 595.0 676.0 L 595.0 611.0 L 389.0 611.0 Z M 389.0 676.0 "></path></clipPath><g clip-path="url(#clip0x7fd0236f5af0)"><g><clipPath id="clip0x7fd023e0fb30"><path d="M 363.0 230.3 L 1649.5 230.3 L 1649.5 873.2 L 363.0 873.2 Z M 363.0 230.3 "></path></clipPath><g clip-path="url(#clip0x7fd023e0fb30)"><image xlink:href="../../F3B6EEB4-A392-4AB9-91B3-B1E607A96DA7/assets/1A1A9BCF3C3F09515F4D0C3834D85EBD.png" width="635.00" height="635.00" transform="matrix(0.50, 0.00, -0.00, -0.50, 389.0, 676.0)"></image></g></g></g></g><g><clipPath id="clip0x7fd027d13dc0"><path d="M 543.0 584.0 L 1341.0 584.0 L 1341.0 519.0 L 543.0 519.0 Z M 543.0 584.0 "></path></clipPath><g clip-path="url(#clip0x7fd027d13dc0)"><g><clipPath id="clip0x7fd02642bc60"><path d="M 363.0 230.3 L 1649.5 230.3 L 1649.5 873.2 L 363.0 873.2 Z M 363.0 230.3 "></path></clipPath><g clip-path="url(#clip0x7fd02642bc60)"><path d="M 543.0 519.0 L 1341.0 519.0 L 1341.0 584.0 L 543.0 584.0 Z M 543.0 519.0 " fill="url(#5ED138EF-F1DA-41BE-884C-BAA6BD0B196A)"></path></g></g></g></g><g><clipPath id="clip0x7fd0271c5690"><path d="M 364.0 493.0 L 440.0 493.0 L 440.0 428.0 L 364.0 428.0 Z M 364.0 493.0 "></path></clipPath><g clip-path="url(#clip0x7fd0271c5690)"><g><clipPath id="clip0x7fd02530e730"><path d="M 363.0 230.3 L 1649.5 230.3 L 1649.5 873.2 L 363.0 873.2 Z M 363.0 230.3 "></path></clipPath><g clip-path="url(#clip0x7fd02530e730)"><image xlink:href="../../F3B6EEB4-A392-4AB9-91B3-B1E607A96DA7/assets/1A1A9BCF3C3F09515F4D0C3834D85EBD.png" width="635.00" height="635.00" transform="matrix(0.50, 0.00, -0.00, -0.50, 364.0, 493.0)"></image></g></g></g></g><g><clipPath id="clip0x7fd02582f640"><path d="M 389.0 401.0 L 440.0 401.0 L 440.0 336.0 L 389.0 336.0 Z M 389.0 401.0 "></path></clipPath><g clip-path="url(#clip0x7fd02582f640)"><g><clipPath id="clip0x7fd0258cd5d0"><path d="M 363.0 230.3 L 1649.5 230.3 L 1649.5 873.2 L 363.0 873.2 Z M 363.0 230.3 "></path></clipPath><g clip-path="url(#clip0x7fd0258cd5d0)"><image xlink:href="../../F3B6EEB4-A392-4AB9-91B3-B1E607A96DA7/assets/1A1A9BCF3C3F09515F4D0C3834D85EBD.png" width="635.00" height="635.00" transform="matrix(0.50, 0.00, -0.00, -0.50, 389.0, 401.0)"></image></g></g></g></g><g><clipPath id="clip0x7fd025a2a2f0"><path d="M 414.0 310.0 L 749.0 310.0 L 749.0 244.0 L 414.0 244.0 Z M 414.0 310.0 "></path></clipPath><g clip-path="url(#clip0x7fd025a2a2f0)"><g><clipPath id="clip0x7fd025d1f390"><path d="M 363.0 230.3 L 1649.5 230.3 L 1649.5 873.2 L 363.0 873.2 Z M 363.0 230.3 "></path></clipPath><g clip-path="url(#clip0x7fd025d1f390)"><path d="M 414.0 244.0 L 749.0 244.0 L 749.0 310.0 L 414.0 310.0 Z M 414.0 244.0 " fill="url(#B653ADDD-0E6E-4F63-94A9-F2826AC95658)"></path></g></g></g></g><g><clipPath id="clip0x7fd0279e76c0"><path d="M 364.0 859.0 L 543.0 859.0 L 543.0 794.0 L 364.0 794.0 Z M 364.0 859.0 "></path></clipPath><g clip-path="url(#clip0x7fd0279e76c0)"><g><clipPath id="clip0x7fd027c60e20"><path d="M 363.0 230.3 L 1649.5 230.3 L 1649.5 873.2 L 363.0 873.2 Z M 363.0 230.3 "></path></clipPath><g clip-path="url(#clip0x7fd027c60e20)"><image xlink:href="../../F3B6EEB4-A392-4AB9-91B3-B1E607A96DA7/assets/7DFBEECFE0B3F3B365045FF3E0B4765F.png" width="635.00" height="635.00" transform="matrix(0.50, 0.00, -0.00, -0.50, 364.0, 859.0)"></image></g></g></g></g><g><clipPath id="clip0x7fd0281e4510"><path d="M 364.0 768.0 L 775.0 768.0 L 775.0 702.0 L 364.0 702.0 Z M 364.0 768.0 "></path></clipPath><g clip-path="url(#clip0x7fd0281e4510)"><g><clipPath id="clip0x7fd026a44520"><path d="M 363.0 230.3 L 1649.5 230.3 L 1649.5 873.2 L 363.0 873.2 Z M 363.0 230.3 "></path></clipPath><g clip-path="url(#clip0x7fd026a44520)"><path d="M 364.0 702.0 L 775.0 702.0 L 775.0 768.0 L 364.0 768.0 Z M 364.0 702.0 " fill="url(#104C7EB6-35D7-46E1-994D-49FC436E931E)"></path></g></g></g></g><g><clipPath id="clip0x7fd023204130"><path d="M 364.0 676.0 L 389.0 676.0 L 389.0 611.0 L 364.0 611.0 Z M 364.0 676.0 "></path></clipPath><g clip-path="url(#clip0x7fd023204130)"><g><clipPath id="clip0x7fd023f4b0f0"><path d="M 363.0 230.3 L 1649.5 230.3 L 1649.5 873.2 L 363.0 873.2 Z M 363.0 230.3 "></path></clipPath><g clip-path="url(#clip0x7fd023f4b0f0)"><image xlink:href="../../F3B6EEB4-A392-4AB9-91B3-B1E607A96DA7/assets/7DFBEECFE0B3F3B365045FF3E0B4765F.png" width="635.00" height="635.00" transform="matrix(0.50, 0.00, -0.00, -0.50, 364.0, 676.0)"></image></g></g></g></g><g><clipPath id="clip0x7fd025f3a460"><path d="M 364.0 584.0 L 543.0 584.0 L 543.0 519.0 L 364.0 519.0 Z M 364.0 584.0 "></path></clipPath><g clip-path="url(#clip0x7fd025f3a460)"><g><clipPath id="clip0x7fd025864fd0"><path d="M 363.0 230.3 L 1649.5 230.3 L 1649.5 873.2 L 363.0 873.2 Z M 363.0 230.3 "></path></clipPath><g clip-path="url(#clip0x7fd025864fd0)"><image xlink:href="../../F3B6EEB4-A392-4AB9-91B3-B1E607A96DA7/assets/7DFBEECFE0B3F3B365045FF3E0B4765F.png" width="635.00" height="635.00" transform="matrix(0.50, 0.00, -0.00, -0.50, 364.0, 584.0)"></image></g></g></g></g><g><clipPath id="clip0x7fd02736da80"><path d="M 364.0 401.0 L 389.0 401.0 L 389.0 336.0 L 364.0 336.0 Z M 364.0 401.0 "></path></clipPath><g clip-path="url(#clip0x7fd02736da80)"><g><clipPath id="clip0x7fd025388770"><path d="M 363.0 230.3 L 1649.5 230.3 L 1649.5 873.2 L 363.0 873.2 Z M 363.0 230.3 "></path></clipPath><g clip-path="url(#clip0x7fd025388770)"><image xlink:href="../../F3B6EEB4-A392-4AB9-91B3-B1E607A96DA7/assets/7DFBEECFE0B3F3B365045FF3E0B4765F.png" width="635.00" height="635.00" transform="matrix(0.50, 0.00, -0.00, -0.50, 364.0, 401.0)"></image></g></g></g></g><g><clipPath id="clip0x7fd025d3e910"><path d="M 364.0 310.0 L 414.0 310.0 L 414.0 244.0 L 364.0 244.0 Z M 364.0 310.0 "></path></clipPath><g clip-path="url(#clip0x7fd025d3e910)"><g><clipPath id="clip0x7fd0261a5fd0"><path d="M 363.0 230.3 L 1649.5 230.3 L 1649.5 873.2 L 363.0 873.2 Z M 363.0 230.3 "></path></clipPath><g clip-path="url(#clip0x7fd0261a5fd0)"><image xlink:href="../../F3B6EEB4-A392-4AB9-91B3-B1E607A96DA7/assets/7DFBEECFE0B3F3B365045FF3E0B4765F.png" width="635.00" height="635.00" transform="matrix(0.50, 0.00, -0.00, -0.50, 364.0, 310.0)"></image></g></g></g></g></g><g><g><clipPath id="clip0x7fd0271e1860"><path d="M 0.0 0.0 L 1920.0 0.0 L 1920.0 1080.0 L 0.0 1080.0 Z M 0.0 0.0 "></path></clipPath><g clip-path="url(#clip0x7fd0271e1860)"><text xml:space="preserve" font-family="HelveticaNeue-Light,Helvetica Neue" font-size="38.0" fill="#FEFFFE" transform="matrix(1.00, 0.00, -0.00, -1.00, 704.2, 262.7)">1</text><text xml:space="preserve" font-family="HelveticaNeue-Light,Helvetica Neue" font-size="38.0" fill="#FEFFFE" transform="matrix(1.00, 0.00, -0.00, -1.00, 725.3, 262.7)">3</text><text xml:space="preserve" font-family="HelveticaNeue-Light,Helvetica Neue" font-size="38.0" fill="#FEFFFE" transform="matrix(1.00, 0.00, -0.00, -1.00, 416.6, 354.3)">2</text><text xml:space="preserve" font-family="HelveticaNeue-Light,Helvetica Neue" font-size="38.0" fill="#FEFFFE" transform="matrix(1.00, 0.00, -0.00, -1.00, 416.6, 445.8)">3</text><text xml:space="preserve" font-family="HelveticaNeue-Light,Helvetica Neue" font-size="38.0" fill="#FEFFFE" transform="matrix(1.00, 0.00, -0.00, -1.00, 1296.0, 537.4)">3</text><text xml:space="preserve" font-family="HelveticaNeue-Light,Helvetica Neue" font-size="38.0" fill="#FEFFFE" transform="matrix(1.00, 0.00, -0.00, -1.00, 1317.1, 537.4)">1</text><text xml:space="preserve" font-family="HelveticaNeue-Light,Helvetica Neue" font-size="38.0" fill="#FEFFFE" transform="matrix(1.00, 0.00, -0.00, -1.00, 571.0, 628.9)">8</text><text xml:space="preserve" font-family="HelveticaNeue-Light,Helvetica Neue" font-size="38.0" fill="#FEFFFE" transform="matrix(1.00, 0.00, -0.00, -1.00, 1373.2, 720.5)">2</text><text xml:space="preserve" font-family="HelveticaNeue-Light,Helvetica Neue" font-size="38.0" fill="#FEFFFE" transform="matrix(1.00, 0.00, -0.00, -1.00, 1394.3, 720.5)">5</text><text xml:space="preserve" font-family="HelveticaNeue-Light,Helvetica Neue" font-size="38.0" fill="#FEFFFE" transform="matrix(1.00, 0.00, -0.00, -1.00, 1038.7, 812.0)">2</text><text xml:space="preserve" font-family="HelveticaNeue-Light,Helvetica Neue" font-size="38.0" fill="#FEFFFE" transform="matrix(1.00, 0.00, -0.00, -1.00, 1059.8, 812.0)">1</text><text xml:space="preserve" font-family="HelveticaNeue-Light,Helvetica Neue" font-size="38.0" fill="#FEFFFE" transform="matrix(1.00, 0.00, -0.00, -1.00, 390.8, 262.7)">2</text><text xml:space="preserve" font-family="HelveticaNeue-Light,Helvetica Neue" font-size="38.0" fill="#FEFFFE" transform="matrix(1.00, 0.00, -0.00, -1.00, 366.0, 354.3)">1</text><text xml:space="preserve" font-family="HelveticaNeue-Light,Helvetica Neue" font-size="38.0" fill="#FEFFFE" transform="matrix(1.00, 0.00, -0.00, -1.00, 519.5, 537.4)">7</text><text xml:space="preserve" font-family="HelveticaNeue-Light,Helvetica Neue" font-size="38.0" fill="#FEFFFE" transform="matrix(1.00, 0.00, -0.00, -1.00, 366.0, 628.9)">1</text><text xml:space="preserve" font-family="HelveticaNeue-Light,Helvetica Neue" font-size="38.0" fill="#FEFFFE" transform="matrix(1.00, 0.00, -0.00, -1.00, 729.9, 720.5)">1</text><text xml:space="preserve" font-family="HelveticaNeue-Light,Helvetica Neue" font-size="38.0" fill="#FEFFFE" transform="matrix(1.00, 0.00, -0.00, -1.00, 751.1, 720.5)">6</text><text xml:space="preserve" font-family="HelveticaNeue-Light,Helvetica Neue" font-size="38.0" fill="#FEFFFE" transform="matrix(1.00, 0.00, -0.00, -1.00, 519.5, 812.0)">7</text></g></g></g><g><clipPath id="clip0x7fd027fcfdd0"><path d="M 697.0 94.0 L 728.0 94.0 L 728.0 63.0 L 697.0 63.0 Z M 697.0 94.0 "></path></clipPath><g clip-path="url(#clip0x7fd027fcfdd0)"><image xlink:href="../../F3B6EEB4-A392-4AB9-91B3-B1E607A96DA7/assets/7DFBEECFE0B3F3B365045FF3E0B4765F.png" width="635.00" height="635.00" transform="matrix(0.50, 0.00, -0.00, -0.50, 697.0, 94.0)"></image></g></g><text xml:space="preserve" font-family="HelveticaNeue-Light,Helvetica Neue" font-size="32.0" fill="#FEFFFE" transform="matrix(1.00, 0.00, -0.00, -1.00, 746.7, 65.8)">F</text><text xml:space="preserve" font-family="HelveticaNeue-Light,Helvetica Neue" font-size="32.0" fill="#FEFFFE" transform="matrix(1.00, 0.00, -0.00, -1.00, 763.9, 65.8)">e</text><text xml:space="preserve" font-family="HelveticaNeue-Light,Helvetica Neue" font-size="32.0" fill="#FEFFFE" transform="matrix(1.00, 0.00, -0.00, -1.00, 780.5, 65.8)">m</text><text xml:space="preserve" font-family="HelveticaNeue-Light,Helvetica Neue" font-size="32.0" fill="#FEFFFE" transform="matrix(1.00, 0.00, -0.00, -1.00, 807.2, 65.8)">a</text><text xml:space="preserve" font-family="HelveticaNeue-Light,Helvetica Neue" font-size="32.0" fill="#FEFFFE" transform="matrix(1.00, 0.00, -0.00, -1.00, 823.8, 65.8)">l</text><text xml:space="preserve" font-family="HelveticaNeue-Light,Helvetica Neue" font-size="32.0" fill="#FEFFFE" transform="matrix(1.00, 0.00, -0.00, -1.00, 829.7, 65.8)">e</text><g><clipPath id="clip0x7fd026190040"><path d="M 1200.0 94.0 L 1231.0 94.0 L 1231.0 63.0 L 1200.0 63.0 Z M 1200.0 94.0 "></path></clipPath><g clip-path="url(#clip0x7fd026190040)"><image xlink:href="../../F3B6EEB4-A392-4AB9-91B3-B1E607A96DA7/assets/1A1A9BCF3C3F09515F4D0C3834D85EBD.png" width="635.00" height="635.00" transform="matrix(0.50, 0.00, -0.00, -0.50, 1200.0, 94.0)"></image></g></g><text xml:space="preserve" font-family="HelveticaNeue-Light,Helvetica Neue" font-size="32.0" fill="#FEFFFE" transform="matrix(1.00, 0.00, -0.00, -1.00, 1249.3, 65.8)">M</text><text xml:space="preserve" font-family="HelveticaNeue-Light,Helvetica Neue" font-size="32.0" fill="#FEFFFE" transform="matrix(1.00, 0.00, -0.00, -1.00, 1275.6, 65.8)">a</text><text xml:space="preserve" font-family="HelveticaNeue-Light,Helvetica Neue" font-size="32.0" fill="#FEFFFE" transform="matrix(1.00, 0.00, -0.00, -1.00, 1292.2, 65.8)">l</text><text xml:space="preserve" font-family="HelveticaNeue-Light,Helvetica Neue" font-size="32.0" fill="#FEFFFE" transform="matrix(1.00, 0.00, -0.00, -1.00, 1298.1, 65.8)">e</text></g></svg>