<?xml version="1.0" encoding="UTF-8" standalone="no"?><svg xmlns="http://www.w3.org/2000/svg" xmlns:xlink="http://www.w3.org/1999/xlink" clip-rule="evenodd" stroke-miterlimit="10" viewBox="0 0 1920 1080"><desc>SVG generated by Keynote</desc><defs></defs><g transform="matrix(1.00, 0.00, -0.00, -1.00, 0.0, 1080.0)"><g><clipPath id="clip0x7fd00f2da2e0"><path d="M 0.0 1080.0 L 1920.0 1080.0 L 1920.0 0.0 L 0.0 0.0 Z M 0.0 1080.0 "></path></clipPath><g clip-path="url(#clip0x7fd00f2da2e0)"><image xlink:href="../../2E921865-8DBC-4D3A-991F-A6C70785B1CF/assets/7D0D479F0D8AC86C9E875656D9072873.jpeg" width="2048.00" height="1536.00" transform="matrix(0.94, 0.00, -0.00, -0.70, 0.0, 1080.0)"></image></g></g><image xlink:href="4468236AA25B2B152764AAB3D0D2B2DF.png" width="212.00" height="27.00" transform="matrix(1.00, 0.00, -0.00, -1.00, 1673.0, 63.0)"></image><text xml:space="preserve" font-family="HelveticaNeue-LightItalic,Helvetica Neue" font-style="italic" font-size="22.0" fill="#FEFFFE" transform="matrix(1.00, 0.00, -0.00, -1.00, 1678.7, 46.2)">A</text><text xml:space="preserve" font-family="HelveticaNeue-LightItalic,Helvetica Neue" font-style="italic" font-size="22.0" fill="#FEFFFE" transform="matrix(1.00, 0.00, -0.00, -1.00, 1692.6, 46.2)">s</text><text xml:space="preserve" font-family="HelveticaNeue-LightItalic,Helvetica Neue" font-style="italic" font-size="22.0" fill="#FEFFFE" transform="matrix(1.00, 0.00, -0.00, -1.00, 1703.2, 46.2)"> </text><text xml:space="preserve" font-family="HelveticaNeue-LightItalic,Helvetica Neue" font-style="italic" font-size="22.0" fill="#FEFFFE" transform="matrix(1.00, 0.00, -0.00, -1.00, 1709.3, 46.2)">o</text><text xml:space="preserve" font-family="HelveticaNeue-LightItalic,Helvetica Neue" font-style="italic" font-size="22.0" fill="#FEFFFE" transform="matrix(1.00, 0.00, -0.00, -1.00, 1721.5, 46.2)">f</text><text xml:space="preserve" font-family="HelveticaNeue-LightItalic,Helvetica Neue" font-style="italic" font-size="22.0" fill="#FEFFFE" transform="matrix(1.00, 0.00, -0.00, -1.00, 1727.2, 46.2)"> </text><text xml:space="preserve" font-family="HelveticaNeue-LightItalic,Helvetica Neue" font-style="italic" font-size="22.0" fill="#FEFFFE" transform="matrix(1.00, 0.00, -0.00, -1.00, 1733.3, 46.2)">D</text><text xml:space="preserve" font-family="HelveticaNeue-LightItalic,Helvetica Neue" font-style="italic" font-size="22.0" fill="#FEFFFE" transform="matrix(1.00, 0.00, -0.00, -1.00, 1748.4, 46.2)">e</text><text xml:space="preserve" font-family="HelveticaNeue-LightItalic,Helvetica Neue" font-style="italic" font-size="22.0" fill="#FEFFFE" transform="matrix(1.00, 0.00, -0.00, -1.00, 1759.8, 46.2)">c</text><text xml:space="preserve" font-family="HelveticaNeue-LightItalic,Helvetica Neue" font-style="italic" font-size="22.0" fill="#FEFFFE" transform="matrix(1.00, 0.00, -0.00, -1.00, 1771.2, 46.2)"> </text><text xml:space="preserve" font-family="HelveticaNeue-LightItalic,Helvetica Neue" font-style="italic" font-size="22.0" fill="#FEFFFE" transform="matrix(1.00, 0.00, -0.00, -1.00, 1777.4, 46.2)">2</text><text xml:space="preserve" font-family="HelveticaNeue-LightItalic,Helvetica Neue" font-style="italic" font-size="22.0" fill="#FEFFFE" transform="matrix(1.00, 0.00, -0.00, -1.00, 1789.6, 46.2)">7</text><text xml:space="preserve" font-family="HelveticaNeue-LightItalic,Helvetica Neue" font-style="italic" font-size="22.0" fill="#FEFFFE" transform="matrix(1.00, 0.00, -0.00, -1.00, 1801.8, 46.2)">t</text><text xml:space="preserve" font-family="HelveticaNeue-LightItalic,Helvetica Neue" font-style="italic" font-size="22.0" fill="#FEFFFE" transform="matrix(1.00, 0.00, -0.00, -1.00, 1808.3, 46.2)">h</text><text xml:space="preserve" font-family="HelveticaNeue-LightItalic,Helvetica Neue" font-style="italic" font-size="22.0" fill="#FEFFFE" transform="matrix(1.00, 0.00, -0.00, -1.00, 1820.1, 46.2)">,</text><text xml:space="preserve" font-family="HelveticaNeue-LightItalic,Helvetica Neue" font-style="italic" font-size="22.0" fill="#FEFFFE" transform="matrix(1.00, 0.00, -0.00, -1.00, 1826.3, 46.2)"> </text><text xml:space="preserve" font-family="HelveticaNeue-LightItalic,Helvetica Neue" font-style="italic" font-size="22.0" fill="#FEFFFE" transform="matrix(1.00, 0.00, -0.00, -1.00, 1832.4, 46.2)">2</text><text xml:space="preserve" font-family="HelveticaNeue-LightItalic,Helvetica Neue" font-style="italic" font-size="22.0" fill="#FEFFFE" transform="matrix(1.00, 0.00, -0.00, -1.00, 1844.6, 46.2)">0</text><text xml:space="preserve" font-family="HelveticaNeue-LightItalic,Helvetica Neue" font-style="italic" font-size="22.0" fill="#FEFFFE" transform="matrix(1.00, 0.00, -0.00, -1.00, 1856.8, 46.2)">1</text><text xml:space="preserve" font-family="HelveticaNeue-LightItalic,Helvetica Neue" font-style="italic" font-size="22.0" fill="#FEFFFE" transform="matrix(1.00, 0.00, -0.00, -1.00, 1869.1, 46.2)">4</text><image xlink:href="5AA5DD66975BB8EDA1531F4D66FC07A3.png" width="336.00" height="55.00" transform="matrix(1.00, 0.00, -0.00, -1.00, 791.0, 907.0)"></image><text xml:space="preserve" font-family="HelveticaNeue-Light,Helvetica Neue" font-size="50.0" fill="#FEFFFE" transform="matrix(1.00, 0.00, -0.00, -1.00, 795.8, 869.5)">A</text><text xml:space="preserve" font-family="HelveticaNeue-Light,Helvetica Neue" font-size="50.0" fill="#FEFFFE" transform="matrix(1.00, 0.00, -0.00, -1.00, 826.4, 869.5)">v</text><text xml:space="preserve" font-family="HelveticaNeue-Light,Helvetica Neue" font-size="50.0" fill="#FEFFFE" transform="matrix(1.00, 0.00, -0.00, -1.00, 849.6, 869.5)">e</text><text xml:space="preserve" font-family="HelveticaNeue-Light,Helvetica Neue" font-size="50.0" fill="#FEFFFE" transform="matrix(1.00, 0.00, -0.00, -1.00, 875.5, 869.5)">r</text><text xml:space="preserve" font-family="HelveticaNeue-Light,Helvetica Neue" font-size="50.0" fill="#FEFFFE" transform="matrix(1.00, 0.00, -0.00, -1.00, 891.3, 869.5)">a</text><text xml:space="preserve" font-family="HelveticaNeue-Light,Helvetica Neue" font-size="50.0" fill="#FEFFFE" transform="matrix(1.00, 0.00, -0.00, -1.00, 917.2, 869.5)">g</text><text xml:space="preserve" font-family="HelveticaNeue-Light,Helvetica Neue" font-size="50.0" fill="#FEFFFE" transform="matrix(1.00, 0.00, -0.00, -1.00, 945.0, 869.5)">e</text><text xml:space="preserve" font-family="HelveticaNeue-Light,Helvetica Neue" font-size="50.0" fill="#FEFFFE" transform="matrix(1.00, 0.00, -0.00, -1.00, 971.0, 869.5)"> </text><text xml:space="preserve" font-family="HelveticaNeue-Light,Helvetica Neue" font-size="50.0" fill="#FEFFFE" transform="matrix(1.00, 0.00, -0.00, -1.00, 984.9, 869.5)">V</text><text xml:space="preserve" font-family="HelveticaNeue-Light,Helvetica Neue" font-size="50.0" fill="#FEFFFE" transform="matrix(1.00, 0.00, -0.00, -1.00, 1011.8, 869.5)">a</text><text xml:space="preserve" font-family="HelveticaNeue-Light,Helvetica Neue" font-size="50.0" fill="#FEFFFE" transform="matrix(1.00, 0.00, -0.00, -1.00, 1037.7, 869.5)">l</text><text xml:space="preserve" font-family="HelveticaNeue-Light,Helvetica Neue" font-size="50.0" fill="#FEFFFE" transform="matrix(1.00, 0.00, -0.00, -1.00, 1047.0, 869.5)">u</text><text xml:space="preserve" font-family="HelveticaNeue-Light,Helvetica Neue" font-size="50.0" fill="#FEFFFE" transform="matrix(1.00, 0.00, -0.00, -1.00, 1073.8, 869.5)">e</text><text xml:space="preserve" font-family="HelveticaNeue-Light,Helvetica Neue" font-size="50.0" fill="#FEFFFE" transform="matrix(1.00, 0.00, -0.00, -1.00, 1099.8, 869.5)">s</text><g><clipPath id="clip0x7fd00f134020"><path d="M 327.0 850.0 L 1592.6 850.0 L 1592.6 151.6 L 327.0 151.6 Z M 327.0 850.0 "></path></clipPath><g clip-path="url(#clip0x7fd00f134020)"><path d="M 328.0 616.9 L 959.8 616.9 L 959.8 384.7 L 328.0 384.7 Z M 328.0 616.9 " fill="#676163" fill-opacity="0.36"></path><path d="M 959.8 616.9 L 1591.6 616.9 L 1591.6 384.7 L 959.8 384.7 Z M 959.8 616.9 " fill="#676163" fill-opacity="0.36"></path></g></g><image xlink:href="D8F16B3AAF182F3A72533D5946882E1A.png" width="143.00" height="45.00" transform="matrix(1.00, 0.00, -0.00, -1.00, 572.0, 746.0)"></image><g><clipPath id="clip0x7fd00f137360"><path d="M 327.0 850.0 L 1592.6 850.0 L 1592.6 151.6 L 327.0 151.6 Z M 327.0 850.0 "></path></clipPath><g clip-path="url(#clip0x7fd00f137360)"><g><clipPath id="clip0x7fd00f136250"><path d="M 329.0 617.9 L 958.8 617.9 L 958.8 848.0 L 329.0 848.0 Z M 329.0 617.9 "></path></clipPath><g clip-path="url(#clip0x7fd00f136250)"><text xml:space="preserve" font-family="HelveticaNeue-Light,Helvetica Neue" font-size="42.0" fill="#FEFFFE" transform="matrix(1.00, 0.00, -0.00, -1.00, 574.3, 717.2)">S</text><text xml:space="preserve" font-family="HelveticaNeue-Light,Helvetica Neue" font-size="42.0" fill="#FEFFFE" transform="matrix(1.00, 0.00, -0.00, -1.00, 600.8, 717.2)">t</text><text xml:space="preserve" font-family="HelveticaNeue-Light,Helvetica Neue" font-size="42.0" fill="#FEFFFE" transform="matrix(1.00, 0.00, -0.00, -1.00, 613.2, 717.2)">i</text><text xml:space="preserve" font-family="HelveticaNeue-Light,Helvetica Neue" font-size="42.0" fill="#FEFFFE" transform="matrix(1.00, 0.00, -0.00, -1.00, 621.0, 717.2)">p</text><text xml:space="preserve" font-family="HelveticaNeue-Light,Helvetica Neue" font-size="42.0" fill="#FEFFFE" transform="matrix(1.00, 0.00, -0.00, -1.00, 645.1, 717.2)">e</text><text xml:space="preserve" font-family="HelveticaNeue-Light,Helvetica Neue" font-size="42.0" fill="#FEFFFE" transform="matrix(1.00, 0.00, -0.00, -1.00, 666.9, 717.2)">n</text><text xml:space="preserve" font-family="HelveticaNeue-Light,Helvetica Neue" font-size="42.0" fill="#FEFFFE" transform="matrix(1.00, 0.00, -0.00, -1.00, 689.4, 717.2)">d</text></g></g></g></g><image xlink:href="C79FDB2F3275A9B0B670D799BCDF345A.png" width="121.00" height="37.00" transform="matrix(1.00, 0.00, -0.00, -1.00, 1215.0, 745.0)"></image><g><clipPath id="clip0x7fd00f13ca00"><path d="M 327.0 850.0 L 1592.6 850.0 L 1592.6 151.6 L 327.0 151.6 Z M 327.0 850.0 "></path></clipPath><g clip-path="url(#clip0x7fd00f13ca00)"><g><clipPath id="clip0x7fd00f13ba70"><path d="M 960.8 617.9 L 1590.6 617.9 L 1590.6 848.0 L 960.8 848.0 Z M 960.8 617.9 "></path></clipPath><g clip-path="url(#clip0x7fd00f13ba70)"><text xml:space="preserve" font-family="HelveticaNeue-Light,Helvetica Neue" font-size="42.0" fill="#FEFFFE" transform="matrix(1.00, 0.00, -0.00, -1.00, 1217.3, 717.2)">2</text><text xml:space="preserve" font-family="HelveticaNeue-Light,Helvetica Neue" font-size="42.0" fill="#FEFFFE" transform="matrix(1.00, 0.00, -0.00, -1.00, 1240.7, 717.2)">6</text><text xml:space="preserve" font-family="HelveticaNeue-Light,Helvetica Neue" font-size="42.0" fill="#FEFFFE" transform="matrix(1.00, 0.00, -0.00, -1.00, 1264.0, 717.2)">5</text><text xml:space="preserve" font-family="HelveticaNeue-Light,Helvetica Neue" font-size="42.0" fill="#FEFFFE" transform="matrix(1.00, 0.00, -0.00, -1.00, 1287.4, 717.2)">4</text><text xml:space="preserve" font-family="HelveticaNeue-Light,Helvetica Neue" font-size="42.0" fill="#FEFFFE" transform="matrix(1.00, 0.00, -0.00, -1.00, 1310.7, 717.2)">4</text></g></g></g></g><image xlink:href="4E0B1B7A2635D20674C923E50D39FB04.png" width="86.00" height="38.00" transform="matrix(1.00, 0.00, -0.00, -1.00, 601.0, 514.0)"></image><g><clipPath id="clip0x7fd01fd98680"><path d="M 327.0 850.0 L 1592.6 850.0 L 1592.6 151.6 L 327.0 151.6 Z M 327.0 850.0 "></path></clipPath><g clip-path="url(#clip0x7fd01fd98680)"><g><clipPath id="clip0x7fd024573170"><path d="M 329.0 385.7 L 958.8 385.7 L 958.8 615.9 L 329.0 615.9 Z M 329.0 385.7 "></path></clipPath><g clip-path="url(#clip0x7fd024573170)"><text xml:space="preserve" font-family="HelveticaNeue-Light,Helvetica Neue" font-size="42.0" fill="#FEFFFE" transform="matrix(1.00, 0.00, -0.00, -1.00, 602.7, 485.0)">C</text><text xml:space="preserve" font-family="HelveticaNeue-Light,Helvetica Neue" font-size="42.0" fill="#FEFFFE" transform="matrix(1.00, 0.00, -0.00, -1.00, 632.2, 485.0)">T</text><text xml:space="preserve" font-family="HelveticaNeue-Light,Helvetica Neue" font-size="42.0" fill="#FEFFFE" transform="matrix(1.00, 0.00, -0.00, -1.00, 655.6, 485.0)">C</text></g></g></g></g><image xlink:href="62A76B7190520494048FD5FE22670381.png" width="163.00" height="37.00" transform="matrix(1.00, 0.00, -0.00, -1.00, 1195.0, 513.0)"></image><g><clipPath id="clip0x7fd00f143240"><path d="M 327.0 850.0 L 1592.6 850.0 L 1592.6 151.6 L 327.0 151.6 Z M 327.0 850.0 "></path></clipPath><g clip-path="url(#clip0x7fd00f143240)"><g><clipPath id="clip0x7fd00f141e30"><path d="M 960.8 385.7 L 1590.6 385.7 L 1590.6 615.9 L 960.8 615.9 Z M 960.8 385.7 "></path></clipPath><g clip-path="url(#clip0x7fd00f141e30)"><text xml:space="preserve" font-family="HelveticaNeue-Light,Helvetica Neue" font-size="42.0" fill="#FEFFFE" transform="matrix(1.00, 0.00, -0.00, -1.00, 1194.0, 485.0)">1</text><text xml:space="preserve" font-family="HelveticaNeue-Light,Helvetica Neue" font-size="42.0" fill="#FEFFFE" transform="matrix(1.00, 0.00, -0.00, -1.00, 1217.3, 485.0)">0</text><text xml:space="preserve" font-family="HelveticaNeue-Light,Helvetica Neue" font-size="42.0" fill="#FEFFFE" transform="matrix(1.00, 0.00, -0.00, -1.00, 1240.7, 485.0)">2</text><text xml:space="preserve" font-family="HelveticaNeue-Light,Helvetica Neue" font-size="42.0" fill="#FEFFFE" transform="matrix(1.00, 0.00, -0.00, -1.00, 1264.0, 485.0)">9</text><text xml:space="preserve" font-family="HelveticaNeue-Light,Helvetica Neue" font-size="42.0" fill="#FEFFFE" transform="matrix(1.00, 0.00, -0.00, -1.00, 1287.4, 485.0)">8</text><text xml:space="preserve" font-family="HelveticaNeue-Light,Helvetica Neue" font-size="42.0" fill="#FEFFFE" transform="matrix(1.00, 0.00, -0.00, -1.00, 1310.7, 485.0)">3</text><text xml:space="preserve" font-family="HelveticaNeue-Light,Helvetica Neue" font-size="42.0" fill="#FEFFFE" transform="matrix(1.00, 0.00, -0.00, -1.00, 1334.1, 485.0)">2</text></g></g></g></g><image xlink:href="1018337B80EE7BB61D8035D9CAB05CB8.png" width="116.00" height="38.00" transform="matrix(1.00, 0.00, -0.00, -1.00, 587.0, 282.0)"></image><g><clipPath id="clip0x7fd00f148560"><path d="M 327.0 850.0 L 1592.6 850.0 L 1592.6 151.6 L 327.0 151.6 Z M 327.0 850.0 "></path></clipPath><g clip-path="url(#clip0x7fd00f148560)"><g><clipPath id="clip0x7fd00f1475c0"><path d="M 329.0 153.6 L 958.8 153.6 L 958.8 383.7 L 329.0 383.7 Z M 329.0 153.6 "></path></clipPath><g clip-path="url(#clip0x7fd00f1475c0)"><text xml:space="preserve" font-family="HelveticaNeue-Light,Helvetica Neue" font-size="42.0" fill="#FEFFFE" transform="matrix(1.00, 0.00, -0.00, -1.00, 588.7, 252.9)">C</text><text xml:space="preserve" font-family="HelveticaNeue-Light,Helvetica Neue" font-size="42.0" fill="#FEFFFE" transform="matrix(1.00, 0.00, -0.00, -1.00, 618.2, 252.9)">G</text><text xml:space="preserve" font-family="HelveticaNeue-Light,Helvetica Neue" font-size="42.0" fill="#FEFFFE" transform="matrix(1.00, 0.00, -0.00, -1.00, 649.3, 252.9)">P</text><text xml:space="preserve" font-family="HelveticaNeue-Light,Helvetica Neue" font-size="42.0" fill="#FEFFFE" transform="matrix(1.00, 0.00, -0.00, -1.00, 672.7, 252.9)">A</text></g></g></g></g><image xlink:href="EEF5E732F50ED574568428FC02D673FC.png" width="102.00" height="37.00" transform="matrix(1.00, 0.00, -0.00, -1.00, 1221.0, 281.0)"></image><g><clipPath id="clip0x7fd00f14b1a0"><path d="M 327.0 850.0 L 1592.6 850.0 L 1592.6 151.6 L 327.0 151.6 Z M 327.0 850.0 "></path></clipPath><g clip-path="url(#clip0x7fd00f14b1a0)"><g><clipPath id="clip0x7fd00f14b8f0"><path d="M 960.8 153.6 L 1590.6 153.6 L 1590.6 383.7 L 960.8 383.7 Z M 960.8 153.6 "></path></clipPath><g clip-path="url(#clip0x7fd00f14b8f0)"><text xml:space="preserve" font-family="HelveticaNeue-Light,Helvetica Neue" font-size="42.0" fill="#FEFFFE" transform="matrix(1.00, 0.00, -0.00, -1.00, 1223.2, 252.9)">3</text><text xml:space="preserve" font-family="HelveticaNeue-Light,Helvetica Neue" font-size="42.0" fill="#FEFFFE" transform="matrix(1.00, 0.00, -0.00, -1.00, 1246.5, 252.9)">.</text><text xml:space="preserve" font-family="HelveticaNeue-Light,Helvetica Neue" font-size="42.0" fill="#FEFFFE" transform="matrix(1.00, 0.00, -0.00, -1.00, 1258.2, 252.9)">6</text><text xml:space="preserve" font-family="HelveticaNeue-Light,Helvetica Neue" font-size="42.0" fill="#FEFFFE" transform="matrix(1.00, 0.00, -0.00, -1.00, 1281.6, 252.9)">2</text><text xml:space="preserve" font-family="HelveticaNeue-Light,Helvetica Neue" font-size="42.0" fill="#FEFFFE" transform="matrix(1.00, 0.00, -0.00, -1.00, 1304.9, 252.9)">1</text></g></g></g></g><g><clipPath id="clip0x7fd00f14ef60"><path d="M 327.0 850.0 L 1592.6 850.0 L 1592.6 151.6 L 327.0 151.6 Z M 327.0 850.0 "></path></clipPath><g clip-path="url(#clip0x7fd00f14ef60)"><path d="M 633.8 79.0 L 633.8 777.4 " fill="none" stroke="#000000" stroke-opacity="0.00" stroke-width="2.00" transform="matrix(1.00, 0.00, 0.00, -1.00, 326.0, 929.0)"></path><path d="M 1.0 312.1 L 1266.6 312.1 " fill="none" stroke="#000000" stroke-opacity="0.00" stroke-width="2.00" transform="matrix(1.00, 0.00, 0.00, -1.00, 326.0, 929.0)"></path><path d="M 1.0 544.3 L 1266.6 544.3 " fill="none" stroke="#000000" stroke-opacity="0.00" stroke-width="2.00" transform="matrix(1.00, 0.00, 0.00, -1.00, 326.0, 929.0)"></path></g></g></g></svg>