<?xml version="1.0" encoding="UTF-8" standalone="no"?><svg xmlns="http://www.w3.org/2000/svg" xmlns:xlink="http://www.w3.org/1999/xlink" clip-rule="evenodd" stroke-miterlimit="10" viewBox="0 0 1920 1080"><desc>SVG generated by Keynote</desc><defs></defs><g transform="matrix(1.00, 0.00, -0.00, -1.00, 0.0, 1080.0)"><g><clipPath id="clip0x7fd00f36a230"><path d="M 0.0 1080.0 L 1920.0 1080.0 L 1920.0 0.0 L 0.0 0.0 Z M 0.0 1080.0 "></path></clipPath><g clip-path="url(#clip0x7fd00f36a230)"><image xlink:href="../../2E921865-8DBC-4D3A-991F-A6C70785B1CF/assets/7D0D479F0D8AC86C9E875656D9072873.jpeg" width="2048.00" height="1536.00" transform="matrix(0.94, 0.00, -0.00, -0.70, 0.0, 1080.0)"></image></g></g><g><clipPath id="clip0x7fd00f402cd0"><path d="M 244.0 858.0 L 1676.8 858.0 L 1676.8 222.4 L 244.0 222.4 Z M 244.0 858.0 "></path></clipPath><g clip-path="url(#clip0x7fd00f402cd0)"><path d="M 245.0 857.0 L 785.2 857.0 L 785.2 751.4 L 245.0 751.4 Z M 245.0 857.0 " fill="#0070EA" fill-opacity="0.60"></path><path d="M 785.2 857.0 L 1675.8 857.0 L 1675.8 751.4 L 785.2 751.4 Z M 785.2 857.0 " fill="#0070EA" fill-opacity="0.60"></path><path d="M 245.0 645.8 L 785.2 645.8 L 785.2 540.2 L 245.0 540.2 Z M 245.0 645.8 " fill="#676163" fill-opacity="0.36"></path><path d="M 785.2 645.8 L 1675.8 645.8 L 1675.8 540.2 L 785.2 540.2 Z M 785.2 645.8 " fill="#676163" fill-opacity="0.36"></path><path d="M 245.0 434.6 L 785.2 434.6 L 785.2 329.0 L 245.0 329.0 Z M 245.0 434.6 " fill="#676163" fill-opacity="0.36"></path><path d="M 785.2 434.6 L 1675.8 434.6 L 1675.8 329.0 L 785.2 329.0 Z M 785.2 434.6 " fill="#676163" fill-opacity="0.36"></path></g></g><image xlink:href="../../E40C35FC-3424-4C3F-BA95-AF9096CEEBD1/assets/C38ACED1BCFDE7B43FB8F341238FD6A8.png" width="222.00" height="40.00" transform="matrix(1.00, 0.00, -0.00, -1.00, 405.0, 818.0)"></image><g><clipPath id="clip0x7fd00f406160"><path d="M 244.0 858.0 L 1676.8 858.0 L 1676.8 222.4 L 244.0 222.4 Z M 244.0 858.0 "></path></clipPath><g clip-path="url(#clip0x7fd00f406160)"><g><clipPath id="clip0x7fd00f4068b0"><path d="M 246.0 752.4 L 784.2 752.4 L 784.2 856.0 L 246.0 856.0 Z M 246.0 752.4 "></path></clipPath><g clip-path="url(#clip0x7fd00f4068b0)"><text xml:space="preserve" font-family="HelveticaNeue-Light,Helvetica Neue" font-size="46.0" fill="#FEFFFE" transform="matrix(1.00, 0.00, -0.00, -1.00, 405.2, 787.1)">D</text><text xml:space="preserve" font-family="HelveticaNeue-Light,Helvetica Neue" font-size="46.0" fill="#FEFFFE" transform="matrix(1.00, 0.00, -0.00, -1.00, 436.7, 787.1)">a</text><text xml:space="preserve" font-family="HelveticaNeue-Light,Helvetica Neue" font-size="46.0" fill="#FEFFFE" transform="matrix(1.00, 0.00, -0.00, -1.00, 460.6, 787.1)">t</text><text xml:space="preserve" font-family="HelveticaNeue-Light,Helvetica Neue" font-size="46.0" fill="#FEFFFE" transform="matrix(1.00, 0.00, -0.00, -1.00, 474.2, 787.1)">a</text><text xml:space="preserve" font-family="HelveticaNeue-Light,Helvetica Neue" font-size="46.0" fill="#FEFFFE" transform="matrix(1.00, 0.00, -0.00, -1.00, 498.1, 787.1)"> </text><text xml:space="preserve" font-family="HelveticaNeue-Light,Helvetica Neue" font-size="46.0" fill="#FEFFFE" transform="matrix(1.00, 0.00, -0.00, -1.00, 510.9, 787.1)">F</text><text xml:space="preserve" font-family="HelveticaNeue-Light,Helvetica Neue" font-size="46.0" fill="#FEFFFE" transform="matrix(1.00, 0.00, -0.00, -1.00, 535.6, 787.1)">i</text><text xml:space="preserve" font-family="HelveticaNeue-Light,Helvetica Neue" font-size="46.0" fill="#FEFFFE" transform="matrix(1.00, 0.00, -0.00, -1.00, 544.1, 787.1)">e</text><text xml:space="preserve" font-family="HelveticaNeue-Light,Helvetica Neue" font-size="46.0" fill="#FEFFFE" transform="matrix(1.00, 0.00, -0.00, -1.00, 568.0, 787.1)">l</text><text xml:space="preserve" font-family="HelveticaNeue-Light,Helvetica Neue" font-size="46.0" fill="#FEFFFE" transform="matrix(1.00, 0.00, -0.00, -1.00, 576.5, 787.1)">d</text><text xml:space="preserve" font-family="HelveticaNeue-Light,Helvetica Neue" font-size="46.0" fill="#FEFFFE" transform="matrix(1.00, 0.00, -0.00, -1.00, 602.9, 787.1)">s</text></g></g></g></g><image xlink:href="../../E40C35FC-3424-4C3F-BA95-AF9096CEEBD1/assets/D892962855E28F0A524C8009F1FC2A9F.png" width="145.00" height="41.00" transform="matrix(1.00, 0.00, -0.00, -1.00, 1158.0, 819.0)"></image><g><clipPath id="clip0x7fd00f4123d0"><path d="M 244.0 858.0 L 1676.8 858.0 L 1676.8 222.4 L 244.0 222.4 Z M 244.0 858.0 "></path></clipPath><g clip-path="url(#clip0x7fd00f4123d0)"><g><clipPath id="clip0x7fd00f4112f0"><path d="M 786.2 752.4 L 1674.8 752.4 L 1674.8 856.0 L 786.2 856.0 Z M 786.2 752.4 "></path></clipPath><g clip-path="url(#clip0x7fd00f4112f0)"><text xml:space="preserve" font-family="HelveticaNeue-Light,Helvetica Neue" font-size="46.0" fill="#FEFFFE" transform="matrix(1.00, 0.00, -0.00, -1.00, 1160.2, 787.1)">S</text><text xml:space="preserve" font-family="HelveticaNeue-Light,Helvetica Neue" font-size="46.0" fill="#FEFFFE" transform="matrix(1.00, 0.00, -0.00, -1.00, 1189.1, 787.1)">o</text><text xml:space="preserve" font-family="HelveticaNeue-Light,Helvetica Neue" font-size="46.0" fill="#FEFFFE" transform="matrix(1.00, 0.00, -0.00, -1.00, 1214.7, 787.1)">u</text><text xml:space="preserve" font-family="HelveticaNeue-Light,Helvetica Neue" font-size="46.0" fill="#FEFFFE" transform="matrix(1.00, 0.00, -0.00, -1.00, 1239.4, 787.1)">r</text><text xml:space="preserve" font-family="HelveticaNeue-Light,Helvetica Neue" font-size="46.0" fill="#FEFFFE" transform="matrix(1.00, 0.00, -0.00, -1.00, 1253.1, 787.1)">c</text><text xml:space="preserve" font-family="HelveticaNeue-Light,Helvetica Neue" font-size="46.0" fill="#FEFFFE" transform="matrix(1.00, 0.00, -0.00, -1.00, 1276.9, 787.1)">e</text></g></g></g></g><image xlink:href="../../E40C35FC-3424-4C3F-BA95-AF9096CEEBD1/assets/4B8F7B5D12B594F0CC79E65ECD18E99F.png" width="257.00" height="38.00" transform="matrix(1.00, 0.00, -0.00, -1.00, 388.0, 711.0)"></image><g><clipPath id="clip0x7fd00f36da30"><path d="M 244.0 858.0 L 1676.8 858.0 L 1676.8 222.4 L 244.0 222.4 Z M 244.0 858.0 "></path></clipPath><g clip-path="url(#clip0x7fd00f36da30)"><g><clipPath id="clip0x7fd00f36e160"><path d="M 246.0 646.8 L 784.2 646.8 L 784.2 750.4 L 246.0 750.4 Z M 246.0 646.8 "></path></clipPath><g clip-path="url(#clip0x7fd00f36e160)"><text xml:space="preserve" font-family="HelveticaNeue-Light,Helvetica Neue" font-size="42.0" fill="#FEFFFE" transform="matrix(1.00, 0.00, -0.00, -1.00, 388.3, 682.6)">P</text><text xml:space="preserve" font-family="HelveticaNeue-Light,Helvetica Neue" font-size="42.0" fill="#FEFFFE" transform="matrix(1.00, 0.00, -0.00, -1.00, 414.7, 682.6)">e</text><text xml:space="preserve" font-family="HelveticaNeue-Light,Helvetica Neue" font-size="42.0" fill="#FEFFFE" transform="matrix(1.00, 0.00, -0.00, -1.00, 436.5, 682.6)">r</text><text xml:space="preserve" font-family="HelveticaNeue-Light,Helvetica Neue" font-size="42.0" fill="#FEFFFE" transform="matrix(1.00, 0.00, -0.00, -1.00, 449.8, 682.6)">s</text><text xml:space="preserve" font-family="HelveticaNeue-Light,Helvetica Neue" font-size="42.0" fill="#FEFFFE" transform="matrix(1.00, 0.00, -0.00, -1.00, 470.0, 682.6)">o</text><text xml:space="preserve" font-family="HelveticaNeue-Light,Helvetica Neue" font-size="42.0" fill="#FEFFFE" transform="matrix(1.00, 0.00, -0.00, -1.00, 493.3, 682.6)">n</text><text xml:space="preserve" font-family="HelveticaNeue-Light,Helvetica Neue" font-size="42.0" fill="#FEFFFE" transform="matrix(1.00, 0.00, -0.00, -1.00, 515.9, 682.6)">a</text><text xml:space="preserve" font-family="HelveticaNeue-Light,Helvetica Neue" font-size="42.0" fill="#FEFFFE" transform="matrix(1.00, 0.00, -0.00, -1.00, 537.7, 682.6)">l</text><text xml:space="preserve" font-family="HelveticaNeue-Light,Helvetica Neue" font-size="42.0" fill="#FEFFFE" transform="matrix(1.00, 0.00, -0.00, -1.00, 545.4, 682.6)"> </text><text xml:space="preserve" font-family="HelveticaNeue-Light,Helvetica Neue" font-size="42.0" fill="#FEFFFE" transform="matrix(1.00, 0.00, -0.00, -1.00, 557.1, 682.6)">D</text><text xml:space="preserve" font-family="HelveticaNeue-Light,Helvetica Neue" font-size="42.0" fill="#FEFFFE" transform="matrix(1.00, 0.00, -0.00, -1.00, 585.9, 682.6)">a</text><text xml:space="preserve" font-family="HelveticaNeue-Light,Helvetica Neue" font-size="42.0" fill="#FEFFFE" transform="matrix(1.00, 0.00, -0.00, -1.00, 607.7, 682.6)">t</text><text xml:space="preserve" font-family="HelveticaNeue-Light,Helvetica Neue" font-size="42.0" fill="#FEFFFE" transform="matrix(1.00, 0.00, -0.00, -1.00, 620.1, 682.6)">a</text></g></g></g></g><image xlink:href="../../E40C35FC-3424-4C3F-BA95-AF9096CEEBD1/assets/636A846946D127F751225D6AF7922348.png" width="218.00" height="38.00" transform="matrix(1.00, 0.00, -0.00, -1.00, 1123.0, 711.0)"></image><g><clipPath id="clip0x7fd00f375e20"><path d="M 244.0 858.0 L 1676.8 858.0 L 1676.8 222.4 L 244.0 222.4 Z M 244.0 858.0 "></path></clipPath><g clip-path="url(#clip0x7fd00f375e20)"><g><clipPath id="clip0x7fd00f376570"><path d="M 786.2 646.8 L 1674.8 646.8 L 1674.8 750.4 L 786.2 750.4 Z M 786.2 646.8 "></path></clipPath><g clip-path="url(#clip0x7fd00f376570)"><text xml:space="preserve" font-family="HelveticaNeue-Light,Helvetica Neue" font-size="42.0" fill="#FEFFFE" transform="matrix(1.00, 0.00, -0.00, -1.00, 1123.5, 682.6)">B</text><text xml:space="preserve" font-family="HelveticaNeue-Light,Helvetica Neue" font-size="42.0" fill="#FEFFFE" transform="matrix(1.00, 0.00, -0.00, -1.00, 1151.5, 682.6)">a</text><text xml:space="preserve" font-family="HelveticaNeue-Light,Helvetica Neue" font-size="42.0" fill="#FEFFFE" transform="matrix(1.00, 0.00, -0.00, -1.00, 1173.3, 682.6)">t</text><text xml:space="preserve" font-family="HelveticaNeue-Light,Helvetica Neue" font-size="42.0" fill="#FEFFFE" transform="matrix(1.00, 0.00, -0.00, -1.00, 1185.7, 682.6)">c</text><text xml:space="preserve" font-family="HelveticaNeue-Light,Helvetica Neue" font-size="42.0" fill="#FEFFFE" transform="matrix(1.00, 0.00, -0.00, -1.00, 1207.5, 682.6)">h</text><text xml:space="preserve" font-family="HelveticaNeue-Light,Helvetica Neue" font-size="42.0" fill="#FEFFFE" transform="matrix(1.00, 0.00, -0.00, -1.00, 1230.1, 682.6)"> </text><text xml:space="preserve" font-family="HelveticaNeue-Light,Helvetica Neue" font-size="42.0" fill="#FEFFFE" transform="matrix(1.00, 0.00, -0.00, -1.00, 1241.8, 682.6)">B</text><text xml:space="preserve" font-family="HelveticaNeue-Light,Helvetica Neue" font-size="42.0" fill="#FEFFFE" transform="matrix(1.00, 0.00, -0.00, -1.00, 1269.8, 682.6)">o</text><text xml:space="preserve" font-family="HelveticaNeue-Light,Helvetica Neue" font-size="42.0" fill="#FEFFFE" transform="matrix(1.00, 0.00, -0.00, -1.00, 1293.1, 682.6)">o</text><text xml:space="preserve" font-family="HelveticaNeue-Light,Helvetica Neue" font-size="42.0" fill="#FEFFFE" transform="matrix(1.00, 0.00, -0.00, -1.00, 1316.5, 682.6)">k</text></g></g></g></g><image xlink:href="../../E40C35FC-3424-4C3F-BA95-AF9096CEEBD1/assets/2929F5820860AA40DC0A7ADAEAC60D5A.png" width="136.00" height="38.00" transform="matrix(1.00, 0.00, -0.00, -1.00, 447.0, 606.0)"></image><g><clipPath id="clip0x7fd00f37c5c0"><path d="M 244.0 858.0 L 1676.8 858.0 L 1676.8 222.4 L 244.0 222.4 Z M 244.0 858.0 "></path></clipPath><g clip-path="url(#clip0x7fd00f37c5c0)"><g><clipPath id="clip0x7fd00f37b600"><path d="M 246.0 541.2 L 784.2 541.2 L 784.2 644.8 L 246.0 644.8 Z M 246.0 541.2 "></path></clipPath><g clip-path="url(#clip0x7fd00f37b600)"><text xml:space="preserve" font-family="HelveticaNeue-Light,Helvetica Neue" font-size="42.0" fill="#FEFFFE" transform="matrix(1.00, 0.00, -0.00, -1.00, 449.0, 577.0)">G</text><text xml:space="preserve" font-family="HelveticaNeue-Light,Helvetica Neue" font-size="42.0" fill="#FEFFFE" transform="matrix(1.00, 0.00, -0.00, -1.00, 480.1, 577.0)">r</text><text xml:space="preserve" font-family="HelveticaNeue-Light,Helvetica Neue" font-size="42.0" fill="#FEFFFE" transform="matrix(1.00, 0.00, -0.00, -1.00, 493.3, 577.0)">a</text><text xml:space="preserve" font-family="HelveticaNeue-Light,Helvetica Neue" font-size="42.0" fill="#FEFFFE" transform="matrix(1.00, 0.00, -0.00, -1.00, 515.1, 577.0)">d</text><text xml:space="preserve" font-family="HelveticaNeue-Light,Helvetica Neue" font-size="42.0" fill="#FEFFFE" transform="matrix(1.00, 0.00, -0.00, -1.00, 539.2, 577.0)">e</text><text xml:space="preserve" font-family="HelveticaNeue-Light,Helvetica Neue" font-size="42.0" fill="#FEFFFE" transform="matrix(1.00, 0.00, -0.00, -1.00, 561.0, 577.0)">s</text></g></g></g></g><image xlink:href="../../E40C35FC-3424-4C3F-BA95-AF9096CEEBD1/assets/5906A9937C375024510ACE670A8F96EC.png" width="700.00" height="45.00" transform="matrix(1.00, 0.00, -0.00, -1.00, 881.0, 605.0)"></image><g><clipPath id="clip0x7fd00f416150"><path d="M 244.0 858.0 L 1676.8 858.0 L 1676.8 222.4 L 244.0 222.4 Z M 244.0 858.0 "></path></clipPath><g clip-path="url(#clip0x7fd00f416150)"><g><clipPath id="clip0x7fd00f416f50"><path d="M 786.2 541.2 L 1674.8 541.2 L 1674.8 644.8 L 786.2 644.8 Z M 786.2 541.2 "></path></clipPath><g clip-path="url(#clip0x7fd00f416f50)"><text xml:space="preserve" font-family="HelveticaNeue-Light,Helvetica Neue" font-size="42.0" fill="#FEFFFE" transform="matrix(1.00, 0.00, -0.00, -1.00, 881.2, 577.0)">P</text><text xml:space="preserve" font-family="HelveticaNeue-Light,Helvetica Neue" font-size="42.0" fill="#FEFFFE" transform="matrix(1.00, 0.00, -0.00, -1.00, 907.6, 577.0)">l</text><text xml:space="preserve" font-family="HelveticaNeue-Light,Helvetica Neue" font-size="42.0" fill="#FEFFFE" transform="matrix(1.00, 0.00, -0.00, -1.00, 915.4, 577.0)">a</text><text xml:space="preserve" font-family="HelveticaNeue-Light,Helvetica Neue" font-size="42.0" fill="#FEFFFE" transform="matrix(1.00, 0.00, -0.00, -1.00, 937.2, 577.0)">c</text><text xml:space="preserve" font-family="HelveticaNeue-Light,Helvetica Neue" font-size="42.0" fill="#FEFFFE" transform="matrix(1.00, 0.00, -0.00, -1.00, 959.0, 577.0)">e</text><text xml:space="preserve" font-family="HelveticaNeue-Light,Helvetica Neue" font-size="42.0" fill="#FEFFFE" transform="matrix(1.00, 0.00, -0.00, -1.00, 980.8, 577.0)">m</text><text xml:space="preserve" font-family="HelveticaNeue-Light,Helvetica Neue" font-size="42.0" fill="#FEFFFE" transform="matrix(1.00, 0.00, -0.00, -1.00, 1015.8, 577.0)">e</text><text xml:space="preserve" font-family="HelveticaNeue-Light,Helvetica Neue" font-size="42.0" fill="#FEFFFE" transform="matrix(1.00, 0.00, -0.00, -1.00, 1037.6, 577.0)">n</text><text xml:space="preserve" font-family="HelveticaNeue-Light,Helvetica Neue" font-size="42.0" fill="#FEFFFE" transform="matrix(1.00, 0.00, -0.00, -1.00, 1060.1, 577.0)">t</text><text xml:space="preserve" font-family="HelveticaNeue-Light,Helvetica Neue" font-size="42.0" fill="#FEFFFE" transform="matrix(1.00, 0.00, -0.00, -1.00, 1072.6, 577.0)"> </text><text xml:space="preserve" font-family="HelveticaNeue-Light,Helvetica Neue" font-size="42.0" fill="#FEFFFE" transform="matrix(1.00, 0.00, -0.00, -1.00, 1084.2, 577.0)">r</text><text xml:space="preserve" font-family="HelveticaNeue-Light,Helvetica Neue" font-size="42.0" fill="#FEFFFE" transform="matrix(1.00, 0.00, -0.00, -1.00, 1096.7, 577.0)">e</text><text xml:space="preserve" font-family="HelveticaNeue-Light,Helvetica Neue" font-size="42.0" fill="#FEFFFE" transform="matrix(1.00, 0.00, -0.00, -1.00, 1118.5, 577.0)">g</text><text xml:space="preserve" font-family="HelveticaNeue-Light,Helvetica Neue" font-size="42.0" fill="#FEFFFE" transform="matrix(1.00, 0.00, -0.00, -1.00, 1141.9, 577.0)">i</text><text xml:space="preserve" font-family="HelveticaNeue-Light,Helvetica Neue" font-size="42.0" fill="#FEFFFE" transform="matrix(1.00, 0.00, -0.00, -1.00, 1149.6, 577.0)">s</text><text xml:space="preserve" font-family="HelveticaNeue-Light,Helvetica Neue" font-size="42.0" fill="#FEFFFE" transform="matrix(1.00, 0.00, -0.00, -1.00, 1169.8, 577.0)">t</text><text xml:space="preserve" font-family="HelveticaNeue-Light,Helvetica Neue" font-size="42.0" fill="#FEFFFE" transform="matrix(1.00, 0.00, -0.00, -1.00, 1182.3, 577.0)">r</text><text xml:space="preserve" font-family="HelveticaNeue-Light,Helvetica Neue" font-size="42.0" fill="#FEFFFE" transform="matrix(1.00, 0.00, -0.00, -1.00, 1195.5, 577.0)">a</text><text xml:space="preserve" font-family="HelveticaNeue-Light,Helvetica Neue" font-size="42.0" fill="#FEFFFE" transform="matrix(1.00, 0.00, -0.00, -1.00, 1217.3, 577.0)">t</text><text xml:space="preserve" font-family="HelveticaNeue-Light,Helvetica Neue" font-size="42.0" fill="#FEFFFE" transform="matrix(1.00, 0.00, -0.00, -1.00, 1229.7, 577.0)">i</text><text xml:space="preserve" font-family="HelveticaNeue-Light,Helvetica Neue" font-size="42.0" fill="#FEFFFE" transform="matrix(1.00, 0.00, -0.00, -1.00, 1237.5, 577.0)">o</text><text xml:space="preserve" font-family="HelveticaNeue-Light,Helvetica Neue" font-size="42.0" fill="#FEFFFE" transform="matrix(1.00, 0.00, -0.00, -1.00, 1260.9, 577.0)">n</text><text xml:space="preserve" font-family="HelveticaNeue-Light,Helvetica Neue" font-size="42.0" fill="#FEFFFE" transform="matrix(1.00, 0.00, -0.00, -1.00, 1283.4, 577.0)"> </text><text xml:space="preserve" font-family="HelveticaNeue-Light,Helvetica Neue" font-size="42.0" fill="#FEFFFE" transform="matrix(1.00, 0.00, -0.00, -1.00, 1295.1, 577.0)">v</text><text xml:space="preserve" font-family="HelveticaNeue-Light,Helvetica Neue" font-size="42.0" fill="#FEFFFE" transform="matrix(1.00, 0.00, -0.00, -1.00, 1314.5, 577.0)">e</text><text xml:space="preserve" font-family="HelveticaNeue-Light,Helvetica Neue" font-size="42.0" fill="#FEFFFE" transform="matrix(1.00, 0.00, -0.00, -1.00, 1336.3, 577.0)">r</text><text xml:space="preserve" font-family="HelveticaNeue-Light,Helvetica Neue" font-size="42.0" fill="#FEFFFE" transform="matrix(1.00, 0.00, -0.00, -1.00, 1349.6, 577.0)">i</text><text xml:space="preserve" font-family="HelveticaNeue-Light,Helvetica Neue" font-size="42.0" fill="#FEFFFE" transform="matrix(1.00, 0.00, -0.00, -1.00, 1357.3, 577.0)">ï¬</text><text xml:space="preserve" font-family="HelveticaNeue-Light,Helvetica Neue" font-size="42.0" fill="#FEFFFE" transform="matrix(1.00, 0.00, -0.00, -1.00, 1376.0, 577.0)">c</text><text xml:space="preserve" font-family="HelveticaNeue-Light,Helvetica Neue" font-size="42.0" fill="#FEFFFE" transform="matrix(1.00, 0.00, -0.00, -1.00, 1397.8, 577.0)">a</text><text xml:space="preserve" font-family="HelveticaNeue-Light,Helvetica Neue" font-size="42.0" fill="#FEFFFE" transform="matrix(1.00, 0.00, -0.00, -1.00, 1419.6, 577.0)">t</text><text xml:space="preserve" font-family="HelveticaNeue-Light,Helvetica Neue" font-size="42.0" fill="#FEFFFE" transform="matrix(1.00, 0.00, -0.00, -1.00, 1432.0, 577.0)">i</text><text xml:space="preserve" font-family="HelveticaNeue-Light,Helvetica Neue" font-size="42.0" fill="#FEFFFE" transform="matrix(1.00, 0.00, -0.00, -1.00, 1439.8, 577.0)">o</text><text xml:space="preserve" font-family="HelveticaNeue-Light,Helvetica Neue" font-size="42.0" fill="#FEFFFE" transform="matrix(1.00, 0.00, -0.00, -1.00, 1463.1, 577.0)">n</text><text xml:space="preserve" font-family="HelveticaNeue-Light,Helvetica Neue" font-size="42.0" fill="#FEFFFE" transform="matrix(1.00, 0.00, -0.00, -1.00, 1485.7, 577.0)"> </text><text xml:space="preserve" font-family="HelveticaNeue-Light,Helvetica Neue" font-size="42.0" fill="#FEFFFE" transform="matrix(1.00, 0.00, -0.00, -1.00, 1497.4, 577.0)">f</text><text xml:space="preserve" font-family="HelveticaNeue-Light,Helvetica Neue" font-size="42.0" fill="#FEFFFE" transform="matrix(1.00, 0.00, -0.00, -1.00, 1508.2, 577.0)">o</text><text xml:space="preserve" font-family="HelveticaNeue-Light,Helvetica Neue" font-size="42.0" fill="#FEFFFE" transform="matrix(1.00, 0.00, -0.00, -1.00, 1531.6, 577.0)">r</text><text xml:space="preserve" font-family="HelveticaNeue-Light,Helvetica Neue" font-size="42.0" fill="#FEFFFE" transform="matrix(1.00, 0.00, -0.00, -1.00, 1544.8, 577.0)">m</text></g></g></g></g><image xlink:href="../../E40C35FC-3424-4C3F-BA95-AF9096CEEBD1/assets/B6B919F621EDF07D7DEC4E5C0A1126E7.png" width="161.00" height="46.00" transform="matrix(1.00, 0.00, -0.00, -1.00, 436.0, 500.0)"></image><g><clipPath id="clip0x7fd00f428f10"><path d="M 244.0 858.0 L 1676.8 858.0 L 1676.8 222.4 L 244.0 222.4 Z M 244.0 858.0 "></path></clipPath><g clip-path="url(#clip0x7fd00f428f10)"><g><clipPath id="clip0x7fd00f427ae0"><path d="M 246.0 435.6 L 784.2 435.6 L 784.2 539.2 L 246.0 539.2 Z M 246.0 435.6 "></path></clipPath><g clip-path="url(#clip0x7fd00f427ae0)"><text xml:space="preserve" font-family="HelveticaNeue-Light,Helvetica Neue" font-size="42.0" fill="#FEFFFE" transform="matrix(1.00, 0.00, -0.00, -1.00, 436.1, 471.4)">P</text><text xml:space="preserve" font-family="HelveticaNeue-Light,Helvetica Neue" font-size="42.0" fill="#FEFFFE" transform="matrix(1.00, 0.00, -0.00, -1.00, 462.6, 471.4)">a</text><text xml:space="preserve" font-family="HelveticaNeue-Light,Helvetica Neue" font-size="42.0" fill="#FEFFFE" transform="matrix(1.00, 0.00, -0.00, -1.00, 484.4, 471.4)">c</text><text xml:space="preserve" font-family="HelveticaNeue-Light,Helvetica Neue" font-size="42.0" fill="#FEFFFE" transform="matrix(1.00, 0.00, -0.00, -1.00, 506.2, 471.4)">k</text><text xml:space="preserve" font-family="HelveticaNeue-Light,Helvetica Neue" font-size="42.0" fill="#FEFFFE" transform="matrix(1.00, 0.00, -0.00, -1.00, 527.2, 471.4)">a</text><text xml:space="preserve" font-family="HelveticaNeue-Light,Helvetica Neue" font-size="42.0" fill="#FEFFFE" transform="matrix(1.00, 0.00, -0.00, -1.00, 549.0, 471.4)">g</text><text xml:space="preserve" font-family="HelveticaNeue-Light,Helvetica Neue" font-size="42.0" fill="#FEFFFE" transform="matrix(1.00, 0.00, -0.00, -1.00, 572.3, 471.4)">e</text></g></g></g></g><image xlink:href="../../E40C35FC-3424-4C3F-BA95-AF9096CEEBD1/assets/F20EC95DE3EFF6A55D29CCAF2284BEAA.png" width="309.00" height="45.00" transform="matrix(1.00, 0.00, -0.00, -1.00, 1076.0, 500.0)"></image><g><clipPath id="clip0x7fd00f42d320"><path d="M 244.0 858.0 L 1676.8 858.0 L 1676.8 222.4 L 244.0 222.4 Z M 244.0 858.0 "></path></clipPath><g clip-path="url(#clip0x7fd00f42d320)"><g><clipPath id="clip0x7fd00f42e0f0"><path d="M 786.2 435.6 L 1674.8 435.6 L 1674.8 539.2 L 786.2 539.2 Z M 786.2 435.6 "></path></clipPath><g clip-path="url(#clip0x7fd00f42e0f0)"><text xml:space="preserve" font-family="HelveticaNeue-Light,Helvetica Neue" font-size="42.0" fill="#FEFFFE" transform="matrix(1.00, 0.00, -0.00, -1.00, 1078.4, 471.4)">J</text><text xml:space="preserve" font-family="HelveticaNeue-Light,Helvetica Neue" font-size="42.0" fill="#FEFFFE" transform="matrix(1.00, 0.00, -0.00, -1.00, 1099.4, 471.4)">o</text><text xml:space="preserve" font-family="HelveticaNeue-Light,Helvetica Neue" font-size="42.0" fill="#FEFFFE" transform="matrix(1.00, 0.00, -0.00, -1.00, 1122.8, 471.4)">b</text><text xml:space="preserve" font-family="HelveticaNeue-Light,Helvetica Neue" font-size="42.0" fill="#FEFFFE" transform="matrix(1.00, 0.00, -0.00, -1.00, 1146.9, 471.4)"> </text><text xml:space="preserve" font-family="HelveticaNeue-Light,Helvetica Neue" font-size="42.0" fill="#FEFFFE" transform="matrix(1.00, 0.00, -0.00, -1.00, 1158.6, 471.4)">D</text><text xml:space="preserve" font-family="HelveticaNeue-Light,Helvetica Neue" font-size="42.0" fill="#FEFFFE" transform="matrix(1.00, 0.00, -0.00, -1.00, 1187.3, 471.4)">e</text><text xml:space="preserve" font-family="HelveticaNeue-Light,Helvetica Neue" font-size="42.0" fill="#FEFFFE" transform="matrix(1.00, 0.00, -0.00, -1.00, 1209.1, 471.4)">s</text><text xml:space="preserve" font-family="HelveticaNeue-Light,Helvetica Neue" font-size="42.0" fill="#FEFFFE" transform="matrix(1.00, 0.00, -0.00, -1.00, 1229.3, 471.4)">c</text><text xml:space="preserve" font-family="HelveticaNeue-Light,Helvetica Neue" font-size="42.0" fill="#FEFFFE" transform="matrix(1.00, 0.00, -0.00, -1.00, 1251.1, 471.4)">r</text><text xml:space="preserve" font-family="HelveticaNeue-Light,Helvetica Neue" font-size="42.0" fill="#FEFFFE" transform="matrix(1.00, 0.00, -0.00, -1.00, 1264.4, 471.4)">i</text><text xml:space="preserve" font-family="HelveticaNeue-Light,Helvetica Neue" font-size="42.0" fill="#FEFFFE" transform="matrix(1.00, 0.00, -0.00, -1.00, 1272.1, 471.4)">p</text><text xml:space="preserve" font-family="HelveticaNeue-Light,Helvetica Neue" font-size="42.0" fill="#FEFFFE" transform="matrix(1.00, 0.00, -0.00, -1.00, 1296.2, 471.4)">t</text><text xml:space="preserve" font-family="HelveticaNeue-Light,Helvetica Neue" font-size="42.0" fill="#FEFFFE" transform="matrix(1.00, 0.00, -0.00, -1.00, 1308.7, 471.4)">i</text><text xml:space="preserve" font-family="HelveticaNeue-Light,Helvetica Neue" font-size="42.0" fill="#FEFFFE" transform="matrix(1.00, 0.00, -0.00, -1.00, 1316.4, 471.4)">o</text><text xml:space="preserve" font-family="HelveticaNeue-Light,Helvetica Neue" font-size="42.0" fill="#FEFFFE" transform="matrix(1.00, 0.00, -0.00, -1.00, 1339.8, 471.4)">n</text><text xml:space="preserve" font-family="HelveticaNeue-Light,Helvetica Neue" font-size="42.0" fill="#FEFFFE" transform="matrix(1.00, 0.00, -0.00, -1.00, 1362.3, 471.4)">s</text><text xml:space="preserve" font-family="HelveticaNeue-Light,Helvetica Neue" font-size="42.0" fill="#FEFFFE" transform="matrix(1.00, 0.00, -0.00, -1.00, 1382.6, 471.4)"> </text></g></g></g></g><image xlink:href="../../E40C35FC-3424-4C3F-BA95-AF9096CEEBD1/assets/C9F8056DBB61F2BB18FB97B55C186164.png" width="267.00" height="38.00" transform="matrix(1.00, 0.00, -0.00, -1.00, 382.0, 395.0)"></image><g><clipPath id="clip0x7fd00f436670"><path d="M 244.0 858.0 L 1676.8 858.0 L 1676.8 222.4 L 244.0 222.4 Z M 244.0 858.0 "></path></clipPath><g clip-path="url(#clip0x7fd00f436670)"><g><clipPath id="clip0x7fd00f437440"><path d="M 246.0 330.0 L 784.2 330.0 L 784.2 433.6 L 246.0 433.6 Z M 246.0 330.0 "></path></clipPath><g clip-path="url(#clip0x7fd00f437440)"><text xml:space="preserve" font-family="HelveticaNeue-Light,Helvetica Neue" font-size="42.0" fill="#FEFFFE" transform="matrix(1.00, 0.00, -0.00, -1.00, 383.6, 365.8)">C</text><text xml:space="preserve" font-family="HelveticaNeue-Light,Helvetica Neue" font-size="42.0" fill="#FEFFFE" transform="matrix(1.00, 0.00, -0.00, -1.00, 413.2, 365.8)">o</text><text xml:space="preserve" font-family="HelveticaNeue-Light,Helvetica Neue" font-size="42.0" fill="#FEFFFE" transform="matrix(1.00, 0.00, -0.00, -1.00, 436.6, 365.8)">u</text><text xml:space="preserve" font-family="HelveticaNeue-Light,Helvetica Neue" font-size="42.0" fill="#FEFFFE" transform="matrix(1.00, 0.00, -0.00, -1.00, 459.1, 365.8)">r</text><text xml:space="preserve" font-family="HelveticaNeue-Light,Helvetica Neue" font-size="42.0" fill="#FEFFFE" transform="matrix(1.00, 0.00, -0.00, -1.00, 472.3, 365.8)">s</text><text xml:space="preserve" font-family="HelveticaNeue-Light,Helvetica Neue" font-size="42.0" fill="#FEFFFE" transform="matrix(1.00, 0.00, -0.00, -1.00, 492.5, 365.8)">e</text><text xml:space="preserve" font-family="HelveticaNeue-Light,Helvetica Neue" font-size="42.0" fill="#FEFFFE" transform="matrix(1.00, 0.00, -0.00, -1.00, 514.3, 365.8)"> </text><text xml:space="preserve" font-family="HelveticaNeue-Light,Helvetica Neue" font-size="42.0" fill="#FEFFFE" transform="matrix(1.00, 0.00, -0.00, -1.00, 526.0, 365.8)">D</text><text xml:space="preserve" font-family="HelveticaNeue-Light,Helvetica Neue" font-size="42.0" fill="#FEFFFE" transform="matrix(1.00, 0.00, -0.00, -1.00, 554.8, 365.8)">e</text><text xml:space="preserve" font-family="HelveticaNeue-Light,Helvetica Neue" font-size="42.0" fill="#FEFFFE" transform="matrix(1.00, 0.00, -0.00, -1.00, 576.6, 365.8)">t</text><text xml:space="preserve" font-family="HelveticaNeue-Light,Helvetica Neue" font-size="42.0" fill="#FEFFFE" transform="matrix(1.00, 0.00, -0.00, -1.00, 589.0, 365.8)">a</text><text xml:space="preserve" font-family="HelveticaNeue-Light,Helvetica Neue" font-size="42.0" fill="#FEFFFE" transform="matrix(1.00, 0.00, -0.00, -1.00, 610.8, 365.8)">i</text><text xml:space="preserve" font-family="HelveticaNeue-Light,Helvetica Neue" font-size="42.0" fill="#FEFFFE" transform="matrix(1.00, 0.00, -0.00, -1.00, 618.6, 365.8)">l</text><text xml:space="preserve" font-family="HelveticaNeue-Light,Helvetica Neue" font-size="42.0" fill="#FEFFFE" transform="matrix(1.00, 0.00, -0.00, -1.00, 626.4, 365.8)">s</text></g></g></g></g><image xlink:href="../../E40C35FC-3424-4C3F-BA95-AF9096CEEBD1/assets/14FE5DB0B23FF2812376EAE63F5723E0.png" width="86.00" height="38.00" transform="matrix(1.00, 0.00, -0.00, -1.00, 1188.0, 395.0)"></image><g><clipPath id="clip0x7fd00f43e4b0"><path d="M 244.0 858.0 L 1676.8 858.0 L 1676.8 222.4 L 244.0 222.4 Z M 244.0 858.0 "></path></clipPath><g clip-path="url(#clip0x7fd00f43e4b0)"><g><clipPath id="clip0x7fd00f43f540"><path d="M 786.2 330.0 L 1674.8 330.0 L 1674.8 433.6 L 786.2 433.6 Z M 786.2 330.0 "></path></clipPath><g clip-path="url(#clip0x7fd00f43f540)"><text xml:space="preserve" font-family="HelveticaNeue-Light,Helvetica Neue" font-size="42.0" fill="#FEFFFE" transform="matrix(1.00, 0.00, -0.00, -1.00, 1188.7, 365.8)">L</text><text xml:space="preserve" font-family="HelveticaNeue-Light,Helvetica Neue" font-size="42.0" fill="#FEFFFE" transform="matrix(1.00, 0.00, -0.00, -1.00, 1211.3, 365.8)">M</text><text xml:space="preserve" font-family="HelveticaNeue-Light,Helvetica Neue" font-size="42.0" fill="#FEFFFE" transform="matrix(1.00, 0.00, -0.00, -1.00, 1245.8, 365.8)">S</text></g></g></g></g><image xlink:href="../../E40C35FC-3424-4C3F-BA95-AF9096CEEBD1/assets/F8B43C871D347561332A3ADCE67ABB28.png" width="338.00" height="38.00" transform="matrix(1.00, 0.00, -0.00, -1.00, 347.0, 289.0)"></image><g><clipPath id="clip0x7fd00f442350"><path d="M 244.0 858.0 L 1676.8 858.0 L 1676.8 222.4 L 244.0 222.4 Z M 244.0 858.0 "></path></clipPath><g clip-path="url(#clip0x7fd00f442350)"><g><clipPath id="clip0x7fd00f443120"><path d="M 246.0 224.4 L 784.2 224.4 L 784.2 328.0 L 246.0 328.0 Z M 246.0 224.4 "></path></clipPath><g clip-path="url(#clip0x7fd00f443120)"><text xml:space="preserve" font-family="HelveticaNeue-Light,Helvetica Neue" font-size="42.0" fill="#FEFFFE" transform="matrix(1.00, 0.00, -0.00, -1.00, 347.1, 260.2)">P</text><text xml:space="preserve" font-family="HelveticaNeue-Light,Helvetica Neue" font-size="42.0" fill="#FEFFFE" transform="matrix(1.00, 0.00, -0.00, -1.00, 373.5, 260.2)">l</text><text xml:space="preserve" font-family="HelveticaNeue-Light,Helvetica Neue" font-size="42.0" fill="#FEFFFE" transform="matrix(1.00, 0.00, -0.00, -1.00, 381.3, 260.2)">a</text><text xml:space="preserve" font-family="HelveticaNeue-Light,Helvetica Neue" font-size="42.0" fill="#FEFFFE" transform="matrix(1.00, 0.00, -0.00, -1.00, 403.1, 260.2)">c</text><text xml:space="preserve" font-family="HelveticaNeue-Light,Helvetica Neue" font-size="42.0" fill="#FEFFFE" transform="matrix(1.00, 0.00, -0.00, -1.00, 424.9, 260.2)">e</text><text xml:space="preserve" font-family="HelveticaNeue-Light,Helvetica Neue" font-size="42.0" fill="#FEFFFE" transform="matrix(1.00, 0.00, -0.00, -1.00, 446.7, 260.2)">m</text><text xml:space="preserve" font-family="HelveticaNeue-Light,Helvetica Neue" font-size="42.0" fill="#FEFFFE" transform="matrix(1.00, 0.00, -0.00, -1.00, 481.7, 260.2)">e</text><text xml:space="preserve" font-family="HelveticaNeue-Light,Helvetica Neue" font-size="42.0" fill="#FEFFFE" transform="matrix(1.00, 0.00, -0.00, -1.00, 503.5, 260.2)">n</text><text xml:space="preserve" font-family="HelveticaNeue-Light,Helvetica Neue" font-size="42.0" fill="#FEFFFE" transform="matrix(1.00, 0.00, -0.00, -1.00, 526.0, 260.2)">t</text><text xml:space="preserve" font-family="HelveticaNeue-Light,Helvetica Neue" font-size="42.0" fill="#FEFFFE" transform="matrix(1.00, 0.00, -0.00, -1.00, 538.5, 260.2)"> </text><text xml:space="preserve" font-family="HelveticaNeue-Light,Helvetica Neue" font-size="42.0" fill="#FEFFFE" transform="matrix(1.00, 0.00, -0.00, -1.00, 550.2, 260.2)">R</text><text xml:space="preserve" font-family="HelveticaNeue-Light,Helvetica Neue" font-size="42.0" fill="#FEFFFE" transform="matrix(1.00, 0.00, -0.00, -1.00, 578.2, 260.2)">e</text><text xml:space="preserve" font-family="HelveticaNeue-Light,Helvetica Neue" font-size="42.0" fill="#FEFFFE" transform="matrix(1.00, 0.00, -0.00, -1.00, 600.0, 260.2)">s</text><text xml:space="preserve" font-family="HelveticaNeue-Light,Helvetica Neue" font-size="42.0" fill="#FEFFFE" transform="matrix(1.00, 0.00, -0.00, -1.00, 620.2, 260.2)">u</text><text xml:space="preserve" font-family="HelveticaNeue-Light,Helvetica Neue" font-size="42.0" fill="#FEFFFE" transform="matrix(1.00, 0.00, -0.00, -1.00, 642.7, 260.2)">l</text><text xml:space="preserve" font-family="HelveticaNeue-Light,Helvetica Neue" font-size="42.0" fill="#FEFFFE" transform="matrix(1.00, 0.00, -0.00, -1.00, 650.5, 260.2)">t</text><text xml:space="preserve" font-family="HelveticaNeue-Light,Helvetica Neue" font-size="42.0" fill="#FEFFFE" transform="matrix(1.00, 0.00, -0.00, -1.00, 662.9, 260.2)">s</text></g></g></g></g><image xlink:href="../../E40C35FC-3424-4C3F-BA95-AF9096CEEBD1/assets/CCEDFAEEE16DE81587DDB063A979935B.png" width="596.00" height="38.00" transform="matrix(1.00, 0.00, -0.00, -1.00, 933.0, 289.0)"></image><g><clipPath id="clip0x7fd00f37ff40"><path d="M 244.0 858.0 L 1676.8 858.0 L 1676.8 222.4 L 244.0 222.4 Z M 244.0 858.0 "></path></clipPath><g clip-path="url(#clip0x7fd00f37ff40)"><g><clipPath id="clip0x7fd00f380f90"><path d="M 786.2 224.4 L 1674.8 224.4 L 1674.8 328.0 L 786.2 328.0 Z M 786.2 224.4 "></path></clipPath><g clip-path="url(#clip0x7fd00f380f90)"><text xml:space="preserve" font-family="HelveticaNeue-Light,Helvetica Neue" font-size="42.0" fill="#FEFFFE" transform="matrix(1.00, 0.00, -0.00, -1.00, 933.7, 260.2)">F</text><text xml:space="preserve" font-family="HelveticaNeue-Light,Helvetica Neue" font-size="42.0" fill="#FEFFFE" transform="matrix(1.00, 0.00, -0.00, -1.00, 956.3, 260.2)">a</text><text xml:space="preserve" font-family="HelveticaNeue-Light,Helvetica Neue" font-size="42.0" fill="#FEFFFE" transform="matrix(1.00, 0.00, -0.00, -1.00, 978.0, 260.2)">c</text><text xml:space="preserve" font-family="HelveticaNeue-Light,Helvetica Neue" font-size="42.0" fill="#FEFFFE" transform="matrix(1.00, 0.00, -0.00, -1.00, 999.8, 260.2)">e</text><text xml:space="preserve" font-family="HelveticaNeue-Light,Helvetica Neue" font-size="42.0" fill="#FEFFFE" transform="matrix(1.00, 0.00, -0.00, -1.00, 1021.6, 260.2)">b</text><text xml:space="preserve" font-family="HelveticaNeue-Light,Helvetica Neue" font-size="42.0" fill="#FEFFFE" transform="matrix(1.00, 0.00, -0.00, -1.00, 1045.8, 260.2)">o</text><text xml:space="preserve" font-family="HelveticaNeue-Light,Helvetica Neue" font-size="42.0" fill="#FEFFFE" transform="matrix(1.00, 0.00, -0.00, -1.00, 1069.1, 260.2)">o</text><text xml:space="preserve" font-family="HelveticaNeue-Light,Helvetica Neue" font-size="42.0" fill="#FEFFFE" transform="matrix(1.00, 0.00, -0.00, -1.00, 1092.5, 260.2)">k</text><text xml:space="preserve" font-family="HelveticaNeue-Light,Helvetica Neue" font-size="42.0" fill="#FEFFFE" transform="matrix(1.00, 0.00, -0.00, -1.00, 1113.5, 260.2)">/</text><text xml:space="preserve" font-family="HelveticaNeue-Light,Helvetica Neue" font-size="42.0" fill="#FEFFFE" transform="matrix(1.00, 0.00, -0.00, -1.00, 1127.4, 260.2)">E</text><text xml:space="preserve" font-family="HelveticaNeue-Light,Helvetica Neue" font-size="42.0" fill="#FEFFFE" transform="matrix(1.00, 0.00, -0.00, -1.00, 1152.3, 260.2)">m</text><text xml:space="preserve" font-family="HelveticaNeue-Light,Helvetica Neue" font-size="42.0" fill="#FEFFFE" transform="matrix(1.00, 0.00, -0.00, -1.00, 1187.3, 260.2)">a</text><text xml:space="preserve" font-family="HelveticaNeue-Light,Helvetica Neue" font-size="42.0" fill="#FEFFFE" transform="matrix(1.00, 0.00, -0.00, -1.00, 1209.1, 260.2)">i</text><text xml:space="preserve" font-family="HelveticaNeue-Light,Helvetica Neue" font-size="42.0" fill="#FEFFFE" transform="matrix(1.00, 0.00, -0.00, -1.00, 1216.9, 260.2)">l</text><text xml:space="preserve" font-family="HelveticaNeue-Light,Helvetica Neue" font-size="42.0" fill="#FEFFFE" transform="matrix(1.00, 0.00, -0.00, -1.00, 1224.7, 260.2)"> </text><text xml:space="preserve" font-family="HelveticaNeue-Light,Helvetica Neue" font-size="42.0" fill="#FEFFFE" transform="matrix(1.00, 0.00, -0.00, -1.00, 1236.3, 260.2)">a</text><text xml:space="preserve" font-family="HelveticaNeue-Light,Helvetica Neue" font-size="42.0" fill="#FEFFFE" transform="matrix(1.00, 0.00, -0.00, -1.00, 1258.1, 260.2)">n</text><text xml:space="preserve" font-family="HelveticaNeue-Light,Helvetica Neue" font-size="42.0" fill="#FEFFFE" transform="matrix(1.00, 0.00, -0.00, -1.00, 1280.7, 260.2)">n</text><text xml:space="preserve" font-family="HelveticaNeue-Light,Helvetica Neue" font-size="42.0" fill="#FEFFFE" transform="matrix(1.00, 0.00, -0.00, -1.00, 1303.3, 260.2)">o</text><text xml:space="preserve" font-family="HelveticaNeue-Light,Helvetica Neue" font-size="42.0" fill="#FEFFFE" transform="matrix(1.00, 0.00, -0.00, -1.00, 1326.6, 260.2)">u</text><text xml:space="preserve" font-family="HelveticaNeue-Light,Helvetica Neue" font-size="42.0" fill="#FEFFFE" transform="matrix(1.00, 0.00, -0.00, -1.00, 1349.2, 260.2)">n</text><text xml:space="preserve" font-family="HelveticaNeue-Light,Helvetica Neue" font-size="42.0" fill="#FEFFFE" transform="matrix(1.00, 0.00, -0.00, -1.00, 1371.7, 260.2)">c</text><text xml:space="preserve" font-family="HelveticaNeue-Light,Helvetica Neue" font-size="42.0" fill="#FEFFFE" transform="matrix(1.00, 0.00, -0.00, -1.00, 1393.5, 260.2)">e</text><text xml:space="preserve" font-family="HelveticaNeue-Light,Helvetica Neue" font-size="42.0" fill="#FEFFFE" transform="matrix(1.00, 0.00, -0.00, -1.00, 1415.3, 260.2)">m</text><text xml:space="preserve" font-family="HelveticaNeue-Light,Helvetica Neue" font-size="42.0" fill="#FEFFFE" transform="matrix(1.00, 0.00, -0.00, -1.00, 1450.3, 260.2)">e</text><text xml:space="preserve" font-family="HelveticaNeue-Light,Helvetica Neue" font-size="42.0" fill="#FEFFFE" transform="matrix(1.00, 0.00, -0.00, -1.00, 1472.1, 260.2)">n</text><text xml:space="preserve" font-family="HelveticaNeue-Light,Helvetica Neue" font-size="42.0" fill="#FEFFFE" transform="matrix(1.00, 0.00, -0.00, -1.00, 1494.6, 260.2)">t</text><text xml:space="preserve" font-family="HelveticaNeue-Light,Helvetica Neue" font-size="42.0" fill="#FEFFFE" transform="matrix(1.00, 0.00, -0.00, -1.00, 1507.1, 260.2)">s</text></g></g></g></g><g><clipPath id="clip0x7fd00f38cb70"><path d="M 244.0 858.0 L 1676.8 858.0 L 1676.8 222.4 L 244.0 222.4 Z M 244.0 858.0 "></path></clipPath><g clip-path="url(#clip0x7fd00f38cb70)"><path d="M 542.2 1.0 L 542.2 107.6 " fill="none" stroke="#000000" stroke-opacity="0.00" stroke-width="2.00" transform="matrix(1.00, 0.00, 0.00, -1.00, 243.0, 859.0)"></path><path d="M 542.2 107.6 L 542.2 636.6 " fill="none" stroke="#000000" stroke-opacity="0.00" stroke-width="2.00" transform="matrix(1.00, 0.00, 0.00, -1.00, 243.0, 859.0)"></path><path d="M 1.0 213.2 L 1433.8 213.2 " fill="none" stroke="#000000" stroke-opacity="0.00" stroke-width="2.00" transform="matrix(1.00, 0.00, 0.00, -1.00, 243.0, 859.0)"></path><path d="M 1.0 318.8 L 1433.8 318.8 " fill="none" stroke="#000000" stroke-opacity="0.00" stroke-width="2.00" transform="matrix(1.00, 0.00, 0.00, -1.00, 243.0, 859.0)"></path><path d="M 1.0 424.4 L 1433.8 424.4 " fill="none" stroke="#000000" stroke-opacity="0.00" stroke-width="2.00" transform="matrix(1.00, 0.00, 0.00, -1.00, 243.0, 859.0)"></path><path d="M 1.0 530.0 L 1433.8 530.0 " fill="none" stroke="#000000" stroke-opacity="0.00" stroke-width="2.00" transform="matrix(1.00, 0.00, 0.00, -1.00, 243.0, 859.0)"></path><path d="M 1.0 107.6 L 1433.8 107.6 " fill="none" stroke="#000000" stroke-opacity="0.00" stroke-width="2.00" transform="matrix(1.00, 0.00, 0.00, -1.00, 243.0, 859.0)"></path></g></g><image xlink:href="../../E40C35FC-3424-4C3F-BA95-AF9096CEEBD1/assets/76EFAC1EE42AA01BCE69FFE504BEE679.png" width="469.00" height="62.00" transform="matrix(1.00, 0.00, -0.00, -1.00, 701.0, 985.0)"></image><text xml:space="preserve" font-family="HelveticaNeue-Light,Helvetica Neue" font-size="58.0" fill="#FEFFFE" transform="matrix(1.00, 0.00, -0.00, -1.00, 701.8, 942.2)">H</text><text xml:space="preserve" font-family="HelveticaNeue-Light,Helvetica Neue" font-size="58.0" fill="#FEFFFE" transform="matrix(1.00, 0.00, -0.00, -1.00, 742.6, 942.2)">o</text><text xml:space="preserve" font-family="HelveticaNeue-Light,Helvetica Neue" font-size="58.0" fill="#FEFFFE" transform="matrix(1.00, 0.00, -0.00, -1.00, 774.9, 942.2)">w</text><text xml:space="preserve" font-family="HelveticaNeue-Light,Helvetica Neue" font-size="58.0" fill="#FEFFFE" transform="matrix(1.00, 0.00, -0.00, -1.00, 817.8, 942.2)"> </text><text xml:space="preserve" font-family="HelveticaNeue-Light,Helvetica Neue" font-size="58.0" fill="#FEFFFE" transform="matrix(1.00, 0.00, -0.00, -1.00, 834.0, 942.2)">I</text><text xml:space="preserve" font-family="HelveticaNeue-Light,Helvetica Neue" font-size="58.0" fill="#FEFFFE" transform="matrix(1.00, 0.00, -0.00, -1.00, 846.8, 942.2)"> </text><text xml:space="preserve" font-family="HelveticaNeue-Light,Helvetica Neue" font-size="58.0" fill="#FEFFFE" transform="matrix(1.00, 0.00, -0.00, -1.00, 863.0, 942.2)">g</text><text xml:space="preserve" font-family="HelveticaNeue-Light,Helvetica Neue" font-size="58.0" fill="#FEFFFE" transform="matrix(1.00, 0.00, -0.00, -1.00, 895.2, 942.2)">o</text><text xml:space="preserve" font-family="HelveticaNeue-Light,Helvetica Neue" font-size="58.0" fill="#FEFFFE" transform="matrix(1.00, 0.00, -0.00, -1.00, 927.5, 942.2)">t</text><text xml:space="preserve" font-family="HelveticaNeue-Light,Helvetica Neue" font-size="58.0" fill="#FEFFFE" transform="matrix(1.00, 0.00, -0.00, -1.00, 944.6, 942.2)"> </text><text xml:space="preserve" font-family="HelveticaNeue-Light,Helvetica Neue" font-size="58.0" fill="#FEFFFE" transform="matrix(1.00, 0.00, -0.00, -1.00, 960.8, 942.2)">t</text><text xml:space="preserve" font-family="HelveticaNeue-Light,Helvetica Neue" font-size="58.0" fill="#FEFFFE" transform="matrix(1.00, 0.00, -0.00, -1.00, 977.9, 942.2)">h</text><text xml:space="preserve" font-family="HelveticaNeue-Light,Helvetica Neue" font-size="58.0" fill="#FEFFFE" transform="matrix(1.00, 0.00, -0.00, -1.00, 1009.1, 942.2)">e</text><text xml:space="preserve" font-family="HelveticaNeue-Light,Helvetica Neue" font-size="58.0" fill="#FEFFFE" transform="matrix(1.00, 0.00, -0.00, -1.00, 1039.2, 942.2)"> </text><text xml:space="preserve" font-family="HelveticaNeue-Light,Helvetica Neue" font-size="58.0" fill="#FEFFFE" transform="matrix(1.00, 0.00, -0.00, -1.00, 1055.3, 942.2)">d</text><text xml:space="preserve" font-family="HelveticaNeue-Light,Helvetica Neue" font-size="58.0" fill="#FEFFFE" transform="matrix(1.00, 0.00, -0.00, -1.00, 1088.6, 942.2)">a</text><text xml:space="preserve" font-family="HelveticaNeue-Light,Helvetica Neue" font-size="58.0" fill="#FEFFFE" transform="matrix(1.00, 0.00, -0.00, -1.00, 1118.7, 942.2)">t</text><text xml:space="preserve" font-family="HelveticaNeue-Light,Helvetica Neue" font-size="58.0" fill="#FEFFFE" transform="matrix(1.00, 0.00, -0.00, -1.00, 1135.9, 942.2)">a</text><image xlink:href="../../E40C35FC-3424-4C3F-BA95-AF9096CEEBD1/assets/689D53259E33054E59C602FBF421FE26.png" width="187.00" height="29.00" transform="matrix(1.00, 0.00, -0.00, -1.00, 1692.0, 72.0)"></image><text xml:space="preserve" font-family="HelveticaNeue-Light,Helvetica Neue" font-size="22.0" fill="#FEFFFE" transform="matrix(1.00, 0.00, -0.00, -1.00, 1695.3, 54.8)">@</text><text xml:space="preserve" font-family="HelveticaNeue-Light,Helvetica Neue" font-size="22.0" fill="#FEFFFE" transform="matrix(1.00, 0.00, -0.00, -1.00, 1712.9, 54.8)">A</text><text xml:space="preserve" font-family="HelveticaNeue-Light,Helvetica Neue" font-size="22.0" fill="#FEFFFE" transform="matrix(1.00, 0.00, -0.00, -1.00, 1726.7, 54.8)">r</text><text xml:space="preserve" font-family="HelveticaNeue-Light,Helvetica Neue" font-size="22.0" fill="#FEFFFE" transform="matrix(1.00, 0.00, -0.00, -1.00, 1733.7, 54.8)">j</text><text xml:space="preserve" font-family="HelveticaNeue-Light,Helvetica Neue" font-size="22.0" fill="#FEFFFE" transform="matrix(1.00, 0.00, -0.00, -1.00, 1737.7, 54.8)">u</text><text xml:space="preserve" font-family="HelveticaNeue-Light,Helvetica Neue" font-size="22.0" fill="#FEFFFE" transform="matrix(1.00, 0.00, -0.00, -1.00, 1749.5, 54.8)">n</text><text xml:space="preserve" font-family="HelveticaNeue-Light,Helvetica Neue" font-size="22.0" fill="#FEFFFE" transform="matrix(1.00, 0.00, -0.00, -1.00, 1761.4, 54.8)">S</text><text xml:space="preserve" font-family="HelveticaNeue-Light,Helvetica Neue" font-size="22.0" fill="#FEFFFE" transform="matrix(1.00, 0.00, -0.00, -1.00, 1775.2, 54.8)">B</text><text xml:space="preserve" font-family="HelveticaNeue-Light,Helvetica Neue" font-size="22.0" fill="#FEFFFE" transform="matrix(1.00, 0.00, -0.00, -1.00, 1789.9, 54.8)">h</text><text xml:space="preserve" font-family="HelveticaNeue-Light,Helvetica Neue" font-size="22.0" fill="#FEFFFE" transform="matrix(1.00, 0.00, -0.00, -1.00, 1801.7, 54.8)">a</text><text xml:space="preserve" font-family="HelveticaNeue-Light,Helvetica Neue" font-size="22.0" fill="#FEFFFE" transform="matrix(1.00, 0.00, -0.00, -1.00, 1813.1, 54.8)">r</text><text xml:space="preserve" font-family="HelveticaNeue-Light,Helvetica Neue" font-size="22.0" fill="#FEFFFE" transform="matrix(1.00, 0.00, -0.00, -1.00, 1820.1, 54.8)">a</text><text xml:space="preserve" font-family="HelveticaNeue-Light,Helvetica Neue" font-size="22.0" fill="#FEFFFE" transform="matrix(1.00, 0.00, -0.00, -1.00, 1831.5, 54.8)">d</text><text xml:space="preserve" font-family="HelveticaNeue-Light,Helvetica Neue" font-size="22.0" fill="#FEFFFE" transform="matrix(1.00, 0.00, -0.00, -1.00, 1844.1, 54.8)">w</text><text xml:space="preserve" font-family="HelveticaNeue-Light,Helvetica Neue" font-size="22.0" fill="#FEFFFE" transform="matrix(1.00, 0.00, -0.00, -1.00, 1860.4, 54.8)">a</text><text xml:space="preserve" font-family="HelveticaNeue-Light,Helvetica Neue" font-size="22.0" fill="#FEFFFE" transform="matrix(1.00, 0.00, -0.00, -1.00, 1871.8, 54.8)">j</text></g></svg>