<?xml version="1.0" encoding="UTF-8" standalone="no"?><svg xmlns="http://www.w3.org/2000/svg" xmlns:xlink="http://www.w3.org/1999/xlink" clip-rule="evenodd" stroke-miterlimit="10" viewBox="0 0 1920 1080"><desc>SVG generated by Keynote</desc><defs></defs><g transform="matrix(1.00, 0.00, -0.00, -1.00, 0.0, 1080.0)"><g><clipPath id="clip0x7fd00ae07260"><path d="M 0.0 1080.0 L 1920.0 1080.0 L 1920.0 0.0 L 0.0 0.0 Z M 0.0 1080.0 "></path></clipPath><g clip-path="url(#clip0x7fd00ae07260)"><image xlink:href="../../2E921865-8DBC-4D3A-991F-A6C70785B1CF/assets/7D0D479F0D8AC86C9E875656D9072873.jpeg" width="2048.00" height="1536.00" transform="matrix(0.94, 0.00, -0.00, -0.70, 0.0, 1080.0)"></image></g></g><g><clipPath id="clip0x7fd00ae0b550"><path d="M 272.0 899.0 L 1648.7 899.0 L 1648.7 180.1 L 272.0 180.1 Z M 272.0 899.0 "></path></clipPath><g clip-path="url(#clip0x7fd00ae0b550)"><path d="M 273.0 898.0 L 616.7 898.0 L 616.7 718.8 L 273.0 718.8 Z M 273.0 898.0 " fill="#0070EA" fill-opacity="0.60"></path><path d="M 616.7 898.0 L 960.4 898.0 L 960.4 718.8 L 616.7 718.8 Z M 616.7 898.0 " fill="#0070EA" fill-opacity="0.60"></path><path d="M 960.4 898.0 L 1304.1 898.0 L 1304.1 718.8 L 960.4 718.8 Z M 960.4 898.0 " fill="#0070EA" fill-opacity="0.60"></path><path d="M 1304.1 898.0 L 1647.7 898.0 L 1647.7 718.8 L 1304.1 718.8 Z M 1304.1 898.0 " fill="#0070EA" fill-opacity="0.60"></path><path d="M 273.0 718.8 L 616.7 718.8 L 616.7 539.5 L 273.0 539.5 Z M 273.0 718.8 " fill="#0070EA" fill-opacity="0.60"></path><path d="M 273.0 539.5 L 616.7 539.5 L 616.7 360.3 L 273.0 360.3 Z M 273.0 539.5 " fill="#0070EA" fill-opacity="0.60"></path><path d="M 616.7 539.5 L 960.4 539.5 L 960.4 360.3 L 616.7 360.3 Z M 616.7 539.5 " fill="#676163" fill-opacity="0.36"></path><path d="M 960.4 539.5 L 1304.1 539.5 L 1304.1 360.3 L 960.4 360.3 Z M 960.4 539.5 " fill="#676163" fill-opacity="0.36"></path><path d="M 1304.1 539.5 L 1647.7 539.5 L 1647.7 360.3 L 1304.1 360.3 Z M 1304.1 539.5 " fill="#676163" fill-opacity="0.36"></path><path d="M 273.0 360.3 L 616.7 360.3 L 616.7 181.1 L 273.0 181.1 Z M 273.0 360.3 " fill="#0070EA" fill-opacity="0.60"></path></g></g><image xlink:href="EC8DD0E873D774FC636591C0493D65A2.png" width="111.00" height="36.00" transform="matrix(1.00, 0.00, -0.00, -1.00, 734.0, 820.0)"></image><g><clipPath id="clip0x7fd00ebf16e0"><path d="M 272.0 899.0 L 1648.7 899.0 L 1648.7 180.1 L 272.0 180.1 Z M 272.0 899.0 "></path></clipPath><g clip-path="url(#clip0x7fd00ebf16e0)"><g><clipPath id="clip0x7fd00ec12b20"><path d="M 617.7 719.8 L 959.4 719.8 L 959.4 897.0 L 617.7 897.0 Z M 617.7 719.8 "></path></clipPath><g clip-path="url(#clip0x7fd00ec12b20)"><text xml:space="preserve" font-family="HelveticaNeue-Light,Helvetica Neue" font-size="40.0" fill="#FEFFFE" transform="matrix(1.00, 0.00, -0.00, -1.00, 735.9, 792.7)">C</text><text xml:space="preserve" font-family="HelveticaNeue-Light,Helvetica Neue" font-size="40.0" fill="#FEFFFE" transform="matrix(1.00, 0.00, -0.00, -1.00, 764.1, 792.7)">G</text><text xml:space="preserve" font-family="HelveticaNeue-Light,Helvetica Neue" font-size="40.0" fill="#FEFFFE" transform="matrix(1.00, 0.00, -0.00, -1.00, 793.7, 792.7)">P</text><text xml:space="preserve" font-family="HelveticaNeue-Light,Helvetica Neue" font-size="40.0" fill="#FEFFFE" transform="matrix(1.00, 0.00, -0.00, -1.00, 815.9, 792.7)">A</text></g></g></g></g><image xlink:href="B91C0BBB4EB1E49497758D42CA1A4366.png" width="119.00" height="36.00" transform="matrix(1.00, 0.00, -0.00, -1.00, 1073.0, 869.0)"></image><g><clipPath id="clip0x7fd00ec15290"><path d="M 272.0 899.0 L 1648.7 899.0 L 1648.7 180.1 L 272.0 180.1 Z M 272.0 899.0 "></path></clipPath><g clip-path="url(#clip0x7fd00ec15290)"><g><clipPath id="clip0x7fd00ec183c0"><path d="M 961.4 719.8 L 1303.1 719.8 L 1303.1 897.0 L 961.4 897.0 Z M 961.4 719.8 "></path></clipPath><g clip-path="url(#clip0x7fd00ec183c0)"><text xml:space="preserve" font-family="HelveticaNeue-Light,Helvetica Neue" font-size="40.0" fill="#FEFFFE" transform="matrix(1.00, 0.00, -0.00, -1.00, 1073.3, 841.7)">P</text><text xml:space="preserve" font-family="HelveticaNeue-Light,Helvetica Neue" font-size="40.0" fill="#FEFFFE" transform="matrix(1.00, 0.00, -0.00, -1.00, 1098.5, 841.7)">l</text><text xml:space="preserve" font-family="HelveticaNeue-Light,Helvetica Neue" font-size="40.0" fill="#FEFFFE" transform="matrix(1.00, 0.00, -0.00, -1.00, 1105.9, 841.7)">a</text><text xml:space="preserve" font-family="HelveticaNeue-Light,Helvetica Neue" font-size="40.0" fill="#FEFFFE" transform="matrix(1.00, 0.00, -0.00, -1.00, 1126.7, 841.7)">c</text><text xml:space="preserve" font-family="HelveticaNeue-Light,Helvetica Neue" font-size="40.0" fill="#FEFFFE" transform="matrix(1.00, 0.00, -0.00, -1.00, 1147.4, 841.7)">e</text><text xml:space="preserve" font-family="HelveticaNeue-Light,Helvetica Neue" font-size="40.0" fill="#FEFFFE" transform="matrix(1.00, 0.00, -0.00, -1.00, 1168.2, 841.7)">d</text><text xml:space="preserve" font-family="HelveticaNeue-Light,Helvetica Neue" font-size="40.0" fill="#FEFFFE" transform="matrix(1.00, 0.00, -0.00, -1.00, 1191.1, 841.7)"> </text></g></g></g></g><image xlink:href="0073775FB3049D58BA319D68E318F3C0.png" width="105.00" height="36.00" transform="matrix(1.00, 0.00, -0.00, -1.00, 1080.0, 820.0)"></image><g><clipPath id="clip0x7fd00ec1c1b0"><path d="M 272.0 899.0 L 1648.7 899.0 L 1648.7 180.1 L 272.0 180.1 Z M 272.0 899.0 "></path></clipPath><g clip-path="url(#clip0x7fd00ec1c1b0)"><g><clipPath id="clip0x7fd00ec1c9b0"><path d="M 961.4 719.8 L 1303.1 719.8 L 1303.1 897.0 L 961.4 897.0 Z M 961.4 719.8 "></path></clipPath><g clip-path="url(#clip0x7fd00ec1c9b0)"><text xml:space="preserve" font-family="HelveticaNeue-Light,Helvetica Neue" font-size="40.0" fill="#FEFFFE" transform="matrix(1.00, 0.00, -0.00, -1.00, 1083.7, 792.7)">W</text><text xml:space="preserve" font-family="HelveticaNeue-Light,Helvetica Neue" font-size="40.0" fill="#FEFFFE" transform="matrix(1.00, 0.00, -0.00, -1.00, 1119.2, 792.7)">e</text><text xml:space="preserve" font-family="HelveticaNeue-Light,Helvetica Neue" font-size="40.0" fill="#FEFFFE" transform="matrix(1.00, 0.00, -0.00, -1.00, 1140.0, 792.7)">e</text><text xml:space="preserve" font-family="HelveticaNeue-Light,Helvetica Neue" font-size="40.0" fill="#FEFFFE" transform="matrix(1.00, 0.00, -0.00, -1.00, 1160.8, 792.7)">k</text><text xml:space="preserve" font-family="HelveticaNeue-Light,Helvetica Neue" font-size="40.0" fill="#FEFFFE" transform="matrix(1.00, 0.00, -0.00, -1.00, 1180.8, 792.7)"> </text></g></g></g></g><image xlink:href="957B5B3B4332C4565EDDB76F4A1307E0.png" width="143.00" height="36.00" transform="matrix(1.00, 0.00, -0.00, -1.00, 1062.0, 771.0)"></image><g><clipPath id="clip0x7fd00ec21ea0"><path d="M 272.0 899.0 L 1648.7 899.0 L 1648.7 180.1 L 272.0 180.1 Z M 272.0 899.0 "></path></clipPath><g clip-path="url(#clip0x7fd00ec21ea0)"><g><clipPath id="clip0x7fd00ec20df0"><path d="M 961.4 719.8 L 1303.1 719.8 L 1303.1 897.0 L 961.4 897.0 Z M 961.4 719.8 "></path></clipPath><g clip-path="url(#clip0x7fd00ec20df0)"><text xml:space="preserve" font-family="HelveticaNeue-Light,Helvetica Neue" font-size="40.0" fill="#FEFFFE" transform="matrix(1.00, 0.00, -0.00, -1.00, 1062.6, 743.7)">N</text><text xml:space="preserve" font-family="HelveticaNeue-Light,Helvetica Neue" font-size="40.0" fill="#FEFFFE" transform="matrix(1.00, 0.00, -0.00, -1.00, 1090.7, 743.7)">u</text><text xml:space="preserve" font-family="HelveticaNeue-Light,Helvetica Neue" font-size="40.0" fill="#FEFFFE" transform="matrix(1.00, 0.00, -0.00, -1.00, 1112.2, 743.7)">m</text><text xml:space="preserve" font-family="HelveticaNeue-Light,Helvetica Neue" font-size="40.0" fill="#FEFFFE" transform="matrix(1.00, 0.00, -0.00, -1.00, 1145.5, 743.7)">b</text><text xml:space="preserve" font-family="HelveticaNeue-Light,Helvetica Neue" font-size="40.0" fill="#FEFFFE" transform="matrix(1.00, 0.00, -0.00, -1.00, 1168.5, 743.7)">e</text><text xml:space="preserve" font-family="HelveticaNeue-Light,Helvetica Neue" font-size="40.0" fill="#FEFFFE" transform="matrix(1.00, 0.00, -0.00, -1.00, 1189.3, 743.7)">r</text></g></g></g></g><image xlink:href="37DE494B710263AF1D7D2B433156044F.png" width="82.00" height="36.00" transform="matrix(1.00, 0.00, -0.00, -1.00, 1435.0, 820.0)"></image><g><clipPath id="clip0x7fd00ec23370"><path d="M 272.0 899.0 L 1648.7 899.0 L 1648.7 180.1 L 272.0 180.1 Z M 272.0 899.0 "></path></clipPath><g clip-path="url(#clip0x7fd00ec23370)"><g><clipPath id="clip0x7fd00ec23ac0"><path d="M 1305.1 719.8 L 1646.7 719.8 L 1646.7 897.0 L 1305.1 897.0 Z M 1305.1 719.8 "></path></clipPath><g clip-path="url(#clip0x7fd00ec23ac0)"><text xml:space="preserve" font-family="HelveticaNeue-Light,Helvetica Neue" font-size="40.0" fill="#FEFFFE" transform="matrix(1.00, 0.00, -0.00, -1.00, 1436.6, 792.7)">C</text><text xml:space="preserve" font-family="HelveticaNeue-Light,Helvetica Neue" font-size="40.0" fill="#FEFFFE" transform="matrix(1.00, 0.00, -0.00, -1.00, 1464.8, 792.7)">T</text><text xml:space="preserve" font-family="HelveticaNeue-Light,Helvetica Neue" font-size="40.0" fill="#FEFFFE" transform="matrix(1.00, 0.00, -0.00, -1.00, 1487.0, 792.7)">C</text></g></g></g></g><image xlink:href="33B9ACC69726E35D549AC74C56105C33.png" width="111.00" height="37.00" transform="matrix(1.00, 0.00, -0.00, -1.00, 390.0, 641.0)"></image><g><clipPath id="clip0x7fd00ec277e0"><path d="M 272.0 899.0 L 1648.7 899.0 L 1648.7 180.1 L 272.0 180.1 Z M 272.0 899.0 "></path></clipPath><g clip-path="url(#clip0x7fd00ec277e0)"><g><clipPath id="clip0x7fd00ec26ad0"><path d="M 274.0 540.5 L 615.7 540.5 L 615.7 717.8 L 274.0 717.8 Z M 274.0 540.5 "></path></clipPath><g clip-path="url(#clip0x7fd00ec26ad0)"><text xml:space="preserve" font-family="HelveticaNeue-Light,Helvetica Neue" font-size="40.0" fill="#FEFFFE" transform="matrix(1.00, 0.00, -0.00, -1.00, 392.2, 613.4)">C</text><text xml:space="preserve" font-family="HelveticaNeue-Light,Helvetica Neue" font-size="40.0" fill="#FEFFFE" transform="matrix(1.00, 0.00, -0.00, -1.00, 420.4, 613.4)">G</text><text xml:space="preserve" font-family="HelveticaNeue-Light,Helvetica Neue" font-size="40.0" fill="#FEFFFE" transform="matrix(1.00, 0.00, -0.00, -1.00, 450.0, 613.4)">P</text><text xml:space="preserve" font-family="HelveticaNeue-Light,Helvetica Neue" font-size="40.0" fill="#FEFFFE" transform="matrix(1.00, 0.00, -0.00, -1.00, 472.3, 613.4)">A</text></g></g></g></g><image xlink:href="24D17EB1B9D3C7B84DE4C41B4C6AAE6D.png" width="213.00" height="36.00" transform="matrix(1.00, 0.00, -0.00, -1.00, 683.0, 640.0)"></image><g><clipPath id="clip0x7fd00ec2b910"><path d="M 272.0 899.0 L 1648.7 899.0 L 1648.7 180.1 L 272.0 180.1 Z M 272.0 899.0 "></path></clipPath><g clip-path="url(#clip0x7fd00ec2b910)"><g><clipPath id="clip0x7fd00ec2c060"><path d="M 617.7 540.5 L 959.4 540.5 L 959.4 717.8 L 617.7 717.8 Z M 617.7 540.5 "></path></clipPath><g clip-path="url(#clip0x7fd00ec2c060)"><text xml:space="preserve" font-family="HelveticaNeue-Light,Helvetica Neue" font-size="40.0" fill="#FEFFFE" transform="matrix(1.00, 0.00, -0.00, -1.00, 682.9, 613.4)">1</text><text xml:space="preserve" font-family="HelveticaNeue-Light,Helvetica Neue" font-size="40.0" fill="#FEFFFE" transform="matrix(1.00, 0.00, -0.00, -1.00, 705.1, 613.4)">.</text><text xml:space="preserve" font-family="HelveticaNeue-Light,Helvetica Neue" font-size="40.0" fill="#FEFFFE" transform="matrix(1.00, 0.00, -0.00, -1.00, 716.2, 613.4)">0</text><text xml:space="preserve" font-family="HelveticaNeue-Light,Helvetica Neue" font-size="40.0" fill="#FEFFFE" transform="matrix(1.00, 0.00, -0.00, -1.00, 738.5, 613.4)">0</text><text xml:space="preserve" font-family="HelveticaNeue-Light,Helvetica Neue" font-size="40.0" fill="#FEFFFE" transform="matrix(1.00, 0.00, -0.00, -1.00, 760.7, 613.4)">0</text><text xml:space="preserve" font-family="HelveticaNeue-Light,Helvetica Neue" font-size="40.0" fill="#FEFFFE" transform="matrix(1.00, 0.00, -0.00, -1.00, 783.0, 613.4)">0</text><text xml:space="preserve" font-family="HelveticaNeue-Light,Helvetica Neue" font-size="40.0" fill="#FEFFFE" transform="matrix(1.00, 0.00, -0.00, -1.00, 805.2, 613.4)">0</text><text xml:space="preserve" font-family="HelveticaNeue-Light,Helvetica Neue" font-size="40.0" fill="#FEFFFE" transform="matrix(1.00, 0.00, -0.00, -1.00, 827.4, 613.4)">0</text><text xml:space="preserve" font-family="HelveticaNeue-Light,Helvetica Neue" font-size="40.0" fill="#FEFFFE" transform="matrix(1.00, 0.00, -0.00, -1.00, 849.7, 613.4)">0</text><text xml:space="preserve" font-family="HelveticaNeue-Light,Helvetica Neue" font-size="40.0" fill="#FEFFFE" transform="matrix(1.00, 0.00, -0.00, -1.00, 871.9, 613.4)">0</text></g></g></g></g><image xlink:href="BAB66A57BB0DF8B33B969F7029648DB5.png" width="207.00" height="36.00" transform="matrix(1.00, 0.00, -0.00, -1.00, 1029.0, 640.0)"></image><g><clipPath id="clip0x7fd00ec31e80"><path d="M 272.0 899.0 L 1648.7 899.0 L 1648.7 180.1 L 272.0 180.1 Z M 272.0 899.0 "></path></clipPath><g clip-path="url(#clip0x7fd00ec31e80)"><g><clipPath id="clip0x7fd00ec32650"><path d="M 961.4 540.5 L 1303.1 540.5 L 1303.1 717.8 L 961.4 717.8 Z M 961.4 540.5 "></path></clipPath><g clip-path="url(#clip0x7fd00ec32650)"><text xml:space="preserve" font-family="HelveticaNeue-Light,Helvetica Neue" font-size="40.0" fill="#FEFFFE" transform="matrix(1.00, 0.00, -0.00, -1.00, 1030.3, 613.4)">-</text><text xml:space="preserve" font-family="HelveticaNeue-Light,Helvetica Neue" font-size="40.0" fill="#FEFFFE" transform="matrix(1.00, 0.00, -0.00, -1.00, 1045.1, 613.4)">0</text><text xml:space="preserve" font-family="HelveticaNeue-Light,Helvetica Neue" font-size="40.0" fill="#FEFFFE" transform="matrix(1.00, 0.00, -0.00, -1.00, 1067.3, 613.4)">.</text><text xml:space="preserve" font-family="HelveticaNeue-Light,Helvetica Neue" font-size="40.0" fill="#FEFFFE" transform="matrix(1.00, 0.00, -0.00, -1.00, 1078.5, 613.4)">1</text><text xml:space="preserve" font-family="HelveticaNeue-Light,Helvetica Neue" font-size="40.0" fill="#FEFFFE" transform="matrix(1.00, 0.00, -0.00, -1.00, 1100.7, 613.4)">8</text><text xml:space="preserve" font-family="HelveticaNeue-Light,Helvetica Neue" font-size="40.0" fill="#FEFFFE" transform="matrix(1.00, 0.00, -0.00, -1.00, 1122.9, 613.4)">5</text><text xml:space="preserve" font-family="HelveticaNeue-Light,Helvetica Neue" font-size="40.0" fill="#FEFFFE" transform="matrix(1.00, 0.00, -0.00, -1.00, 1145.2, 613.4)">2</text><text xml:space="preserve" font-family="HelveticaNeue-Light,Helvetica Neue" font-size="40.0" fill="#FEFFFE" transform="matrix(1.00, 0.00, -0.00, -1.00, 1167.4, 613.4)">1</text><text xml:space="preserve" font-family="HelveticaNeue-Light,Helvetica Neue" font-size="40.0" fill="#FEFFFE" transform="matrix(1.00, 0.00, -0.00, -1.00, 1189.7, 613.4)">6</text><text xml:space="preserve" font-family="HelveticaNeue-Light,Helvetica Neue" font-size="40.0" fill="#FEFFFE" transform="matrix(1.00, 0.00, -0.00, -1.00, 1211.9, 613.4)">6</text></g></g></g></g><image xlink:href="E06D27A894D289C6020D78209080CF99.png" width="193.00" height="36.00" transform="matrix(1.00, 0.00, -0.00, -1.00, 1379.0, 640.0)"></image><g><clipPath id="clip0x7fd0267f2620"><path d="M 272.0 899.0 L 1648.7 899.0 L 1648.7 180.1 L 272.0 180.1 Z M 272.0 899.0 "></path></clipPath><g clip-path="url(#clip0x7fd0267f2620)"><g><clipPath id="clip0x7fd024ede6f0"><path d="M 1305.1 540.5 L 1646.7 540.5 L 1646.7 717.8 L 1305.1 717.8 Z M 1305.1 540.5 "></path></clipPath><g clip-path="url(#clip0x7fd024ede6f0)"><text xml:space="preserve" font-family="HelveticaNeue-Light,Helvetica Neue" font-size="40.0" fill="#FEFFFE" transform="matrix(1.00, 0.00, -0.00, -1.00, 1381.4, 613.4)">0</text><text xml:space="preserve" font-family="HelveticaNeue-Light,Helvetica Neue" font-size="40.0" fill="#FEFFFE" transform="matrix(1.00, 0.00, -0.00, -1.00, 1403.6, 613.4)">.</text><text xml:space="preserve" font-family="HelveticaNeue-Light,Helvetica Neue" font-size="40.0" fill="#FEFFFE" transform="matrix(1.00, 0.00, -0.00, -1.00, 1414.7, 613.4)">2</text><text xml:space="preserve" font-family="HelveticaNeue-Light,Helvetica Neue" font-size="40.0" fill="#FEFFFE" transform="matrix(1.00, 0.00, -0.00, -1.00, 1437.0, 613.4)">4</text><text xml:space="preserve" font-family="HelveticaNeue-Light,Helvetica Neue" font-size="40.0" fill="#FEFFFE" transform="matrix(1.00, 0.00, -0.00, -1.00, 1459.2, 613.4)">8</text><text xml:space="preserve" font-family="HelveticaNeue-Light,Helvetica Neue" font-size="40.0" fill="#FEFFFE" transform="matrix(1.00, 0.00, -0.00, -1.00, 1481.5, 613.4)">8</text><text xml:space="preserve" font-family="HelveticaNeue-Light,Helvetica Neue" font-size="40.0" fill="#FEFFFE" transform="matrix(1.00, 0.00, -0.00, -1.00, 1503.7, 613.4)">0</text><text xml:space="preserve" font-family="HelveticaNeue-Light,Helvetica Neue" font-size="40.0" fill="#FEFFFE" transform="matrix(1.00, 0.00, -0.00, -1.00, 1525.9, 613.4)">7</text><text xml:space="preserve" font-family="HelveticaNeue-Light,Helvetica Neue" font-size="40.0" fill="#FEFFFE" transform="matrix(1.00, 0.00, -0.00, -1.00, 1548.2, 613.4)">2</text></g></g></g></g><image xlink:href="2353F437E07A7176761A1AE4410124C1.png" width="120.00" height="36.00" transform="matrix(1.00, 0.00, -0.00, -1.00, 385.0, 510.0)"></image><g><clipPath id="clip0x7fd00ec384b0"><path d="M 272.0 899.0 L 1648.7 899.0 L 1648.7 180.1 L 272.0 180.1 Z M 272.0 899.0 "></path></clipPath><g clip-path="url(#clip0x7fd00ec384b0)"><g><clipPath id="clip0x7fd00ec38c00"><path d="M 274.0 361.3 L 615.7 361.3 L 615.7 538.5 L 274.0 538.5 Z M 274.0 361.3 "></path></clipPath><g clip-path="url(#clip0x7fd00ec38c00)"><text xml:space="preserve" font-family="HelveticaNeue-Light,Helvetica Neue" font-size="40.0" fill="#FEFFFE" transform="matrix(1.00, 0.00, -0.00, -1.00, 385.9, 483.2)">P</text><text xml:space="preserve" font-family="HelveticaNeue-Light,Helvetica Neue" font-size="40.0" fill="#FEFFFE" transform="matrix(1.00, 0.00, -0.00, -1.00, 411.1, 483.2)">l</text><text xml:space="preserve" font-family="HelveticaNeue-Light,Helvetica Neue" font-size="40.0" fill="#FEFFFE" transform="matrix(1.00, 0.00, -0.00, -1.00, 418.5, 483.2)">a</text><text xml:space="preserve" font-family="HelveticaNeue-Light,Helvetica Neue" font-size="40.0" fill="#FEFFFE" transform="matrix(1.00, 0.00, -0.00, -1.00, 439.3, 483.2)">c</text><text xml:space="preserve" font-family="HelveticaNeue-Light,Helvetica Neue" font-size="40.0" fill="#FEFFFE" transform="matrix(1.00, 0.00, -0.00, -1.00, 460.0, 483.2)">e</text><text xml:space="preserve" font-family="HelveticaNeue-Light,Helvetica Neue" font-size="40.0" fill="#FEFFFE" transform="matrix(1.00, 0.00, -0.00, -1.00, 480.8, 483.2)">d</text><text xml:space="preserve" font-family="HelveticaNeue-Light,Helvetica Neue" font-size="40.0" fill="#FEFFFE" transform="matrix(1.00, 0.00, -0.00, -1.00, 503.8, 483.2)"> </text></g></g></g></g><image xlink:href="B4EBD0CB253143F7400B7BFE1B736B4A.png" width="104.00" height="36.00" transform="matrix(1.00, 0.00, -0.00, -1.00, 393.0, 461.0)"></image><g><clipPath id="clip0x7fd00ec3c300"><path d="M 272.0 899.0 L 1648.7 899.0 L 1648.7 180.1 L 272.0 180.1 Z M 272.0 899.0 "></path></clipPath><g clip-path="url(#clip0x7fd00ec3c300)"><g><clipPath id="clip0x7fd00ec3ca20"><path d="M 274.0 361.3 L 615.7 361.3 L 615.7 538.5 L 274.0 538.5 Z M 274.0 361.3 "></path></clipPath><g clip-path="url(#clip0x7fd00ec3ca20)"><text xml:space="preserve" font-family="HelveticaNeue-Light,Helvetica Neue" font-size="40.0" fill="#FEFFFE" transform="matrix(1.00, 0.00, -0.00, -1.00, 396.3, 434.2)">W</text><text xml:space="preserve" font-family="HelveticaNeue-Light,Helvetica Neue" font-size="40.0" fill="#FEFFFE" transform="matrix(1.00, 0.00, -0.00, -1.00, 431.9, 434.2)">e</text><text xml:space="preserve" font-family="HelveticaNeue-Light,Helvetica Neue" font-size="40.0" fill="#FEFFFE" transform="matrix(1.00, 0.00, -0.00, -1.00, 452.6, 434.2)">e</text><text xml:space="preserve" font-family="HelveticaNeue-Light,Helvetica Neue" font-size="40.0" fill="#FEFFFE" transform="matrix(1.00, 0.00, -0.00, -1.00, 473.4, 434.2)">k</text><text xml:space="preserve" font-family="HelveticaNeue-Light,Helvetica Neue" font-size="40.0" fill="#FEFFFE" transform="matrix(1.00, 0.00, -0.00, -1.00, 493.4, 434.2)"> </text></g></g></g></g><image xlink:href="BAFDCC98ABCE6711FA1EEF66F1A6C5E7.png" width="143.00" height="36.00" transform="matrix(1.00, 0.00, -0.00, -1.00, 375.0, 412.0)"></image><g><clipPath id="clip0x7fd00ec41e50"><path d="M 272.0 899.0 L 1648.7 899.0 L 1648.7 180.1 L 272.0 180.1 Z M 272.0 899.0 "></path></clipPath><g clip-path="url(#clip0x7fd00ec41e50)"><g><clipPath id="clip0x7fd00ec40d90"><path d="M 274.0 361.3 L 615.7 361.3 L 615.7 538.5 L 274.0 538.5 Z M 274.0 361.3 "></path></clipPath><g clip-path="url(#clip0x7fd00ec40d90)"><text xml:space="preserve" font-family="HelveticaNeue-Light,Helvetica Neue" font-size="40.0" fill="#FEFFFE" transform="matrix(1.00, 0.00, -0.00, -1.00, 375.2, 385.2)">N</text><text xml:space="preserve" font-family="HelveticaNeue-Light,Helvetica Neue" font-size="40.0" fill="#FEFFFE" transform="matrix(1.00, 0.00, -0.00, -1.00, 403.4, 385.2)">u</text><text xml:space="preserve" font-family="HelveticaNeue-Light,Helvetica Neue" font-size="40.0" fill="#FEFFFE" transform="matrix(1.00, 0.00, -0.00, -1.00, 424.8, 385.2)">m</text><text xml:space="preserve" font-family="HelveticaNeue-Light,Helvetica Neue" font-size="40.0" fill="#FEFFFE" transform="matrix(1.00, 0.00, -0.00, -1.00, 458.2, 385.2)">b</text><text xml:space="preserve" font-family="HelveticaNeue-Light,Helvetica Neue" font-size="40.0" fill="#FEFFFE" transform="matrix(1.00, 0.00, -0.00, -1.00, 481.1, 385.2)">e</text><text xml:space="preserve" font-family="HelveticaNeue-Light,Helvetica Neue" font-size="40.0" fill="#FEFFFE" transform="matrix(1.00, 0.00, -0.00, -1.00, 501.9, 385.2)">r</text></g></g></g></g><image xlink:href="436BDD6F550B227C4055190E93EDF3C1.png" width="207.00" height="36.00" transform="matrix(1.00, 0.00, -0.00, -1.00, 686.0, 461.0)"></image><g><clipPath id="clip0x7fd00ec46b40"><path d="M 272.0 899.0 L 1648.7 899.0 L 1648.7 180.1 L 272.0 180.1 Z M 272.0 899.0 "></path></clipPath><g clip-path="url(#clip0x7fd00ec46b40)"><g><clipPath id="clip0x7fd00ec47280"><path d="M 617.7 361.3 L 959.4 361.3 L 959.4 538.5 L 617.7 538.5 Z M 617.7 361.3 "></path></clipPath><g clip-path="url(#clip0x7fd00ec47280)"><text xml:space="preserve" font-family="HelveticaNeue-Light,Helvetica Neue" font-size="40.0" fill="#FEFFFE" transform="matrix(1.00, 0.00, -0.00, -1.00, 686.6, 434.2)">-</text><text xml:space="preserve" font-family="HelveticaNeue-Light,Helvetica Neue" font-size="40.0" fill="#FEFFFE" transform="matrix(1.00, 0.00, -0.00, -1.00, 701.4, 434.2)">0</text><text xml:space="preserve" font-family="HelveticaNeue-Light,Helvetica Neue" font-size="40.0" fill="#FEFFFE" transform="matrix(1.00, 0.00, -0.00, -1.00, 723.6, 434.2)">.</text><text xml:space="preserve" font-family="HelveticaNeue-Light,Helvetica Neue" font-size="40.0" fill="#FEFFFE" transform="matrix(1.00, 0.00, -0.00, -1.00, 734.8, 434.2)">1</text><text xml:space="preserve" font-family="HelveticaNeue-Light,Helvetica Neue" font-size="40.0" fill="#FEFFFE" transform="matrix(1.00, 0.00, -0.00, -1.00, 757.0, 434.2)">8</text><text xml:space="preserve" font-family="HelveticaNeue-Light,Helvetica Neue" font-size="40.0" fill="#FEFFFE" transform="matrix(1.00, 0.00, -0.00, -1.00, 779.2, 434.2)">5</text><text xml:space="preserve" font-family="HelveticaNeue-Light,Helvetica Neue" font-size="40.0" fill="#FEFFFE" transform="matrix(1.00, 0.00, -0.00, -1.00, 801.5, 434.2)">2</text><text xml:space="preserve" font-family="HelveticaNeue-Light,Helvetica Neue" font-size="40.0" fill="#FEFFFE" transform="matrix(1.00, 0.00, -0.00, -1.00, 823.7, 434.2)">1</text><text xml:space="preserve" font-family="HelveticaNeue-Light,Helvetica Neue" font-size="40.0" fill="#FEFFFE" transform="matrix(1.00, 0.00, -0.00, -1.00, 846.0, 434.2)">6</text><text xml:space="preserve" font-family="HelveticaNeue-Light,Helvetica Neue" font-size="40.0" fill="#FEFFFE" transform="matrix(1.00, 0.00, -0.00, -1.00, 868.2, 434.2)">6</text></g></g></g></g><image xlink:href="FDA3412CC7B7BF772EEF04BF6F7E3DCD.png" width="213.00" height="36.00" transform="matrix(1.00, 0.00, -0.00, -1.00, 1027.0, 461.0)"></image><g><clipPath id="clip0x7fd00ec4bca0"><path d="M 272.0 899.0 L 1648.7 899.0 L 1648.7 180.1 L 272.0 180.1 Z M 272.0 899.0 "></path></clipPath><g clip-path="url(#clip0x7fd00ec4bca0)"><g><clipPath id="clip0x7fd00ec4c3e0"><path d="M 961.4 361.3 L 1303.1 361.3 L 1303.1 538.5 L 961.4 538.5 Z M 961.4 361.3 "></path></clipPath><g clip-path="url(#clip0x7fd00ec4c3e0)"><text xml:space="preserve" font-family="HelveticaNeue-Light,Helvetica Neue" font-size="40.0" fill="#FEFFFE" transform="matrix(1.00, 0.00, -0.00, -1.00, 1026.6, 434.2)">1</text><text xml:space="preserve" font-family="HelveticaNeue-Light,Helvetica Neue" font-size="40.0" fill="#FEFFFE" transform="matrix(1.00, 0.00, -0.00, -1.00, 1048.8, 434.2)">.</text><text xml:space="preserve" font-family="HelveticaNeue-Light,Helvetica Neue" font-size="40.0" fill="#FEFFFE" transform="matrix(1.00, 0.00, -0.00, -1.00, 1059.9, 434.2)">0</text><text xml:space="preserve" font-family="HelveticaNeue-Light,Helvetica Neue" font-size="40.0" fill="#FEFFFE" transform="matrix(1.00, 0.00, -0.00, -1.00, 1082.2, 434.2)">0</text><text xml:space="preserve" font-family="HelveticaNeue-Light,Helvetica Neue" font-size="40.0" fill="#FEFFFE" transform="matrix(1.00, 0.00, -0.00, -1.00, 1104.4, 434.2)">0</text><text xml:space="preserve" font-family="HelveticaNeue-Light,Helvetica Neue" font-size="40.0" fill="#FEFFFE" transform="matrix(1.00, 0.00, -0.00, -1.00, 1126.7, 434.2)">0</text><text xml:space="preserve" font-family="HelveticaNeue-Light,Helvetica Neue" font-size="40.0" fill="#FEFFFE" transform="matrix(1.00, 0.00, -0.00, -1.00, 1148.9, 434.2)">0</text><text xml:space="preserve" font-family="HelveticaNeue-Light,Helvetica Neue" font-size="40.0" fill="#FEFFFE" transform="matrix(1.00, 0.00, -0.00, -1.00, 1171.1, 434.2)">0</text><text xml:space="preserve" font-family="HelveticaNeue-Light,Helvetica Neue" font-size="40.0" fill="#FEFFFE" transform="matrix(1.00, 0.00, -0.00, -1.00, 1193.4, 434.2)">0</text><text xml:space="preserve" font-family="HelveticaNeue-Light,Helvetica Neue" font-size="40.0" fill="#FEFFFE" transform="matrix(1.00, 0.00, -0.00, -1.00, 1215.6, 434.2)">0</text></g></g></g></g><image xlink:href="B2A080519355691E9A79494A552A7AB8.png" width="200.00" height="36.00" transform="matrix(1.00, 0.00, -0.00, -1.00, 1373.0, 461.0)"></image><g><clipPath id="clip0x7fd00ec53380"><path d="M 272.0 899.0 L 1648.7 899.0 L 1648.7 180.1 L 272.0 180.1 Z M 272.0 899.0 "></path></clipPath><g clip-path="url(#clip0x7fd00ec53380)"><g><clipPath id="clip0x7fd00ec53ad0"><path d="M 1305.1 361.3 L 1646.7 361.3 L 1646.7 538.5 L 1305.1 538.5 Z M 1305.1 361.3 "></path></clipPath><g clip-path="url(#clip0x7fd00ec53ad0)"><text xml:space="preserve" font-family="HelveticaNeue-Light,Helvetica Neue" font-size="40.0" fill="#FEFFFE" transform="matrix(1.00, 0.00, -0.00, -1.00, 1374.0, 434.2)">-</text><text xml:space="preserve" font-family="HelveticaNeue-Light,Helvetica Neue" font-size="40.0" fill="#FEFFFE" transform="matrix(1.00, 0.00, -0.00, -1.00, 1388.8, 434.2)">0</text><text xml:space="preserve" font-family="HelveticaNeue-Light,Helvetica Neue" font-size="40.0" fill="#FEFFFE" transform="matrix(1.00, 0.00, -0.00, -1.00, 1411.0, 434.2)">.</text><text xml:space="preserve" font-family="HelveticaNeue-Light,Helvetica Neue" font-size="40.0" fill="#FEFFFE" transform="matrix(1.00, 0.00, -0.00, -1.00, 1422.1, 434.2)">1</text><text xml:space="preserve" font-family="HelveticaNeue-Light,Helvetica Neue" font-size="40.0" fill="#FEFFFE" transform="matrix(1.00, 0.00, -0.00, -1.00, 1444.4, 434.2)">1</text><text xml:space="preserve" font-family="HelveticaNeue-Light,Helvetica Neue" font-size="40.0" fill="#FEFFFE" transform="matrix(1.00, 0.00, -0.00, -1.00, 1466.6, 434.2)">9</text><text xml:space="preserve" font-family="HelveticaNeue-Light,Helvetica Neue" font-size="40.0" fill="#FEFFFE" transform="matrix(1.00, 0.00, -0.00, -1.00, 1488.9, 434.2)">7</text><text xml:space="preserve" font-family="HelveticaNeue-Light,Helvetica Neue" font-size="40.0" fill="#FEFFFE" transform="matrix(1.00, 0.00, -0.00, -1.00, 1511.1, 434.2)">3</text><text xml:space="preserve" font-family="HelveticaNeue-Light,Helvetica Neue" font-size="40.0" fill="#FEFFFE" transform="matrix(1.00, 0.00, -0.00, -1.00, 1533.3, 434.2)">8</text><text xml:space="preserve" font-family="HelveticaNeue-Light,Helvetica Neue" font-size="40.0" fill="#FEFFFE" transform="matrix(1.00, 0.00, -0.00, -1.00, 1555.6, 434.2)">1</text></g></g></g></g><image xlink:href="E3A4D01FFDDA8BFF6D3357B8F7F6CD94.png" width="82.00" height="37.00" transform="matrix(1.00, 0.00, -0.00, -1.00, 404.0, 283.0)"></image><g><clipPath id="clip0x7fd00ae0eba0"><path d="M 272.0 899.0 L 1648.7 899.0 L 1648.7 180.1 L 272.0 180.1 Z M 272.0 899.0 "></path></clipPath><g clip-path="url(#clip0x7fd00ae0eba0)"><g><clipPath id="clip0x7fd00ae0f730"><path d="M 274.0 182.1 L 615.7 182.1 L 615.7 359.3 L 274.0 359.3 Z M 274.0 182.1 "></path></clipPath><g clip-path="url(#clip0x7fd00ae0f730)"><text xml:space="preserve" font-family="HelveticaNeue-Light,Helvetica Neue" font-size="40.0" fill="#FEFFFE" transform="matrix(1.00, 0.00, -0.00, -1.00, 405.6, 255.0)">C</text><text xml:space="preserve" font-family="HelveticaNeue-Light,Helvetica Neue" font-size="40.0" fill="#FEFFFE" transform="matrix(1.00, 0.00, -0.00, -1.00, 433.7, 255.0)">T</text><text xml:space="preserve" font-family="HelveticaNeue-Light,Helvetica Neue" font-size="40.0" fill="#FEFFFE" transform="matrix(1.00, 0.00, -0.00, -1.00, 456.0, 255.0)">C</text></g></g></g></g><image xlink:href="0A1FD8731499E6680D69C35ED6D27A90.png" width="192.00" height="36.00" transform="matrix(1.00, 0.00, -0.00, -1.00, 692.0, 282.0)"></image><g><clipPath id="clip0x7fd00ec58590"><path d="M 272.0 899.0 L 1648.7 899.0 L 1648.7 180.1 L 272.0 180.1 Z M 272.0 899.0 "></path></clipPath><g clip-path="url(#clip0x7fd00ec58590)"><g><clipPath id="clip0x7fd00ec58cc0"><path d="M 617.7 182.1 L 959.4 182.1 L 959.4 359.3 L 617.7 359.3 Z M 617.7 182.1 "></path></clipPath><g clip-path="url(#clip0x7fd00ec58cc0)"><text xml:space="preserve" font-family="HelveticaNeue-Light,Helvetica Neue" font-size="40.0" fill="#FEFFFE" transform="matrix(1.00, 0.00, -0.00, -1.00, 694.0, 255.0)">0</text><text xml:space="preserve" font-family="HelveticaNeue-Light,Helvetica Neue" font-size="40.0" fill="#FEFFFE" transform="matrix(1.00, 0.00, -0.00, -1.00, 716.2, 255.0)">.</text><text xml:space="preserve" font-family="HelveticaNeue-Light,Helvetica Neue" font-size="40.0" fill="#FEFFFE" transform="matrix(1.00, 0.00, -0.00, -1.00, 727.4, 255.0)">2</text><text xml:space="preserve" font-family="HelveticaNeue-Light,Helvetica Neue" font-size="40.0" fill="#FEFFFE" transform="matrix(1.00, 0.00, -0.00, -1.00, 749.6, 255.0)">4</text><text xml:space="preserve" font-family="HelveticaNeue-Light,Helvetica Neue" font-size="40.0" fill="#FEFFFE" transform="matrix(1.00, 0.00, -0.00, -1.00, 771.8, 255.0)">8</text><text xml:space="preserve" font-family="HelveticaNeue-Light,Helvetica Neue" font-size="40.0" fill="#FEFFFE" transform="matrix(1.00, 0.00, -0.00, -1.00, 794.1, 255.0)">8</text><text xml:space="preserve" font-family="HelveticaNeue-Light,Helvetica Neue" font-size="40.0" fill="#FEFFFE" transform="matrix(1.00, 0.00, -0.00, -1.00, 816.3, 255.0)">0</text><text xml:space="preserve" font-family="HelveticaNeue-Light,Helvetica Neue" font-size="40.0" fill="#FEFFFE" transform="matrix(1.00, 0.00, -0.00, -1.00, 838.6, 255.0)">7</text><text xml:space="preserve" font-family="HelveticaNeue-Light,Helvetica Neue" font-size="40.0" fill="#FEFFFE" transform="matrix(1.00, 0.00, -0.00, -1.00, 860.8, 255.0)">2</text></g></g></g></g><image xlink:href="B1D797E311695CE80ACEBD5005A9AC08.png" width="200.00" height="36.00" transform="matrix(1.00, 0.00, -0.00, -1.00, 1029.0, 282.0)"></image><g><clipPath id="clip0x7fd01fe8f2c0"><path d="M 272.0 899.0 L 1648.7 899.0 L 1648.7 180.1 L 272.0 180.1 Z M 272.0 899.0 "></path></clipPath><g clip-path="url(#clip0x7fd01fe8f2c0)"><g><clipPath id="clip0x7fd01feb3320"><path d="M 961.4 182.1 L 1303.1 182.1 L 1303.1 359.3 L 961.4 359.3 Z M 961.4 182.1 "></path></clipPath><g clip-path="url(#clip0x7fd01feb3320)"><text xml:space="preserve" font-family="HelveticaNeue-Light,Helvetica Neue" font-size="40.0" fill="#FEFFFE" transform="matrix(1.00, 0.00, -0.00, -1.00, 1030.3, 255.0)">-</text><text xml:space="preserve" font-family="HelveticaNeue-Light,Helvetica Neue" font-size="40.0" fill="#FEFFFE" transform="matrix(1.00, 0.00, -0.00, -1.00, 1045.1, 255.0)">0</text><text xml:space="preserve" font-family="HelveticaNeue-Light,Helvetica Neue" font-size="40.0" fill="#FEFFFE" transform="matrix(1.00, 0.00, -0.00, -1.00, 1067.3, 255.0)">.</text><text xml:space="preserve" font-family="HelveticaNeue-Light,Helvetica Neue" font-size="40.0" fill="#FEFFFE" transform="matrix(1.00, 0.00, -0.00, -1.00, 1078.5, 255.0)">1</text><text xml:space="preserve" font-family="HelveticaNeue-Light,Helvetica Neue" font-size="40.0" fill="#FEFFFE" transform="matrix(1.00, 0.00, -0.00, -1.00, 1100.7, 255.0)">1</text><text xml:space="preserve" font-family="HelveticaNeue-Light,Helvetica Neue" font-size="40.0" fill="#FEFFFE" transform="matrix(1.00, 0.00, -0.00, -1.00, 1122.9, 255.0)">9</text><text xml:space="preserve" font-family="HelveticaNeue-Light,Helvetica Neue" font-size="40.0" fill="#FEFFFE" transform="matrix(1.00, 0.00, -0.00, -1.00, 1145.2, 255.0)">7</text><text xml:space="preserve" font-family="HelveticaNeue-Light,Helvetica Neue" font-size="40.0" fill="#FEFFFE" transform="matrix(1.00, 0.00, -0.00, -1.00, 1167.4, 255.0)">3</text><text xml:space="preserve" font-family="HelveticaNeue-Light,Helvetica Neue" font-size="40.0" fill="#FEFFFE" transform="matrix(1.00, 0.00, -0.00, -1.00, 1189.7, 255.0)">8</text><text xml:space="preserve" font-family="HelveticaNeue-Light,Helvetica Neue" font-size="40.0" fill="#FEFFFE" transform="matrix(1.00, 0.00, -0.00, -1.00, 1211.9, 255.0)">1</text></g></g></g></g><image xlink:href="C8791AA6EA3C656BD87669BDBB86CE95.png" width="213.00" height="36.00" transform="matrix(1.00, 0.00, -0.00, -1.00, 1371.0, 282.0)"></image><g><clipPath id="clip0x7fd00ec5f9a0"><path d="M 272.0 899.0 L 1648.7 899.0 L 1648.7 180.1 L 272.0 180.1 Z M 272.0 899.0 "></path></clipPath><g clip-path="url(#clip0x7fd00ec5f9a0)"><g><clipPath id="clip0x7fd00ec5e2f0"><path d="M 1305.1 182.1 L 1646.7 182.1 L 1646.7 359.3 L 1305.1 359.3 Z M 1305.1 182.1 "></path></clipPath><g clip-path="url(#clip0x7fd00ec5e2f0)"><text xml:space="preserve" font-family="HelveticaNeue-Light,Helvetica Neue" font-size="40.0" fill="#FEFFFE" transform="matrix(1.00, 0.00, -0.00, -1.00, 1370.3, 255.0)">1</text><text xml:space="preserve" font-family="HelveticaNeue-Light,Helvetica Neue" font-size="40.0" fill="#FEFFFE" transform="matrix(1.00, 0.00, -0.00, -1.00, 1392.5, 255.0)">.</text><text xml:space="preserve" font-family="HelveticaNeue-Light,Helvetica Neue" font-size="40.0" fill="#FEFFFE" transform="matrix(1.00, 0.00, -0.00, -1.00, 1403.6, 255.0)">0</text><text xml:space="preserve" font-family="HelveticaNeue-Light,Helvetica Neue" font-size="40.0" fill="#FEFFFE" transform="matrix(1.00, 0.00, -0.00, -1.00, 1425.9, 255.0)">0</text><text xml:space="preserve" font-family="HelveticaNeue-Light,Helvetica Neue" font-size="40.0" fill="#FEFFFE" transform="matrix(1.00, 0.00, -0.00, -1.00, 1448.1, 255.0)">0</text><text xml:space="preserve" font-family="HelveticaNeue-Light,Helvetica Neue" font-size="40.0" fill="#FEFFFE" transform="matrix(1.00, 0.00, -0.00, -1.00, 1470.3, 255.0)">0</text><text xml:space="preserve" font-family="HelveticaNeue-Light,Helvetica Neue" font-size="40.0" fill="#FEFFFE" transform="matrix(1.00, 0.00, -0.00, -1.00, 1492.6, 255.0)">0</text><text xml:space="preserve" font-family="HelveticaNeue-Light,Helvetica Neue" font-size="40.0" fill="#FEFFFE" transform="matrix(1.00, 0.00, -0.00, -1.00, 1514.8, 255.0)">0</text><text xml:space="preserve" font-family="HelveticaNeue-Light,Helvetica Neue" font-size="40.0" fill="#FEFFFE" transform="matrix(1.00, 0.00, -0.00, -1.00, 1537.1, 255.0)">0</text><text xml:space="preserve" font-family="HelveticaNeue-Light,Helvetica Neue" font-size="40.0" fill="#FEFFFE" transform="matrix(1.00, 0.00, -0.00, -1.00, 1559.3, 255.0)">0</text></g></g></g></g><g><clipPath id="clip0x7fd00ec64210"><path d="M 272.0 899.0 L 1648.7 899.0 L 1648.7 180.1 L 272.0 180.1 Z M 272.0 899.0 "></path></clipPath><g clip-path="url(#clip0x7fd00ec64210)"><path d="M 689.4 1.0 L 689.4 181.2 " fill="none" stroke="#000000" stroke-opacity="0.00" stroke-width="2.00" transform="matrix(1.00, 0.00, 0.00, -1.00, 271.0, 900.0)"></path><path d="M 689.4 181.2 L 689.4 719.9 " fill="none" stroke="#000000" stroke-opacity="0.00" stroke-width="2.00" transform="matrix(1.00, 0.00, 0.00, -1.00, 271.0, 900.0)"></path><path d="M 1033.1 1.0 L 1033.1 181.2 " fill="none" stroke="#000000" stroke-opacity="0.00" stroke-width="2.00" transform="matrix(1.00, 0.00, 0.00, -1.00, 271.0, 900.0)"></path><path d="M 1033.1 181.2 L 1033.1 719.9 " fill="none" stroke="#000000" stroke-opacity="0.00" stroke-width="2.00" transform="matrix(1.00, 0.00, 0.00, -1.00, 271.0, 900.0)"></path><path d="M 1.0 360.5 L 345.7 360.5 " fill="none" stroke="#000000" stroke-opacity="0.00" stroke-width="2.00" transform="matrix(1.00, 0.00, 0.00, -1.00, 271.0, 900.0)"></path><path d="M 345.7 360.5 L 1377.7 360.5 " fill="none" stroke="#000000" stroke-opacity="0.00" stroke-width="2.00" transform="matrix(1.00, 0.00, 0.00, -1.00, 271.0, 900.0)"></path><path d="M 1.0 539.7 L 345.7 539.7 " fill="none" stroke="#000000" stroke-opacity="0.00" stroke-width="2.00" transform="matrix(1.00, 0.00, 0.00, -1.00, 271.0, 900.0)"></path><path d="M 345.7 539.7 L 1377.7 539.7 " fill="none" stroke="#000000" stroke-opacity="0.00" stroke-width="2.00" transform="matrix(1.00, 0.00, 0.00, -1.00, 271.0, 900.0)"></path><path d="M 345.7 1.0 L 345.7 181.2 " fill="none" stroke="#000000" stroke-opacity="0.00" stroke-width="2.00" transform="matrix(1.00, 0.00, 0.00, -1.00, 271.0, 900.0)"></path><path d="M 345.7 181.2 L 345.7 719.9 " fill="none" stroke="#000000" stroke-opacity="0.00" stroke-width="2.00" transform="matrix(1.00, 0.00, 0.00, -1.00, 271.0, 900.0)"></path><path d="M 1.0 181.2 L 1377.7 181.2 " fill="none" stroke="#000000" stroke-opacity="0.00" stroke-width="2.00" transform="matrix(1.00, 0.00, 0.00, -1.00, 271.0, 900.0)"></path></g></g><image xlink:href="361974DA51470A4E69A76CBBBE08C63A.png" width="390.00" height="38.00" transform="matrix(1.00, 0.00, -0.00, -1.00, 766.0, 979.0)"></image><text xml:space="preserve" font-family="HelveticaNeue-Light,Helvetica Neue" font-size="40.0" fill="#FEFFFE" transform="matrix(1.00, 0.00, -0.00, -1.00, 767.7, 948.6)">P</text><text xml:space="preserve" font-family="HelveticaNeue-Light,Helvetica Neue" font-size="40.0" fill="#FEFFFE" transform="matrix(1.00, 0.00, -0.00, -1.00, 792.9, 948.6)">o</text><text xml:space="preserve" font-family="HelveticaNeue-Light,Helvetica Neue" font-size="40.0" fill="#FEFFFE" transform="matrix(1.00, 0.00, -0.00, -1.00, 815.1, 948.6)">o</text><text xml:space="preserve" font-family="HelveticaNeue-Light,Helvetica Neue" font-size="40.0" fill="#FEFFFE" transform="matrix(1.00, 0.00, -0.00, -1.00, 837.4, 948.6)">r</text><text xml:space="preserve" font-family="HelveticaNeue-Light,Helvetica Neue" font-size="40.0" fill="#FEFFFE" transform="matrix(1.00, 0.00, -0.00, -1.00, 850.0, 948.6)"> </text><text xml:space="preserve" font-family="HelveticaNeue-Light,Helvetica Neue" font-size="40.0" fill="#FEFFFE" transform="matrix(1.00, 0.00, -0.00, -1.00, 861.1, 948.6)">C</text><text xml:space="preserve" font-family="HelveticaNeue-Light,Helvetica Neue" font-size="40.0" fill="#FEFFFE" transform="matrix(1.00, 0.00, -0.00, -1.00, 889.2, 948.6)">o</text><text xml:space="preserve" font-family="HelveticaNeue-Light,Helvetica Neue" font-size="40.0" fill="#FEFFFE" transform="matrix(1.00, 0.00, -0.00, -1.00, 911.5, 948.6)">r</text><text xml:space="preserve" font-family="HelveticaNeue-Light,Helvetica Neue" font-size="40.0" fill="#FEFFFE" transform="matrix(1.00, 0.00, -0.00, -1.00, 924.1, 948.6)">r</text><text xml:space="preserve" font-family="HelveticaNeue-Light,Helvetica Neue" font-size="40.0" fill="#FEFFFE" transform="matrix(1.00, 0.00, -0.00, -1.00, 936.0, 948.6)">e</text><text xml:space="preserve" font-family="HelveticaNeue-Light,Helvetica Neue" font-size="40.0" fill="#FEFFFE" transform="matrix(1.00, 0.00, -0.00, -1.00, 956.7, 948.6)">l</text><text xml:space="preserve" font-family="HelveticaNeue-Light,Helvetica Neue" font-size="40.0" fill="#FEFFFE" transform="matrix(1.00, 0.00, -0.00, -1.00, 964.1, 948.6)">a</text><text xml:space="preserve" font-family="HelveticaNeue-Light,Helvetica Neue" font-size="40.0" fill="#FEFFFE" transform="matrix(1.00, 0.00, -0.00, -1.00, 984.9, 948.6)">t</text><text xml:space="preserve" font-family="HelveticaNeue-Light,Helvetica Neue" font-size="40.0" fill="#FEFFFE" transform="matrix(1.00, 0.00, -0.00, -1.00, 996.7, 948.6)">i</text><text xml:space="preserve" font-family="HelveticaNeue-Light,Helvetica Neue" font-size="40.0" fill="#FEFFFE" transform="matrix(1.00, 0.00, -0.00, -1.00, 1004.1, 948.6)">o</text><text xml:space="preserve" font-family="HelveticaNeue-Light,Helvetica Neue" font-size="40.0" fill="#FEFFFE" transform="matrix(1.00, 0.00, -0.00, -1.00, 1026.4, 948.6)">n</text><text xml:space="preserve" font-family="HelveticaNeue-Light,Helvetica Neue" font-size="40.0" fill="#FEFFFE" transform="matrix(1.00, 0.00, -0.00, -1.00, 1047.8, 948.6)"> </text><text xml:space="preserve" font-family="HelveticaNeue-Light,Helvetica Neue" font-size="40.0" fill="#FEFFFE" transform="matrix(1.00, 0.00, -0.00, -1.00, 1059.0, 948.6)">-</text><text xml:space="preserve" font-family="HelveticaNeue-Light,Helvetica Neue" font-size="40.0" fill="#FEFFFE" transform="matrix(1.00, 0.00, -0.00, -1.00, 1073.8, 948.6)"> </text><text xml:space="preserve" font-family="HelveticaNeue-Light,Helvetica Neue" font-size="40.0" fill="#FEFFFE" transform="matrix(1.00, 0.00, -0.00, -1.00, 1084.9, 948.6)">F</text><text xml:space="preserve" font-family="HelveticaNeue-Light,Helvetica Neue" font-size="40.0" fill="#FEFFFE" transform="matrix(1.00, 0.00, -0.00, -1.00, 1106.4, 948.6)">T</text><text xml:space="preserve" font-family="HelveticaNeue-Light,Helvetica Neue" font-size="40.0" fill="#FEFFFE" transform="matrix(1.00, 0.00, -0.00, -1.00, 1128.6, 948.6)">E</text></g></svg>